G04 #@! TF.GenerationSoftware,KiCad,Pcbnew,5.1.5+dfsg1-2build2*
G04 #@! TF.CreationDate,2021-03-07T22:41:56+13:00*
G04 #@! TF.ProjectId,MFOS-wallwart,4d464f53-2d77-4616-9c6c-776172742e6b,rev?*
G04 #@! TF.SameCoordinates,Original*
G04 #@! TF.FileFunction,Copper,L1,Top*
G04 #@! TF.FilePolarity,Positive*
%FSLAX46Y46*%
G04 Gerber Fmt 4.6, Leading zero omitted, Abs format (unit mm)*
G04 Created by KiCad (PCBNEW 5.1.5+dfsg1-2build2) date 2021-03-07 22:41:56*
%MOMM*%
%LPD*%
G04 APERTURE LIST*
%ADD10C,1.700000*%
%ADD11C,0.100000*%
%ADD12O,1.700000X1.700000*%
%ADD13R,1.700000X1.700000*%
%ADD14O,1.600000X1.600000*%
%ADD15C,1.600000*%
%ADD16O,2.200000X2.200000*%
%ADD17R,2.200000X2.200000*%
%ADD18O,2.000000X1.905000*%
%ADD19R,2.000000X1.905000*%
%ADD20C,2.400000*%
%ADD21R,2.400000X2.400000*%
%ADD22C,0.800000*%
%ADD23C,1.500000*%
G04 APERTURE END LIST*
D10*
X66525000Y-94420000D03*
X66525000Y-96960000D03*
X66525000Y-99500000D03*
X66525000Y-102040000D03*
X66525000Y-104580000D03*
X66525000Y-107120000D03*
X66525000Y-109660000D03*
X66525000Y-112200000D03*
X69065000Y-94420000D03*
X69065000Y-96960000D03*
X69065000Y-99500000D03*
X69065000Y-102040000D03*
X69065000Y-104580000D03*
X69065000Y-107120000D03*
X69065000Y-109660000D03*
G04 #@! TA.AperFunction,ComponentPad*
D11*
G36*
X69689504Y-111351204D02*
G01*
X69713773Y-111354804D01*
X69737571Y-111360765D01*
X69760671Y-111369030D01*
X69782849Y-111379520D01*
X69803893Y-111392133D01*
X69823598Y-111406747D01*
X69841777Y-111423223D01*
X69858253Y-111441402D01*
X69872867Y-111461107D01*
X69885480Y-111482151D01*
X69895970Y-111504329D01*
X69904235Y-111527429D01*
X69910196Y-111551227D01*
X69913796Y-111575496D01*
X69915000Y-111600000D01*
X69915000Y-112800000D01*
X69913796Y-112824504D01*
X69910196Y-112848773D01*
X69904235Y-112872571D01*
X69895970Y-112895671D01*
X69885480Y-112917849D01*
X69872867Y-112938893D01*
X69858253Y-112958598D01*
X69841777Y-112976777D01*
X69823598Y-112993253D01*
X69803893Y-113007867D01*
X69782849Y-113020480D01*
X69760671Y-113030970D01*
X69737571Y-113039235D01*
X69713773Y-113045196D01*
X69689504Y-113048796D01*
X69665000Y-113050000D01*
X68465000Y-113050000D01*
X68440496Y-113048796D01*
X68416227Y-113045196D01*
X68392429Y-113039235D01*
X68369329Y-113030970D01*
X68347151Y-113020480D01*
X68326107Y-113007867D01*
X68306402Y-112993253D01*
X68288223Y-112976777D01*
X68271747Y-112958598D01*
X68257133Y-112938893D01*
X68244520Y-112917849D01*
X68234030Y-112895671D01*
X68225765Y-112872571D01*
X68219804Y-112848773D01*
X68216204Y-112824504D01*
X68215000Y-112800000D01*
X68215000Y-111600000D01*
X68216204Y-111575496D01*
X68219804Y-111551227D01*
X68225765Y-111527429D01*
X68234030Y-111504329D01*
X68244520Y-111482151D01*
X68257133Y-111461107D01*
X68271747Y-111441402D01*
X68288223Y-111423223D01*
X68306402Y-111406747D01*
X68326107Y-111392133D01*
X68347151Y-111379520D01*
X68369329Y-111369030D01*
X68392429Y-111360765D01*
X68416227Y-111354804D01*
X68440496Y-111351204D01*
X68465000Y-111350000D01*
X69665000Y-111350000D01*
X69689504Y-111351204D01*
G37*
G04 #@! TD.AperFunction*
D10*
X78505000Y-94420000D03*
X78505000Y-96960000D03*
X78505000Y-99500000D03*
X78505000Y-102040000D03*
X78505000Y-104580000D03*
X78505000Y-107120000D03*
X78505000Y-109660000D03*
X78505000Y-112200000D03*
X81045000Y-94420000D03*
X81045000Y-96960000D03*
X81045000Y-99500000D03*
X81045000Y-102040000D03*
X81045000Y-104580000D03*
X81045000Y-107120000D03*
X81045000Y-109660000D03*
G04 #@! TA.AperFunction,ComponentPad*
D11*
G36*
X81669504Y-111351204D02*
G01*
X81693773Y-111354804D01*
X81717571Y-111360765D01*
X81740671Y-111369030D01*
X81762849Y-111379520D01*
X81783893Y-111392133D01*
X81803598Y-111406747D01*
X81821777Y-111423223D01*
X81838253Y-111441402D01*
X81852867Y-111461107D01*
X81865480Y-111482151D01*
X81875970Y-111504329D01*
X81884235Y-111527429D01*
X81890196Y-111551227D01*
X81893796Y-111575496D01*
X81895000Y-111600000D01*
X81895000Y-112800000D01*
X81893796Y-112824504D01*
X81890196Y-112848773D01*
X81884235Y-112872571D01*
X81875970Y-112895671D01*
X81865480Y-112917849D01*
X81852867Y-112938893D01*
X81838253Y-112958598D01*
X81821777Y-112976777D01*
X81803598Y-112993253D01*
X81783893Y-113007867D01*
X81762849Y-113020480D01*
X81740671Y-113030970D01*
X81717571Y-113039235D01*
X81693773Y-113045196D01*
X81669504Y-113048796D01*
X81645000Y-113050000D01*
X80445000Y-113050000D01*
X80420496Y-113048796D01*
X80396227Y-113045196D01*
X80372429Y-113039235D01*
X80349329Y-113030970D01*
X80327151Y-113020480D01*
X80306107Y-113007867D01*
X80286402Y-112993253D01*
X80268223Y-112976777D01*
X80251747Y-112958598D01*
X80237133Y-112938893D01*
X80224520Y-112917849D01*
X80214030Y-112895671D01*
X80205765Y-112872571D01*
X80199804Y-112848773D01*
X80196204Y-112824504D01*
X80195000Y-112800000D01*
X80195000Y-111600000D01*
X80196204Y-111575496D01*
X80199804Y-111551227D01*
X80205765Y-111527429D01*
X80214030Y-111504329D01*
X80224520Y-111482151D01*
X80237133Y-111461107D01*
X80251747Y-111441402D01*
X80268223Y-111423223D01*
X80286402Y-111406747D01*
X80306107Y-111392133D01*
X80327151Y-111379520D01*
X80349329Y-111369030D01*
X80372429Y-111360765D01*
X80396227Y-111354804D01*
X80420496Y-111351204D01*
X80445000Y-111350000D01*
X81645000Y-111350000D01*
X81669504Y-111351204D01*
G37*
G04 #@! TD.AperFunction*
D10*
X90485000Y-94420000D03*
X90485000Y-96960000D03*
X90485000Y-99500000D03*
X90485000Y-102040000D03*
X90485000Y-104580000D03*
X90485000Y-107120000D03*
X90485000Y-109660000D03*
X90485000Y-112200000D03*
X93025000Y-94420000D03*
X93025000Y-96960000D03*
X93025000Y-99500000D03*
X93025000Y-102040000D03*
X93025000Y-104580000D03*
X93025000Y-107120000D03*
X93025000Y-109660000D03*
G04 #@! TA.AperFunction,ComponentPad*
D11*
G36*
X93649504Y-111351204D02*
G01*
X93673773Y-111354804D01*
X93697571Y-111360765D01*
X93720671Y-111369030D01*
X93742849Y-111379520D01*
X93763893Y-111392133D01*
X93783598Y-111406747D01*
X93801777Y-111423223D01*
X93818253Y-111441402D01*
X93832867Y-111461107D01*
X93845480Y-111482151D01*
X93855970Y-111504329D01*
X93864235Y-111527429D01*
X93870196Y-111551227D01*
X93873796Y-111575496D01*
X93875000Y-111600000D01*
X93875000Y-112800000D01*
X93873796Y-112824504D01*
X93870196Y-112848773D01*
X93864235Y-112872571D01*
X93855970Y-112895671D01*
X93845480Y-112917849D01*
X93832867Y-112938893D01*
X93818253Y-112958598D01*
X93801777Y-112976777D01*
X93783598Y-112993253D01*
X93763893Y-113007867D01*
X93742849Y-113020480D01*
X93720671Y-113030970D01*
X93697571Y-113039235D01*
X93673773Y-113045196D01*
X93649504Y-113048796D01*
X93625000Y-113050000D01*
X92425000Y-113050000D01*
X92400496Y-113048796D01*
X92376227Y-113045196D01*
X92352429Y-113039235D01*
X92329329Y-113030970D01*
X92307151Y-113020480D01*
X92286107Y-113007867D01*
X92266402Y-112993253D01*
X92248223Y-112976777D01*
X92231747Y-112958598D01*
X92217133Y-112938893D01*
X92204520Y-112917849D01*
X92194030Y-112895671D01*
X92185765Y-112872571D01*
X92179804Y-112848773D01*
X92176204Y-112824504D01*
X92175000Y-112800000D01*
X92175000Y-111600000D01*
X92176204Y-111575496D01*
X92179804Y-111551227D01*
X92185765Y-111527429D01*
X92194030Y-111504329D01*
X92204520Y-111482151D01*
X92217133Y-111461107D01*
X92231747Y-111441402D01*
X92248223Y-111423223D01*
X92266402Y-111406747D01*
X92286107Y-111392133D01*
X92307151Y-111379520D01*
X92329329Y-111369030D01*
X92352429Y-111360765D01*
X92376227Y-111354804D01*
X92400496Y-111351204D01*
X92425000Y-111350000D01*
X93625000Y-111350000D01*
X93649504Y-111351204D01*
G37*
G04 #@! TD.AperFunction*
D10*
X102465000Y-94420000D03*
X102465000Y-96960000D03*
X102465000Y-99500000D03*
X102465000Y-102040000D03*
X102465000Y-104580000D03*
X102465000Y-107120000D03*
X102465000Y-109660000D03*
X102465000Y-112200000D03*
X105005000Y-94420000D03*
X105005000Y-96960000D03*
X105005000Y-99500000D03*
X105005000Y-102040000D03*
X105005000Y-104580000D03*
X105005000Y-107120000D03*
X105005000Y-109660000D03*
G04 #@! TA.AperFunction,ComponentPad*
D11*
G36*
X105629504Y-111351204D02*
G01*
X105653773Y-111354804D01*
X105677571Y-111360765D01*
X105700671Y-111369030D01*
X105722849Y-111379520D01*
X105743893Y-111392133D01*
X105763598Y-111406747D01*
X105781777Y-111423223D01*
X105798253Y-111441402D01*
X105812867Y-111461107D01*
X105825480Y-111482151D01*
X105835970Y-111504329D01*
X105844235Y-111527429D01*
X105850196Y-111551227D01*
X105853796Y-111575496D01*
X105855000Y-111600000D01*
X105855000Y-112800000D01*
X105853796Y-112824504D01*
X105850196Y-112848773D01*
X105844235Y-112872571D01*
X105835970Y-112895671D01*
X105825480Y-112917849D01*
X105812867Y-112938893D01*
X105798253Y-112958598D01*
X105781777Y-112976777D01*
X105763598Y-112993253D01*
X105743893Y-113007867D01*
X105722849Y-113020480D01*
X105700671Y-113030970D01*
X105677571Y-113039235D01*
X105653773Y-113045196D01*
X105629504Y-113048796D01*
X105605000Y-113050000D01*
X104405000Y-113050000D01*
X104380496Y-113048796D01*
X104356227Y-113045196D01*
X104332429Y-113039235D01*
X104309329Y-113030970D01*
X104287151Y-113020480D01*
X104266107Y-113007867D01*
X104246402Y-112993253D01*
X104228223Y-112976777D01*
X104211747Y-112958598D01*
X104197133Y-112938893D01*
X104184520Y-112917849D01*
X104174030Y-112895671D01*
X104165765Y-112872571D01*
X104159804Y-112848773D01*
X104156204Y-112824504D01*
X104155000Y-112800000D01*
X104155000Y-111600000D01*
X104156204Y-111575496D01*
X104159804Y-111551227D01*
X104165765Y-111527429D01*
X104174030Y-111504329D01*
X104184520Y-111482151D01*
X104197133Y-111461107D01*
X104211747Y-111441402D01*
X104228223Y-111423223D01*
X104246402Y-111406747D01*
X104266107Y-111392133D01*
X104287151Y-111379520D01*
X104309329Y-111369030D01*
X104332429Y-111360765D01*
X104356227Y-111354804D01*
X104380496Y-111351204D01*
X104405000Y-111350000D01*
X105605000Y-111350000D01*
X105629504Y-111351204D01*
G37*
G04 #@! TD.AperFunction*
D12*
X57200000Y-90780000D03*
X59740000Y-90780000D03*
X57200000Y-93320000D03*
X59740000Y-93320000D03*
X57200000Y-95860000D03*
X59740000Y-95860000D03*
X57200000Y-98400000D03*
X59740000Y-98400000D03*
X57200000Y-100940000D03*
D13*
X59740000Y-100940000D03*
D12*
X56860000Y-71440000D03*
X59400000Y-71440000D03*
X56860000Y-73980000D03*
X59400000Y-73980000D03*
X56860000Y-76520000D03*
X59400000Y-76520000D03*
X56860000Y-79060000D03*
X59400000Y-79060000D03*
X56860000Y-81600000D03*
D13*
X59400000Y-81600000D03*
D10*
X66460000Y-63820000D03*
X66460000Y-66360000D03*
X66460000Y-68900000D03*
X66460000Y-71440000D03*
X66460000Y-73980000D03*
X66460000Y-76520000D03*
X66460000Y-79060000D03*
X66460000Y-81600000D03*
X69000000Y-63820000D03*
X69000000Y-66360000D03*
X69000000Y-68900000D03*
X69000000Y-71440000D03*
X69000000Y-73980000D03*
X69000000Y-76520000D03*
X69000000Y-79060000D03*
G04 #@! TA.AperFunction,ComponentPad*
D11*
G36*
X69624504Y-80751204D02*
G01*
X69648773Y-80754804D01*
X69672571Y-80760765D01*
X69695671Y-80769030D01*
X69717849Y-80779520D01*
X69738893Y-80792133D01*
X69758598Y-80806747D01*
X69776777Y-80823223D01*
X69793253Y-80841402D01*
X69807867Y-80861107D01*
X69820480Y-80882151D01*
X69830970Y-80904329D01*
X69839235Y-80927429D01*
X69845196Y-80951227D01*
X69848796Y-80975496D01*
X69850000Y-81000000D01*
X69850000Y-82200000D01*
X69848796Y-82224504D01*
X69845196Y-82248773D01*
X69839235Y-82272571D01*
X69830970Y-82295671D01*
X69820480Y-82317849D01*
X69807867Y-82338893D01*
X69793253Y-82358598D01*
X69776777Y-82376777D01*
X69758598Y-82393253D01*
X69738893Y-82407867D01*
X69717849Y-82420480D01*
X69695671Y-82430970D01*
X69672571Y-82439235D01*
X69648773Y-82445196D01*
X69624504Y-82448796D01*
X69600000Y-82450000D01*
X68400000Y-82450000D01*
X68375496Y-82448796D01*
X68351227Y-82445196D01*
X68327429Y-82439235D01*
X68304329Y-82430970D01*
X68282151Y-82420480D01*
X68261107Y-82407867D01*
X68241402Y-82393253D01*
X68223223Y-82376777D01*
X68206747Y-82358598D01*
X68192133Y-82338893D01*
X68179520Y-82317849D01*
X68169030Y-82295671D01*
X68160765Y-82272571D01*
X68154804Y-82248773D01*
X68151204Y-82224504D01*
X68150000Y-82200000D01*
X68150000Y-81000000D01*
X68151204Y-80975496D01*
X68154804Y-80951227D01*
X68160765Y-80927429D01*
X68169030Y-80904329D01*
X68179520Y-80882151D01*
X68192133Y-80861107D01*
X68206747Y-80841402D01*
X68223223Y-80823223D01*
X68241402Y-80806747D01*
X68261107Y-80792133D01*
X68282151Y-80779520D01*
X68304329Y-80769030D01*
X68327429Y-80760765D01*
X68351227Y-80754804D01*
X68375496Y-80751204D01*
X68400000Y-80750000D01*
X69600000Y-80750000D01*
X69624504Y-80751204D01*
G37*
G04 #@! TD.AperFunction*
D10*
X78260000Y-63820000D03*
X78260000Y-66360000D03*
X78260000Y-68900000D03*
X78260000Y-71440000D03*
X78260000Y-73980000D03*
X78260000Y-76520000D03*
X78260000Y-79060000D03*
X78260000Y-81600000D03*
X80800000Y-63820000D03*
X80800000Y-66360000D03*
X80800000Y-68900000D03*
X80800000Y-71440000D03*
X80800000Y-73980000D03*
X80800000Y-76520000D03*
X80800000Y-79060000D03*
G04 #@! TA.AperFunction,ComponentPad*
D11*
G36*
X81424504Y-80751204D02*
G01*
X81448773Y-80754804D01*
X81472571Y-80760765D01*
X81495671Y-80769030D01*
X81517849Y-80779520D01*
X81538893Y-80792133D01*
X81558598Y-80806747D01*
X81576777Y-80823223D01*
X81593253Y-80841402D01*
X81607867Y-80861107D01*
X81620480Y-80882151D01*
X81630970Y-80904329D01*
X81639235Y-80927429D01*
X81645196Y-80951227D01*
X81648796Y-80975496D01*
X81650000Y-81000000D01*
X81650000Y-82200000D01*
X81648796Y-82224504D01*
X81645196Y-82248773D01*
X81639235Y-82272571D01*
X81630970Y-82295671D01*
X81620480Y-82317849D01*
X81607867Y-82338893D01*
X81593253Y-82358598D01*
X81576777Y-82376777D01*
X81558598Y-82393253D01*
X81538893Y-82407867D01*
X81517849Y-82420480D01*
X81495671Y-82430970D01*
X81472571Y-82439235D01*
X81448773Y-82445196D01*
X81424504Y-82448796D01*
X81400000Y-82450000D01*
X80200000Y-82450000D01*
X80175496Y-82448796D01*
X80151227Y-82445196D01*
X80127429Y-82439235D01*
X80104329Y-82430970D01*
X80082151Y-82420480D01*
X80061107Y-82407867D01*
X80041402Y-82393253D01*
X80023223Y-82376777D01*
X80006747Y-82358598D01*
X79992133Y-82338893D01*
X79979520Y-82317849D01*
X79969030Y-82295671D01*
X79960765Y-82272571D01*
X79954804Y-82248773D01*
X79951204Y-82224504D01*
X79950000Y-82200000D01*
X79950000Y-81000000D01*
X79951204Y-80975496D01*
X79954804Y-80951227D01*
X79960765Y-80927429D01*
X79969030Y-80904329D01*
X79979520Y-80882151D01*
X79992133Y-80861107D01*
X80006747Y-80841402D01*
X80023223Y-80823223D01*
X80041402Y-80806747D01*
X80061107Y-80792133D01*
X80082151Y-80779520D01*
X80104329Y-80769030D01*
X80127429Y-80760765D01*
X80151227Y-80754804D01*
X80175496Y-80751204D01*
X80200000Y-80750000D01*
X81400000Y-80750000D01*
X81424504Y-80751204D01*
G37*
G04 #@! TD.AperFunction*
D10*
X90260000Y-63820000D03*
X90260000Y-66360000D03*
X90260000Y-68900000D03*
X90260000Y-71440000D03*
X90260000Y-73980000D03*
X90260000Y-76520000D03*
X90260000Y-79060000D03*
X90260000Y-81600000D03*
X92800000Y-63820000D03*
X92800000Y-66360000D03*
X92800000Y-68900000D03*
X92800000Y-71440000D03*
X92800000Y-73980000D03*
X92800000Y-76520000D03*
X92800000Y-79060000D03*
G04 #@! TA.AperFunction,ComponentPad*
D11*
G36*
X93424504Y-80751204D02*
G01*
X93448773Y-80754804D01*
X93472571Y-80760765D01*
X93495671Y-80769030D01*
X93517849Y-80779520D01*
X93538893Y-80792133D01*
X93558598Y-80806747D01*
X93576777Y-80823223D01*
X93593253Y-80841402D01*
X93607867Y-80861107D01*
X93620480Y-80882151D01*
X93630970Y-80904329D01*
X93639235Y-80927429D01*
X93645196Y-80951227D01*
X93648796Y-80975496D01*
X93650000Y-81000000D01*
X93650000Y-82200000D01*
X93648796Y-82224504D01*
X93645196Y-82248773D01*
X93639235Y-82272571D01*
X93630970Y-82295671D01*
X93620480Y-82317849D01*
X93607867Y-82338893D01*
X93593253Y-82358598D01*
X93576777Y-82376777D01*
X93558598Y-82393253D01*
X93538893Y-82407867D01*
X93517849Y-82420480D01*
X93495671Y-82430970D01*
X93472571Y-82439235D01*
X93448773Y-82445196D01*
X93424504Y-82448796D01*
X93400000Y-82450000D01*
X92200000Y-82450000D01*
X92175496Y-82448796D01*
X92151227Y-82445196D01*
X92127429Y-82439235D01*
X92104329Y-82430970D01*
X92082151Y-82420480D01*
X92061107Y-82407867D01*
X92041402Y-82393253D01*
X92023223Y-82376777D01*
X92006747Y-82358598D01*
X91992133Y-82338893D01*
X91979520Y-82317849D01*
X91969030Y-82295671D01*
X91960765Y-82272571D01*
X91954804Y-82248773D01*
X91951204Y-82224504D01*
X91950000Y-82200000D01*
X91950000Y-81000000D01*
X91951204Y-80975496D01*
X91954804Y-80951227D01*
X91960765Y-80927429D01*
X91969030Y-80904329D01*
X91979520Y-80882151D01*
X91992133Y-80861107D01*
X92006747Y-80841402D01*
X92023223Y-80823223D01*
X92041402Y-80806747D01*
X92061107Y-80792133D01*
X92082151Y-80779520D01*
X92104329Y-80769030D01*
X92127429Y-80760765D01*
X92151227Y-80754804D01*
X92175496Y-80751204D01*
X92200000Y-80750000D01*
X93400000Y-80750000D01*
X93424504Y-80751204D01*
G37*
G04 #@! TD.AperFunction*
D10*
X102411600Y-63659600D03*
X102411600Y-66199600D03*
X102411600Y-68739600D03*
X102411600Y-71279600D03*
X102411600Y-73819600D03*
X102411600Y-76359600D03*
X102411600Y-78899600D03*
X102411600Y-81439600D03*
X104951600Y-63659600D03*
X104951600Y-66199600D03*
X104951600Y-68739600D03*
X104951600Y-71279600D03*
X104951600Y-73819600D03*
X104951600Y-76359600D03*
X104951600Y-78899600D03*
G04 #@! TA.AperFunction,ComponentPad*
D11*
G36*
X105576104Y-80590804D02*
G01*
X105600373Y-80594404D01*
X105624171Y-80600365D01*
X105647271Y-80608630D01*
X105669449Y-80619120D01*
X105690493Y-80631733D01*
X105710198Y-80646347D01*
X105728377Y-80662823D01*
X105744853Y-80681002D01*
X105759467Y-80700707D01*
X105772080Y-80721751D01*
X105782570Y-80743929D01*
X105790835Y-80767029D01*
X105796796Y-80790827D01*
X105800396Y-80815096D01*
X105801600Y-80839600D01*
X105801600Y-82039600D01*
X105800396Y-82064104D01*
X105796796Y-82088373D01*
X105790835Y-82112171D01*
X105782570Y-82135271D01*
X105772080Y-82157449D01*
X105759467Y-82178493D01*
X105744853Y-82198198D01*
X105728377Y-82216377D01*
X105710198Y-82232853D01*
X105690493Y-82247467D01*
X105669449Y-82260080D01*
X105647271Y-82270570D01*
X105624171Y-82278835D01*
X105600373Y-82284796D01*
X105576104Y-82288396D01*
X105551600Y-82289600D01*
X104351600Y-82289600D01*
X104327096Y-82288396D01*
X104302827Y-82284796D01*
X104279029Y-82278835D01*
X104255929Y-82270570D01*
X104233751Y-82260080D01*
X104212707Y-82247467D01*
X104193002Y-82232853D01*
X104174823Y-82216377D01*
X104158347Y-82198198D01*
X104143733Y-82178493D01*
X104131120Y-82157449D01*
X104120630Y-82135271D01*
X104112365Y-82112171D01*
X104106404Y-82088373D01*
X104102804Y-82064104D01*
X104101600Y-82039600D01*
X104101600Y-80839600D01*
X104102804Y-80815096D01*
X104106404Y-80790827D01*
X104112365Y-80767029D01*
X104120630Y-80743929D01*
X104131120Y-80721751D01*
X104143733Y-80700707D01*
X104158347Y-80681002D01*
X104174823Y-80662823D01*
X104193002Y-80646347D01*
X104212707Y-80631733D01*
X104233751Y-80619120D01*
X104255929Y-80608630D01*
X104279029Y-80600365D01*
X104302827Y-80594404D01*
X104327096Y-80590804D01*
X104351600Y-80589600D01*
X105551600Y-80589600D01*
X105576104Y-80590804D01*
G37*
G04 #@! TD.AperFunction*
D14*
X193852800Y-98704400D03*
D15*
X204012800Y-98704400D03*
D12*
X204012800Y-91744800D03*
D13*
X204012800Y-89204800D03*
D12*
X203962000Y-84429600D03*
D13*
X203962000Y-81889600D03*
D12*
X204001200Y-74699600D03*
D13*
X204001200Y-77239600D03*
D16*
X114452400Y-92252800D03*
D17*
X114452400Y-82092800D03*
D16*
X119551600Y-82079600D03*
D17*
X119551600Y-92239600D03*
D15*
X132645200Y-83985600D03*
X130145200Y-83985600D03*
X130240400Y-90932000D03*
X132740400Y-90932000D03*
D18*
X145551600Y-87159600D03*
X145551600Y-89699600D03*
D19*
X145551600Y-92239600D03*
D18*
X145551600Y-107159600D03*
X145551600Y-109699600D03*
D19*
X145551600Y-112239600D03*
D18*
X145551600Y-64159600D03*
X145551600Y-66699600D03*
D19*
X145551600Y-69239600D03*
D20*
X164001200Y-103739600D03*
D21*
X164001200Y-111239600D03*
D14*
X123901200Y-96164400D03*
D15*
X123901200Y-106324400D03*
D14*
X114604800Y-78282800D03*
D15*
X114604800Y-68122800D03*
D16*
X119551600Y-106399600D03*
D17*
X119551600Y-96239600D03*
D16*
X119551600Y-78399600D03*
D17*
X119551600Y-68239600D03*
D16*
X114604800Y-106476800D03*
D17*
X114604800Y-96316800D03*
D16*
X124002800Y-68224400D03*
D17*
X124002800Y-78384400D03*
D16*
X197001200Y-91399600D03*
D17*
X197001200Y-81239600D03*
D16*
X197001200Y-77399600D03*
D17*
X197001200Y-67239600D03*
D15*
X132852800Y-97993200D03*
X130352800Y-97993200D03*
X132344800Y-69951600D03*
X129844800Y-69951600D03*
X133005200Y-105105200D03*
X130505200Y-105105200D03*
X132497200Y-76962000D03*
X129997200Y-76962000D03*
D20*
X167501200Y-87239600D03*
D21*
X160001200Y-87239600D03*
D20*
X187500000Y-87239600D03*
D21*
X180000000Y-87239600D03*
D20*
X184000000Y-63500000D03*
D21*
X184000000Y-71000000D03*
D20*
X184001200Y-103739600D03*
D21*
X184001200Y-111239600D03*
D20*
X164000000Y-63500000D03*
D21*
X164000000Y-71000000D03*
D22*
X97840000Y-78760000D03*
D23*
X128574800Y-78384400D02*
X129997200Y-76962000D01*
X124002800Y-78384400D02*
X128574800Y-78384400D01*
X145551600Y-71692100D02*
X143837700Y-73406000D01*
X145551600Y-69239600D02*
X145551600Y-71692100D01*
X129997200Y-75830630D02*
X129997200Y-76962000D01*
X132421830Y-73406000D02*
X129997200Y-75830630D01*
X143837700Y-73406000D02*
X132421830Y-73406000D01*
X197001200Y-69839600D02*
X197001200Y-67239600D01*
X195601200Y-71239600D02*
X197001200Y-69839600D01*
X183001200Y-71239600D02*
X195601200Y-71239600D01*
X161001200Y-69239600D02*
X163001200Y-71239600D01*
X145551600Y-69239600D02*
X161001200Y-69239600D01*
X163001200Y-71239600D02*
X183001200Y-71239600D01*
X180301200Y-71239600D02*
X183001200Y-71239600D01*
X180001200Y-71539600D02*
X180301200Y-71239600D01*
X180001200Y-87239600D02*
X180001200Y-71539600D01*
X114604800Y-108032434D02*
X116147966Y-109575600D01*
X114604800Y-106476800D02*
X114604800Y-108032434D01*
X126034800Y-109575600D02*
X130505200Y-105105200D01*
X116147966Y-109575600D02*
X126034800Y-109575600D01*
X143051600Y-109699600D02*
X145551600Y-109699600D01*
X130505200Y-106236570D02*
X133968230Y-109699600D01*
X133968230Y-109699600D02*
X143051600Y-109699600D01*
X130505200Y-105105200D02*
X130505200Y-106236570D01*
X196341200Y-91399600D02*
X197001200Y-91399600D01*
X198628000Y-93026400D02*
X197001200Y-91399600D01*
X194964400Y-103739600D02*
X198526400Y-100177600D01*
X184001200Y-103739600D02*
X194964400Y-103739600D01*
X198526400Y-100177600D02*
X198628000Y-93026400D01*
X184001200Y-103739600D02*
X164001200Y-103739600D01*
X164001200Y-90739600D02*
X167501200Y-87239600D01*
X164001200Y-103739600D02*
X164001200Y-90739600D01*
X158041200Y-109699600D02*
X145551600Y-109699600D01*
X164001200Y-103739600D02*
X158041200Y-109699600D01*
X129844800Y-68820230D02*
X129844800Y-69951600D01*
X134505430Y-64159600D02*
X129844800Y-68820230D01*
X145551600Y-64159600D02*
X134505430Y-64159600D01*
X124002800Y-68224400D02*
X127828000Y-68224400D01*
X119566800Y-68224400D02*
X119551600Y-68239600D01*
X124002800Y-68224400D02*
X119566800Y-68224400D01*
X114721600Y-68239600D02*
X114604800Y-68122800D01*
X119551600Y-68239600D02*
X114721600Y-68239600D01*
X128932800Y-92239600D02*
X130240400Y-90932000D01*
X119551600Y-92239600D02*
X128932800Y-92239600D01*
X145551600Y-92239600D02*
X137732000Y-92239600D01*
X137732000Y-92239600D02*
X135534400Y-94437200D01*
X130240400Y-92063370D02*
X130240400Y-90932000D01*
X132614230Y-94437200D02*
X130240400Y-92063370D01*
X135534400Y-94437200D02*
X132614230Y-94437200D01*
X102411600Y-71279600D02*
X104951600Y-71279600D01*
X102350400Y-71340800D02*
X102411600Y-71279600D01*
X128117600Y-68224400D02*
X127828000Y-68224400D01*
X129844800Y-69951600D02*
X128117600Y-68224400D01*
X106153681Y-71279600D02*
X106233281Y-71200000D01*
X104951600Y-71279600D02*
X106153681Y-71279600D01*
X111527600Y-71200000D02*
X114604800Y-68122800D01*
X106233281Y-71200000D02*
X111527600Y-71200000D01*
X66525000Y-102040000D02*
X105005000Y-102040000D01*
X104791200Y-71440000D02*
X104951600Y-71279600D01*
X57200000Y-90780000D02*
X59740000Y-90780000D01*
X60942081Y-90780000D02*
X63800000Y-93637919D01*
X59740000Y-90780000D02*
X60942081Y-90780000D01*
X65322919Y-102040000D02*
X66525000Y-102040000D01*
X63800000Y-100517081D02*
X65322919Y-102040000D01*
X63800000Y-93637919D02*
X63800000Y-100517081D01*
X56860000Y-71440000D02*
X97840000Y-71440000D01*
X97840000Y-71440000D02*
X97840000Y-78760000D01*
X97840000Y-71440000D02*
X104791200Y-71440000D01*
X97840000Y-78760000D02*
X97840000Y-78760000D01*
X123391600Y-106399600D02*
X123551600Y-106239600D01*
X123551600Y-104794400D02*
X130352800Y-97993200D01*
X123551600Y-106239600D02*
X123551600Y-104794400D01*
X102411600Y-81439600D02*
X102414548Y-81439600D01*
X114604800Y-101452800D02*
X119551600Y-106399600D01*
X114604800Y-96316800D02*
X114604800Y-101452800D01*
X102411600Y-81439600D02*
X104951600Y-81439600D01*
X138387830Y-107159600D02*
X145551600Y-107159600D01*
X130352800Y-99124570D02*
X138387830Y-107159600D01*
X130352800Y-97993200D02*
X130352800Y-99124570D01*
X102350400Y-81500800D02*
X102411600Y-81439600D01*
X123826000Y-106399600D02*
X123901200Y-106324400D01*
X119551600Y-106399600D02*
X123826000Y-106399600D01*
X102372000Y-81400000D02*
X102411600Y-81439600D01*
X57020400Y-81439600D02*
X56860000Y-81600000D01*
X102411600Y-81439600D02*
X57020400Y-81439600D01*
X66525000Y-112200000D02*
X105005000Y-112200000D01*
X105855000Y-112200000D02*
X110400000Y-107655000D01*
X105005000Y-112200000D02*
X105855000Y-112200000D01*
X110400000Y-105657600D02*
X114604800Y-101452800D01*
X110400000Y-107655000D02*
X110400000Y-105657600D01*
X57200000Y-100940000D02*
X59740000Y-100940000D01*
X59740000Y-103290000D02*
X63000000Y-106550000D01*
X59740000Y-100940000D02*
X59740000Y-103290000D01*
X65322919Y-112200000D02*
X66525000Y-112200000D01*
X63000000Y-109877081D02*
X65322919Y-112200000D01*
X63000000Y-106550000D02*
X63000000Y-109877081D01*
X112004800Y-89342800D02*
X112004800Y-93716800D01*
X104951600Y-81439600D02*
X104951600Y-82289600D01*
X104951600Y-82289600D02*
X112004800Y-89342800D01*
X112004800Y-93716800D02*
X114604800Y-96316800D01*
X197001200Y-77399600D02*
X197001200Y-81239600D01*
X200191200Y-84429600D02*
X197001200Y-81239600D01*
X203962000Y-84429600D02*
X200191200Y-84429600D01*
X119391600Y-82239600D02*
X119551600Y-82079600D01*
X114465600Y-82079600D02*
X114452400Y-82092800D01*
X119551600Y-82079600D02*
X114465600Y-82079600D01*
X128239200Y-82079600D02*
X130145200Y-83985600D01*
X119551600Y-82079600D02*
X128239200Y-82079600D01*
X102411600Y-68739600D02*
X104951600Y-68739600D01*
X114005600Y-82539600D02*
X114452400Y-82092800D01*
X145551600Y-87159600D02*
X131050800Y-87159600D01*
X130145200Y-86254000D02*
X130145200Y-83985600D01*
X131050800Y-87159600D02*
X130145200Y-86254000D01*
X148051600Y-87159600D02*
X152508800Y-82702400D01*
X145551600Y-87159600D02*
X148051600Y-87159600D01*
X183896000Y-97078800D02*
X186131200Y-97078800D01*
X169519600Y-82702400D02*
X183896000Y-97078800D01*
X186165825Y-97113425D02*
X186131200Y-97078800D01*
X187756800Y-98704400D02*
X186165825Y-97113425D01*
X193852800Y-98704400D02*
X187756800Y-98704400D01*
X152508800Y-82702400D02*
X169519600Y-82702400D01*
X66620400Y-68739600D02*
X66460000Y-68900000D01*
X102411600Y-68739600D02*
X85660400Y-68739600D01*
X66525000Y-99500000D02*
X85700000Y-99500000D01*
X85700000Y-99500000D02*
X105005000Y-99500000D01*
X85660400Y-68739600D02*
X66620400Y-68739600D01*
X204001200Y-77239600D02*
X204001200Y-81850400D01*
X204012800Y-91744800D02*
X204012800Y-98704400D01*
M02*
