M48
; DRILL file {KiCad 5.1.5+dfsg1-2build2} date Sun 07 Mar 2021 22:41:46
; FORMAT={-:-/ absolute / inch / decimal}
; #@! TF.CreationDate,2021-03-07T22:41:46+13:00
; #@! TF.GenerationSoftware,Kicad,Pcbnew,5.1.5+dfsg1-2build2
FMAT,2
INCH
T1C0.0157
T2C0.0315
T3C0.0394
T4C0.0433
T5C0.0472
%
G90
G05
T1
X3.852Y-3.1008
T2
X7.632Y-3.886
X8.032Y-3.886
X5.138Y-4.138
X5.2364Y-4.138
X5.112Y-2.754
X5.2104Y-2.754
X5.132Y-3.858
X5.2304Y-3.858
X5.1276Y-3.58
X5.226Y-3.58
X4.512Y-2.682
X4.512Y-3.082
X5.118Y-3.03
X5.2164Y-3.03
X5.1238Y-3.3065
X5.2223Y-3.3065
X4.878Y-3.786
X4.878Y-4.186
T3
X3.0907Y-3.7173
X3.0907Y-3.8173
X3.0907Y-3.9173
X3.0907Y-4.0173
X3.0907Y-4.1173
X3.0907Y-4.2173
X3.0907Y-4.3173
X3.0907Y-4.4173
X3.1907Y-3.7173
X3.1907Y-3.8173
X3.1907Y-3.9173
X3.1907Y-4.0173
X3.1907Y-4.1173
X3.1907Y-4.2173
X3.1907Y-4.3173
X3.1907Y-4.4173
X2.6165Y-2.5126
X2.6165Y-2.6126
X2.6165Y-2.7126
X2.6165Y-2.8126
X2.6165Y-2.9126
X2.6165Y-3.0126
X2.6165Y-3.1126
X2.6165Y-3.2126
X2.7165Y-2.5126
X2.7165Y-2.6126
X2.7165Y-2.7126
X2.7165Y-2.8126
X2.7165Y-2.9126
X2.7165Y-3.0126
X2.7165Y-3.1126
X2.7165Y-3.2126
X2.252Y-3.574
X2.252Y-3.674
X2.252Y-3.774
X2.252Y-3.874
X2.252Y-3.974
X2.352Y-3.574
X2.352Y-3.674
X2.352Y-3.774
X2.352Y-3.874
X2.352Y-3.974
X3.5535Y-2.5126
X3.5535Y-2.6126
X3.5535Y-2.7126
X3.5535Y-2.8126
X3.5535Y-2.9126
X3.5535Y-3.0126
X3.5535Y-3.1126
X3.5535Y-3.2126
X3.6535Y-2.5126
X3.6535Y-2.6126
X3.6535Y-2.7126
X3.6535Y-2.8126
X3.6535Y-2.9126
X3.6535Y-3.0126
X3.6535Y-3.1126
X3.6535Y-3.2126
X4.0341Y-3.7173
X4.0341Y-3.8173
X4.0341Y-3.9173
X4.0341Y-4.0173
X4.0341Y-4.1173
X4.0341Y-4.2173
X4.0341Y-4.3173
X4.0341Y-4.4173
X4.1341Y-3.7173
X4.1341Y-3.8173
X4.1341Y-3.9173
X4.1341Y-4.0173
X4.1341Y-4.1173
X4.1341Y-4.2173
X4.1341Y-4.3173
X4.1341Y-4.4173
X2.6191Y-3.7173
X2.6191Y-3.8173
X2.6191Y-3.9173
X2.6191Y-4.0173
X2.6191Y-4.1173
X2.6191Y-4.2173
X2.6191Y-4.3173
X2.6191Y-4.4173
X2.7191Y-3.7173
X2.7191Y-3.8173
X2.7191Y-3.9173
X2.7191Y-4.0173
X2.7191Y-4.1173
X2.7191Y-4.2173
X2.7191Y-4.3173
X2.7191Y-4.4173
X8.0315Y-2.9409
X8.0315Y-3.0409
X3.0811Y-2.5126
X3.0811Y-2.6126
X3.0811Y-2.7126
X3.0811Y-2.8126
X3.0811Y-2.9126
X3.0811Y-3.0126
X3.0811Y-3.1126
X3.0811Y-3.2126
X3.1811Y-2.5126
X3.1811Y-2.6126
X3.1811Y-2.7126
X3.1811Y-2.8126
X3.1811Y-2.9126
X3.1811Y-3.0126
X3.1811Y-3.1126
X3.1811Y-3.2126
X8.032Y-3.512
X8.032Y-3.612
X3.5624Y-3.7173
X3.5624Y-3.8173
X3.5624Y-3.9173
X3.5624Y-4.0173
X3.5624Y-4.1173
X3.5624Y-4.2173
X3.5624Y-4.3173
X3.5624Y-4.4173
X3.6624Y-3.7173
X3.6624Y-3.8173
X3.6624Y-3.9173
X3.6624Y-4.0173
X3.6624Y-4.1173
X3.6624Y-4.2173
X3.6624Y-4.3173
X3.6624Y-4.4173
X2.2386Y-2.8126
X2.2386Y-2.9126
X2.2386Y-3.0126
X2.2386Y-3.1126
X2.2386Y-3.2126
X2.3386Y-2.8126
X2.3386Y-2.9126
X2.3386Y-3.0126
X2.3386Y-3.1126
X2.3386Y-3.2126
X4.032Y-2.5063
X4.032Y-2.6063
X4.032Y-2.7063
X4.032Y-2.8063
X4.032Y-2.9063
X4.032Y-3.0063
X4.032Y-3.1063
X4.032Y-3.2063
X4.132Y-2.5063
X4.132Y-2.6063
X4.132Y-2.7063
X4.132Y-2.8063
X4.132Y-2.9063
X4.132Y-3.0063
X4.132Y-3.1063
X4.132Y-3.2063
X8.03Y-3.224
X8.03Y-3.324
T4
X7.756Y-2.6472
X7.756Y-3.0472
X4.512Y-3.792
X4.512Y-4.192
X5.7304Y-3.4315
X5.7304Y-3.5315
X5.7304Y-3.6315
X4.7068Y-3.2315
X4.7068Y-3.6315
X5.7304Y-2.526
X5.7304Y-2.626
X5.7304Y-2.726
X5.7304Y-4.2189
X5.7304Y-4.3189
X5.7304Y-4.4189
X7.756Y-3.1984
X7.756Y-3.5984
X4.506Y-3.232
X4.506Y-3.632
X4.7068Y-2.6866
X4.7068Y-3.0866
X4.882Y-2.686
X4.882Y-3.086
X4.7068Y-3.789
X4.7068Y-4.189
T5
X6.4567Y-4.0842
X6.4567Y-4.3795
X6.4567Y-2.5
X6.4567Y-2.7953
X6.2993Y-3.4346
X6.5945Y-3.4346
X7.0866Y-3.4346
X7.3819Y-3.4346
X7.2441Y-4.0842
X7.2441Y-4.3795
X7.2441Y-2.5
X7.2441Y-2.7953
T0
M30
