G04 #@! TF.GenerationSoftware,KiCad,Pcbnew,5.1.5+dfsg1-2build2*
G04 #@! TF.CreationDate,2021-03-07T22:41:56+13:00*
G04 #@! TF.ProjectId,MFOS-wallwart,4d464f53-2d77-4616-9c6c-776172742e6b,rev?*
G04 #@! TF.SameCoordinates,Original*
G04 #@! TF.FileFunction,Soldermask,Bot*
G04 #@! TF.FilePolarity,Negative*
%FSLAX46Y46*%
G04 Gerber Fmt 4.6, Leading zero omitted, Abs format (unit mm)*
G04 Created by KiCad (PCBNEW 5.1.5+dfsg1-2build2) date 2021-03-07 22:41:56*
%MOMM*%
%LPD*%
G04 APERTURE LIST*
%ADD10C,0.100000*%
G04 APERTURE END LIST*
D10*
G36*
X146602600Y-113243100D02*
G01*
X144500600Y-113243100D01*
X144500600Y-111236100D01*
X146602600Y-111236100D01*
X146602600Y-113243100D01*
G37*
G36*
X105763600Y-111302989D02*
G01*
X105796652Y-111313015D01*
X105827103Y-111329292D01*
X105853799Y-111351201D01*
X105875708Y-111377897D01*
X105891985Y-111408348D01*
X105902011Y-111441400D01*
X105906000Y-111481903D01*
X105906000Y-112918097D01*
X105902011Y-112958600D01*
X105891985Y-112991652D01*
X105875708Y-113022103D01*
X105853799Y-113048799D01*
X105827103Y-113070708D01*
X105796652Y-113086985D01*
X105763600Y-113097011D01*
X105723097Y-113101000D01*
X104286903Y-113101000D01*
X104246400Y-113097011D01*
X104213348Y-113086985D01*
X104182897Y-113070708D01*
X104156201Y-113048799D01*
X104134292Y-113022103D01*
X104118015Y-112991652D01*
X104107989Y-112958600D01*
X104104000Y-112918097D01*
X104104000Y-111481903D01*
X104107989Y-111441400D01*
X104118015Y-111408348D01*
X104134292Y-111377897D01*
X104156201Y-111351201D01*
X104182897Y-111329292D01*
X104213348Y-111313015D01*
X104246400Y-111302989D01*
X104286903Y-111299000D01*
X105723097Y-111299000D01*
X105763600Y-111302989D01*
G37*
G36*
X102573796Y-111302989D02*
G01*
X102727812Y-111333624D01*
X102891784Y-111401544D01*
X103039354Y-111500147D01*
X103164853Y-111625646D01*
X103263456Y-111773216D01*
X103331376Y-111937188D01*
X103366000Y-112111259D01*
X103366000Y-112288741D01*
X103331376Y-112462812D01*
X103263456Y-112626784D01*
X103164853Y-112774354D01*
X103039354Y-112899853D01*
X102891784Y-112998456D01*
X102727812Y-113066376D01*
X102579341Y-113095908D01*
X102553742Y-113101000D01*
X102376258Y-113101000D01*
X102350659Y-113095908D01*
X102202188Y-113066376D01*
X102038216Y-112998456D01*
X101890646Y-112899853D01*
X101765147Y-112774354D01*
X101666544Y-112626784D01*
X101598624Y-112462812D01*
X101564000Y-112288741D01*
X101564000Y-112111259D01*
X101598624Y-111937188D01*
X101666544Y-111773216D01*
X101765147Y-111625646D01*
X101890646Y-111500147D01*
X102038216Y-111401544D01*
X102202188Y-111333624D01*
X102356204Y-111302989D01*
X102376258Y-111299000D01*
X102553742Y-111299000D01*
X102573796Y-111302989D01*
G37*
G36*
X93783600Y-111302989D02*
G01*
X93816652Y-111313015D01*
X93847103Y-111329292D01*
X93873799Y-111351201D01*
X93895708Y-111377897D01*
X93911985Y-111408348D01*
X93922011Y-111441400D01*
X93926000Y-111481903D01*
X93926000Y-112918097D01*
X93922011Y-112958600D01*
X93911985Y-112991652D01*
X93895708Y-113022103D01*
X93873799Y-113048799D01*
X93847103Y-113070708D01*
X93816652Y-113086985D01*
X93783600Y-113097011D01*
X93743097Y-113101000D01*
X92306903Y-113101000D01*
X92266400Y-113097011D01*
X92233348Y-113086985D01*
X92202897Y-113070708D01*
X92176201Y-113048799D01*
X92154292Y-113022103D01*
X92138015Y-112991652D01*
X92127989Y-112958600D01*
X92124000Y-112918097D01*
X92124000Y-111481903D01*
X92127989Y-111441400D01*
X92138015Y-111408348D01*
X92154292Y-111377897D01*
X92176201Y-111351201D01*
X92202897Y-111329292D01*
X92233348Y-111313015D01*
X92266400Y-111302989D01*
X92306903Y-111299000D01*
X93743097Y-111299000D01*
X93783600Y-111302989D01*
G37*
G36*
X90593796Y-111302989D02*
G01*
X90747812Y-111333624D01*
X90911784Y-111401544D01*
X91059354Y-111500147D01*
X91184853Y-111625646D01*
X91283456Y-111773216D01*
X91351376Y-111937188D01*
X91386000Y-112111259D01*
X91386000Y-112288741D01*
X91351376Y-112462812D01*
X91283456Y-112626784D01*
X91184853Y-112774354D01*
X91059354Y-112899853D01*
X90911784Y-112998456D01*
X90747812Y-113066376D01*
X90599341Y-113095908D01*
X90573742Y-113101000D01*
X90396258Y-113101000D01*
X90370659Y-113095908D01*
X90222188Y-113066376D01*
X90058216Y-112998456D01*
X89910646Y-112899853D01*
X89785147Y-112774354D01*
X89686544Y-112626784D01*
X89618624Y-112462812D01*
X89584000Y-112288741D01*
X89584000Y-112111259D01*
X89618624Y-111937188D01*
X89686544Y-111773216D01*
X89785147Y-111625646D01*
X89910646Y-111500147D01*
X90058216Y-111401544D01*
X90222188Y-111333624D01*
X90376204Y-111302989D01*
X90396258Y-111299000D01*
X90573742Y-111299000D01*
X90593796Y-111302989D01*
G37*
G36*
X78613796Y-111302989D02*
G01*
X78767812Y-111333624D01*
X78931784Y-111401544D01*
X79079354Y-111500147D01*
X79204853Y-111625646D01*
X79303456Y-111773216D01*
X79371376Y-111937188D01*
X79406000Y-112111259D01*
X79406000Y-112288741D01*
X79371376Y-112462812D01*
X79303456Y-112626784D01*
X79204853Y-112774354D01*
X79079354Y-112899853D01*
X78931784Y-112998456D01*
X78767812Y-113066376D01*
X78619341Y-113095908D01*
X78593742Y-113101000D01*
X78416258Y-113101000D01*
X78390659Y-113095908D01*
X78242188Y-113066376D01*
X78078216Y-112998456D01*
X77930646Y-112899853D01*
X77805147Y-112774354D01*
X77706544Y-112626784D01*
X77638624Y-112462812D01*
X77604000Y-112288741D01*
X77604000Y-112111259D01*
X77638624Y-111937188D01*
X77706544Y-111773216D01*
X77805147Y-111625646D01*
X77930646Y-111500147D01*
X78078216Y-111401544D01*
X78242188Y-111333624D01*
X78396204Y-111302989D01*
X78416258Y-111299000D01*
X78593742Y-111299000D01*
X78613796Y-111302989D01*
G37*
G36*
X81803600Y-111302989D02*
G01*
X81836652Y-111313015D01*
X81867103Y-111329292D01*
X81893799Y-111351201D01*
X81915708Y-111377897D01*
X81931985Y-111408348D01*
X81942011Y-111441400D01*
X81946000Y-111481903D01*
X81946000Y-112918097D01*
X81942011Y-112958600D01*
X81931985Y-112991652D01*
X81915708Y-113022103D01*
X81893799Y-113048799D01*
X81867103Y-113070708D01*
X81836652Y-113086985D01*
X81803600Y-113097011D01*
X81763097Y-113101000D01*
X80326903Y-113101000D01*
X80286400Y-113097011D01*
X80253348Y-113086985D01*
X80222897Y-113070708D01*
X80196201Y-113048799D01*
X80174292Y-113022103D01*
X80158015Y-112991652D01*
X80147989Y-112958600D01*
X80144000Y-112918097D01*
X80144000Y-111481903D01*
X80147989Y-111441400D01*
X80158015Y-111408348D01*
X80174292Y-111377897D01*
X80196201Y-111351201D01*
X80222897Y-111329292D01*
X80253348Y-111313015D01*
X80286400Y-111302989D01*
X80326903Y-111299000D01*
X81763097Y-111299000D01*
X81803600Y-111302989D01*
G37*
G36*
X66633796Y-111302989D02*
G01*
X66787812Y-111333624D01*
X66951784Y-111401544D01*
X67099354Y-111500147D01*
X67224853Y-111625646D01*
X67323456Y-111773216D01*
X67391376Y-111937188D01*
X67426000Y-112111259D01*
X67426000Y-112288741D01*
X67391376Y-112462812D01*
X67323456Y-112626784D01*
X67224853Y-112774354D01*
X67099354Y-112899853D01*
X66951784Y-112998456D01*
X66787812Y-113066376D01*
X66639341Y-113095908D01*
X66613742Y-113101000D01*
X66436258Y-113101000D01*
X66410659Y-113095908D01*
X66262188Y-113066376D01*
X66098216Y-112998456D01*
X65950646Y-112899853D01*
X65825147Y-112774354D01*
X65726544Y-112626784D01*
X65658624Y-112462812D01*
X65624000Y-112288741D01*
X65624000Y-112111259D01*
X65658624Y-111937188D01*
X65726544Y-111773216D01*
X65825147Y-111625646D01*
X65950646Y-111500147D01*
X66098216Y-111401544D01*
X66262188Y-111333624D01*
X66416204Y-111302989D01*
X66436258Y-111299000D01*
X66613742Y-111299000D01*
X66633796Y-111302989D01*
G37*
G36*
X69823600Y-111302989D02*
G01*
X69856652Y-111313015D01*
X69887103Y-111329292D01*
X69913799Y-111351201D01*
X69935708Y-111377897D01*
X69951985Y-111408348D01*
X69962011Y-111441400D01*
X69966000Y-111481903D01*
X69966000Y-112918097D01*
X69962011Y-112958600D01*
X69951985Y-112991652D01*
X69935708Y-113022103D01*
X69913799Y-113048799D01*
X69887103Y-113070708D01*
X69856652Y-113086985D01*
X69823600Y-113097011D01*
X69783097Y-113101000D01*
X68346903Y-113101000D01*
X68306400Y-113097011D01*
X68273348Y-113086985D01*
X68242897Y-113070708D01*
X68216201Y-113048799D01*
X68194292Y-113022103D01*
X68178015Y-112991652D01*
X68167989Y-112958600D01*
X68164000Y-112918097D01*
X68164000Y-111481903D01*
X68167989Y-111441400D01*
X68178015Y-111408348D01*
X68194292Y-111377897D01*
X68216201Y-111351201D01*
X68242897Y-111329292D01*
X68273348Y-111313015D01*
X68306400Y-111302989D01*
X68346903Y-111299000D01*
X69783097Y-111299000D01*
X69823600Y-111302989D01*
G37*
G36*
X185252200Y-112490600D02*
G01*
X182750200Y-112490600D01*
X182750200Y-109988600D01*
X185252200Y-109988600D01*
X185252200Y-112490600D01*
G37*
G36*
X165252200Y-112490600D02*
G01*
X162750200Y-112490600D01*
X162750200Y-109988600D01*
X165252200Y-109988600D01*
X165252200Y-112490600D01*
G37*
G36*
X145697536Y-108700940D02*
G01*
X145795820Y-108710620D01*
X145984981Y-108768001D01*
X146159312Y-108861183D01*
X146312115Y-108986585D01*
X146437517Y-109139388D01*
X146530699Y-109313719D01*
X146588080Y-109502880D01*
X146607455Y-109699600D01*
X146588080Y-109896320D01*
X146530699Y-110085481D01*
X146437517Y-110259812D01*
X146312115Y-110412615D01*
X146159312Y-110538017D01*
X145984981Y-110631199D01*
X145795820Y-110688580D01*
X145697536Y-110698260D01*
X145648395Y-110703100D01*
X145454805Y-110703100D01*
X145405664Y-110698260D01*
X145307380Y-110688580D01*
X145118219Y-110631199D01*
X144943888Y-110538017D01*
X144791085Y-110412615D01*
X144665683Y-110259812D01*
X144572501Y-110085481D01*
X144515120Y-109896320D01*
X144495745Y-109699600D01*
X144515120Y-109502880D01*
X144572501Y-109313719D01*
X144665683Y-109139388D01*
X144791085Y-108986585D01*
X144943888Y-108861183D01*
X145118219Y-108768001D01*
X145307380Y-108710620D01*
X145405664Y-108700940D01*
X145454805Y-108696100D01*
X145648395Y-108696100D01*
X145697536Y-108700940D01*
G37*
G36*
X105118512Y-108763927D02*
G01*
X105267812Y-108793624D01*
X105431784Y-108861544D01*
X105579354Y-108960147D01*
X105704853Y-109085646D01*
X105803456Y-109233216D01*
X105871376Y-109397188D01*
X105906000Y-109571259D01*
X105906000Y-109748741D01*
X105871376Y-109922812D01*
X105803456Y-110086784D01*
X105704853Y-110234354D01*
X105579354Y-110359853D01*
X105431784Y-110458456D01*
X105267812Y-110526376D01*
X105118512Y-110556073D01*
X105093742Y-110561000D01*
X104916258Y-110561000D01*
X104891488Y-110556073D01*
X104742188Y-110526376D01*
X104578216Y-110458456D01*
X104430646Y-110359853D01*
X104305147Y-110234354D01*
X104206544Y-110086784D01*
X104138624Y-109922812D01*
X104104000Y-109748741D01*
X104104000Y-109571259D01*
X104138624Y-109397188D01*
X104206544Y-109233216D01*
X104305147Y-109085646D01*
X104430646Y-108960147D01*
X104578216Y-108861544D01*
X104742188Y-108793624D01*
X104891488Y-108763927D01*
X104916258Y-108759000D01*
X105093742Y-108759000D01*
X105118512Y-108763927D01*
G37*
G36*
X102578512Y-108763927D02*
G01*
X102727812Y-108793624D01*
X102891784Y-108861544D01*
X103039354Y-108960147D01*
X103164853Y-109085646D01*
X103263456Y-109233216D01*
X103331376Y-109397188D01*
X103366000Y-109571259D01*
X103366000Y-109748741D01*
X103331376Y-109922812D01*
X103263456Y-110086784D01*
X103164853Y-110234354D01*
X103039354Y-110359853D01*
X102891784Y-110458456D01*
X102727812Y-110526376D01*
X102578512Y-110556073D01*
X102553742Y-110561000D01*
X102376258Y-110561000D01*
X102351488Y-110556073D01*
X102202188Y-110526376D01*
X102038216Y-110458456D01*
X101890646Y-110359853D01*
X101765147Y-110234354D01*
X101666544Y-110086784D01*
X101598624Y-109922812D01*
X101564000Y-109748741D01*
X101564000Y-109571259D01*
X101598624Y-109397188D01*
X101666544Y-109233216D01*
X101765147Y-109085646D01*
X101890646Y-108960147D01*
X102038216Y-108861544D01*
X102202188Y-108793624D01*
X102351488Y-108763927D01*
X102376258Y-108759000D01*
X102553742Y-108759000D01*
X102578512Y-108763927D01*
G37*
G36*
X93138512Y-108763927D02*
G01*
X93287812Y-108793624D01*
X93451784Y-108861544D01*
X93599354Y-108960147D01*
X93724853Y-109085646D01*
X93823456Y-109233216D01*
X93891376Y-109397188D01*
X93926000Y-109571259D01*
X93926000Y-109748741D01*
X93891376Y-109922812D01*
X93823456Y-110086784D01*
X93724853Y-110234354D01*
X93599354Y-110359853D01*
X93451784Y-110458456D01*
X93287812Y-110526376D01*
X93138512Y-110556073D01*
X93113742Y-110561000D01*
X92936258Y-110561000D01*
X92911488Y-110556073D01*
X92762188Y-110526376D01*
X92598216Y-110458456D01*
X92450646Y-110359853D01*
X92325147Y-110234354D01*
X92226544Y-110086784D01*
X92158624Y-109922812D01*
X92124000Y-109748741D01*
X92124000Y-109571259D01*
X92158624Y-109397188D01*
X92226544Y-109233216D01*
X92325147Y-109085646D01*
X92450646Y-108960147D01*
X92598216Y-108861544D01*
X92762188Y-108793624D01*
X92911488Y-108763927D01*
X92936258Y-108759000D01*
X93113742Y-108759000D01*
X93138512Y-108763927D01*
G37*
G36*
X90598512Y-108763927D02*
G01*
X90747812Y-108793624D01*
X90911784Y-108861544D01*
X91059354Y-108960147D01*
X91184853Y-109085646D01*
X91283456Y-109233216D01*
X91351376Y-109397188D01*
X91386000Y-109571259D01*
X91386000Y-109748741D01*
X91351376Y-109922812D01*
X91283456Y-110086784D01*
X91184853Y-110234354D01*
X91059354Y-110359853D01*
X90911784Y-110458456D01*
X90747812Y-110526376D01*
X90598512Y-110556073D01*
X90573742Y-110561000D01*
X90396258Y-110561000D01*
X90371488Y-110556073D01*
X90222188Y-110526376D01*
X90058216Y-110458456D01*
X89910646Y-110359853D01*
X89785147Y-110234354D01*
X89686544Y-110086784D01*
X89618624Y-109922812D01*
X89584000Y-109748741D01*
X89584000Y-109571259D01*
X89618624Y-109397188D01*
X89686544Y-109233216D01*
X89785147Y-109085646D01*
X89910646Y-108960147D01*
X90058216Y-108861544D01*
X90222188Y-108793624D01*
X90371488Y-108763927D01*
X90396258Y-108759000D01*
X90573742Y-108759000D01*
X90598512Y-108763927D01*
G37*
G36*
X81158512Y-108763927D02*
G01*
X81307812Y-108793624D01*
X81471784Y-108861544D01*
X81619354Y-108960147D01*
X81744853Y-109085646D01*
X81843456Y-109233216D01*
X81911376Y-109397188D01*
X81946000Y-109571259D01*
X81946000Y-109748741D01*
X81911376Y-109922812D01*
X81843456Y-110086784D01*
X81744853Y-110234354D01*
X81619354Y-110359853D01*
X81471784Y-110458456D01*
X81307812Y-110526376D01*
X81158512Y-110556073D01*
X81133742Y-110561000D01*
X80956258Y-110561000D01*
X80931488Y-110556073D01*
X80782188Y-110526376D01*
X80618216Y-110458456D01*
X80470646Y-110359853D01*
X80345147Y-110234354D01*
X80246544Y-110086784D01*
X80178624Y-109922812D01*
X80144000Y-109748741D01*
X80144000Y-109571259D01*
X80178624Y-109397188D01*
X80246544Y-109233216D01*
X80345147Y-109085646D01*
X80470646Y-108960147D01*
X80618216Y-108861544D01*
X80782188Y-108793624D01*
X80931488Y-108763927D01*
X80956258Y-108759000D01*
X81133742Y-108759000D01*
X81158512Y-108763927D01*
G37*
G36*
X78618512Y-108763927D02*
G01*
X78767812Y-108793624D01*
X78931784Y-108861544D01*
X79079354Y-108960147D01*
X79204853Y-109085646D01*
X79303456Y-109233216D01*
X79371376Y-109397188D01*
X79406000Y-109571259D01*
X79406000Y-109748741D01*
X79371376Y-109922812D01*
X79303456Y-110086784D01*
X79204853Y-110234354D01*
X79079354Y-110359853D01*
X78931784Y-110458456D01*
X78767812Y-110526376D01*
X78618512Y-110556073D01*
X78593742Y-110561000D01*
X78416258Y-110561000D01*
X78391488Y-110556073D01*
X78242188Y-110526376D01*
X78078216Y-110458456D01*
X77930646Y-110359853D01*
X77805147Y-110234354D01*
X77706544Y-110086784D01*
X77638624Y-109922812D01*
X77604000Y-109748741D01*
X77604000Y-109571259D01*
X77638624Y-109397188D01*
X77706544Y-109233216D01*
X77805147Y-109085646D01*
X77930646Y-108960147D01*
X78078216Y-108861544D01*
X78242188Y-108793624D01*
X78391488Y-108763927D01*
X78416258Y-108759000D01*
X78593742Y-108759000D01*
X78618512Y-108763927D01*
G37*
G36*
X69178512Y-108763927D02*
G01*
X69327812Y-108793624D01*
X69491784Y-108861544D01*
X69639354Y-108960147D01*
X69764853Y-109085646D01*
X69863456Y-109233216D01*
X69931376Y-109397188D01*
X69966000Y-109571259D01*
X69966000Y-109748741D01*
X69931376Y-109922812D01*
X69863456Y-110086784D01*
X69764853Y-110234354D01*
X69639354Y-110359853D01*
X69491784Y-110458456D01*
X69327812Y-110526376D01*
X69178512Y-110556073D01*
X69153742Y-110561000D01*
X68976258Y-110561000D01*
X68951488Y-110556073D01*
X68802188Y-110526376D01*
X68638216Y-110458456D01*
X68490646Y-110359853D01*
X68365147Y-110234354D01*
X68266544Y-110086784D01*
X68198624Y-109922812D01*
X68164000Y-109748741D01*
X68164000Y-109571259D01*
X68198624Y-109397188D01*
X68266544Y-109233216D01*
X68365147Y-109085646D01*
X68490646Y-108960147D01*
X68638216Y-108861544D01*
X68802188Y-108793624D01*
X68951488Y-108763927D01*
X68976258Y-108759000D01*
X69153742Y-108759000D01*
X69178512Y-108763927D01*
G37*
G36*
X66638512Y-108763927D02*
G01*
X66787812Y-108793624D01*
X66951784Y-108861544D01*
X67099354Y-108960147D01*
X67224853Y-109085646D01*
X67323456Y-109233216D01*
X67391376Y-109397188D01*
X67426000Y-109571259D01*
X67426000Y-109748741D01*
X67391376Y-109922812D01*
X67323456Y-110086784D01*
X67224853Y-110234354D01*
X67099354Y-110359853D01*
X66951784Y-110458456D01*
X66787812Y-110526376D01*
X66638512Y-110556073D01*
X66613742Y-110561000D01*
X66436258Y-110561000D01*
X66411488Y-110556073D01*
X66262188Y-110526376D01*
X66098216Y-110458456D01*
X65950646Y-110359853D01*
X65825147Y-110234354D01*
X65726544Y-110086784D01*
X65658624Y-109922812D01*
X65624000Y-109748741D01*
X65624000Y-109571259D01*
X65658624Y-109397188D01*
X65726544Y-109233216D01*
X65825147Y-109085646D01*
X65950646Y-108960147D01*
X66098216Y-108861544D01*
X66262188Y-108793624D01*
X66411488Y-108763927D01*
X66436258Y-108759000D01*
X66613742Y-108759000D01*
X66638512Y-108763927D01*
G37*
G36*
X145697536Y-106160940D02*
G01*
X145795820Y-106170620D01*
X145984981Y-106228001D01*
X146159312Y-106321183D01*
X146312115Y-106446585D01*
X146437517Y-106599388D01*
X146530699Y-106773719D01*
X146588080Y-106962880D01*
X146607455Y-107159600D01*
X146588080Y-107356320D01*
X146530699Y-107545481D01*
X146437517Y-107719812D01*
X146312115Y-107872615D01*
X146159312Y-107998017D01*
X145984981Y-108091199D01*
X145795820Y-108148580D01*
X145697536Y-108158260D01*
X145648395Y-108163100D01*
X145454805Y-108163100D01*
X145405664Y-108158260D01*
X145307380Y-108148580D01*
X145118219Y-108091199D01*
X144943888Y-107998017D01*
X144791085Y-107872615D01*
X144665683Y-107719812D01*
X144572501Y-107545481D01*
X144515120Y-107356320D01*
X144495745Y-107159600D01*
X144515120Y-106962880D01*
X144572501Y-106773719D01*
X144665683Y-106599388D01*
X144791085Y-106446585D01*
X144943888Y-106321183D01*
X145118219Y-106228001D01*
X145307380Y-106170620D01*
X145405664Y-106160940D01*
X145454805Y-106156100D01*
X145648395Y-106156100D01*
X145697536Y-106160940D01*
G37*
G36*
X69178512Y-106223927D02*
G01*
X69327812Y-106253624D01*
X69491784Y-106321544D01*
X69639354Y-106420147D01*
X69764853Y-106545646D01*
X69863456Y-106693216D01*
X69931376Y-106857188D01*
X69948803Y-106944803D01*
X69966000Y-107031258D01*
X69966000Y-107208742D01*
X69965646Y-107210520D01*
X69931376Y-107382812D01*
X69863456Y-107546784D01*
X69764853Y-107694354D01*
X69639354Y-107819853D01*
X69491784Y-107918456D01*
X69327812Y-107986376D01*
X69178512Y-108016073D01*
X69153742Y-108021000D01*
X68976258Y-108021000D01*
X68951488Y-108016073D01*
X68802188Y-107986376D01*
X68638216Y-107918456D01*
X68490646Y-107819853D01*
X68365147Y-107694354D01*
X68266544Y-107546784D01*
X68198624Y-107382812D01*
X68164354Y-107210520D01*
X68164000Y-107208742D01*
X68164000Y-107031258D01*
X68181197Y-106944803D01*
X68198624Y-106857188D01*
X68266544Y-106693216D01*
X68365147Y-106545646D01*
X68490646Y-106420147D01*
X68638216Y-106321544D01*
X68802188Y-106253624D01*
X68951488Y-106223927D01*
X68976258Y-106219000D01*
X69153742Y-106219000D01*
X69178512Y-106223927D01*
G37*
G36*
X105118512Y-106223927D02*
G01*
X105267812Y-106253624D01*
X105431784Y-106321544D01*
X105579354Y-106420147D01*
X105704853Y-106545646D01*
X105803456Y-106693216D01*
X105871376Y-106857188D01*
X105888803Y-106944803D01*
X105906000Y-107031258D01*
X105906000Y-107208742D01*
X105905646Y-107210520D01*
X105871376Y-107382812D01*
X105803456Y-107546784D01*
X105704853Y-107694354D01*
X105579354Y-107819853D01*
X105431784Y-107918456D01*
X105267812Y-107986376D01*
X105118512Y-108016073D01*
X105093742Y-108021000D01*
X104916258Y-108021000D01*
X104891488Y-108016073D01*
X104742188Y-107986376D01*
X104578216Y-107918456D01*
X104430646Y-107819853D01*
X104305147Y-107694354D01*
X104206544Y-107546784D01*
X104138624Y-107382812D01*
X104104354Y-107210520D01*
X104104000Y-107208742D01*
X104104000Y-107031258D01*
X104121197Y-106944803D01*
X104138624Y-106857188D01*
X104206544Y-106693216D01*
X104305147Y-106545646D01*
X104430646Y-106420147D01*
X104578216Y-106321544D01*
X104742188Y-106253624D01*
X104891488Y-106223927D01*
X104916258Y-106219000D01*
X105093742Y-106219000D01*
X105118512Y-106223927D01*
G37*
G36*
X102578512Y-106223927D02*
G01*
X102727812Y-106253624D01*
X102891784Y-106321544D01*
X103039354Y-106420147D01*
X103164853Y-106545646D01*
X103263456Y-106693216D01*
X103331376Y-106857188D01*
X103348803Y-106944803D01*
X103366000Y-107031258D01*
X103366000Y-107208742D01*
X103365646Y-107210520D01*
X103331376Y-107382812D01*
X103263456Y-107546784D01*
X103164853Y-107694354D01*
X103039354Y-107819853D01*
X102891784Y-107918456D01*
X102727812Y-107986376D01*
X102578512Y-108016073D01*
X102553742Y-108021000D01*
X102376258Y-108021000D01*
X102351488Y-108016073D01*
X102202188Y-107986376D01*
X102038216Y-107918456D01*
X101890646Y-107819853D01*
X101765147Y-107694354D01*
X101666544Y-107546784D01*
X101598624Y-107382812D01*
X101564354Y-107210520D01*
X101564000Y-107208742D01*
X101564000Y-107031258D01*
X101581197Y-106944803D01*
X101598624Y-106857188D01*
X101666544Y-106693216D01*
X101765147Y-106545646D01*
X101890646Y-106420147D01*
X102038216Y-106321544D01*
X102202188Y-106253624D01*
X102351488Y-106223927D01*
X102376258Y-106219000D01*
X102553742Y-106219000D01*
X102578512Y-106223927D01*
G37*
G36*
X93138512Y-106223927D02*
G01*
X93287812Y-106253624D01*
X93451784Y-106321544D01*
X93599354Y-106420147D01*
X93724853Y-106545646D01*
X93823456Y-106693216D01*
X93891376Y-106857188D01*
X93908803Y-106944803D01*
X93926000Y-107031258D01*
X93926000Y-107208742D01*
X93925646Y-107210520D01*
X93891376Y-107382812D01*
X93823456Y-107546784D01*
X93724853Y-107694354D01*
X93599354Y-107819853D01*
X93451784Y-107918456D01*
X93287812Y-107986376D01*
X93138512Y-108016073D01*
X93113742Y-108021000D01*
X92936258Y-108021000D01*
X92911488Y-108016073D01*
X92762188Y-107986376D01*
X92598216Y-107918456D01*
X92450646Y-107819853D01*
X92325147Y-107694354D01*
X92226544Y-107546784D01*
X92158624Y-107382812D01*
X92124354Y-107210520D01*
X92124000Y-107208742D01*
X92124000Y-107031258D01*
X92141197Y-106944803D01*
X92158624Y-106857188D01*
X92226544Y-106693216D01*
X92325147Y-106545646D01*
X92450646Y-106420147D01*
X92598216Y-106321544D01*
X92762188Y-106253624D01*
X92911488Y-106223927D01*
X92936258Y-106219000D01*
X93113742Y-106219000D01*
X93138512Y-106223927D01*
G37*
G36*
X90598512Y-106223927D02*
G01*
X90747812Y-106253624D01*
X90911784Y-106321544D01*
X91059354Y-106420147D01*
X91184853Y-106545646D01*
X91283456Y-106693216D01*
X91351376Y-106857188D01*
X91368803Y-106944803D01*
X91386000Y-107031258D01*
X91386000Y-107208742D01*
X91385646Y-107210520D01*
X91351376Y-107382812D01*
X91283456Y-107546784D01*
X91184853Y-107694354D01*
X91059354Y-107819853D01*
X90911784Y-107918456D01*
X90747812Y-107986376D01*
X90598512Y-108016073D01*
X90573742Y-108021000D01*
X90396258Y-108021000D01*
X90371488Y-108016073D01*
X90222188Y-107986376D01*
X90058216Y-107918456D01*
X89910646Y-107819853D01*
X89785147Y-107694354D01*
X89686544Y-107546784D01*
X89618624Y-107382812D01*
X89584354Y-107210520D01*
X89584000Y-107208742D01*
X89584000Y-107031258D01*
X89601197Y-106944803D01*
X89618624Y-106857188D01*
X89686544Y-106693216D01*
X89785147Y-106545646D01*
X89910646Y-106420147D01*
X90058216Y-106321544D01*
X90222188Y-106253624D01*
X90371488Y-106223927D01*
X90396258Y-106219000D01*
X90573742Y-106219000D01*
X90598512Y-106223927D01*
G37*
G36*
X81158512Y-106223927D02*
G01*
X81307812Y-106253624D01*
X81471784Y-106321544D01*
X81619354Y-106420147D01*
X81744853Y-106545646D01*
X81843456Y-106693216D01*
X81911376Y-106857188D01*
X81928803Y-106944803D01*
X81946000Y-107031258D01*
X81946000Y-107208742D01*
X81945646Y-107210520D01*
X81911376Y-107382812D01*
X81843456Y-107546784D01*
X81744853Y-107694354D01*
X81619354Y-107819853D01*
X81471784Y-107918456D01*
X81307812Y-107986376D01*
X81158512Y-108016073D01*
X81133742Y-108021000D01*
X80956258Y-108021000D01*
X80931488Y-108016073D01*
X80782188Y-107986376D01*
X80618216Y-107918456D01*
X80470646Y-107819853D01*
X80345147Y-107694354D01*
X80246544Y-107546784D01*
X80178624Y-107382812D01*
X80144354Y-107210520D01*
X80144000Y-107208742D01*
X80144000Y-107031258D01*
X80161197Y-106944803D01*
X80178624Y-106857188D01*
X80246544Y-106693216D01*
X80345147Y-106545646D01*
X80470646Y-106420147D01*
X80618216Y-106321544D01*
X80782188Y-106253624D01*
X80931488Y-106223927D01*
X80956258Y-106219000D01*
X81133742Y-106219000D01*
X81158512Y-106223927D01*
G37*
G36*
X78618512Y-106223927D02*
G01*
X78767812Y-106253624D01*
X78931784Y-106321544D01*
X79079354Y-106420147D01*
X79204853Y-106545646D01*
X79303456Y-106693216D01*
X79371376Y-106857188D01*
X79388803Y-106944803D01*
X79406000Y-107031258D01*
X79406000Y-107208742D01*
X79405646Y-107210520D01*
X79371376Y-107382812D01*
X79303456Y-107546784D01*
X79204853Y-107694354D01*
X79079354Y-107819853D01*
X78931784Y-107918456D01*
X78767812Y-107986376D01*
X78618512Y-108016073D01*
X78593742Y-108021000D01*
X78416258Y-108021000D01*
X78391488Y-108016073D01*
X78242188Y-107986376D01*
X78078216Y-107918456D01*
X77930646Y-107819853D01*
X77805147Y-107694354D01*
X77706544Y-107546784D01*
X77638624Y-107382812D01*
X77604354Y-107210520D01*
X77604000Y-107208742D01*
X77604000Y-107031258D01*
X77621197Y-106944803D01*
X77638624Y-106857188D01*
X77706544Y-106693216D01*
X77805147Y-106545646D01*
X77930646Y-106420147D01*
X78078216Y-106321544D01*
X78242188Y-106253624D01*
X78391488Y-106223927D01*
X78416258Y-106219000D01*
X78593742Y-106219000D01*
X78618512Y-106223927D01*
G37*
G36*
X66638512Y-106223927D02*
G01*
X66787812Y-106253624D01*
X66951784Y-106321544D01*
X67099354Y-106420147D01*
X67224853Y-106545646D01*
X67323456Y-106693216D01*
X67391376Y-106857188D01*
X67408803Y-106944803D01*
X67426000Y-107031258D01*
X67426000Y-107208742D01*
X67425646Y-107210520D01*
X67391376Y-107382812D01*
X67323456Y-107546784D01*
X67224853Y-107694354D01*
X67099354Y-107819853D01*
X66951784Y-107918456D01*
X66787812Y-107986376D01*
X66638512Y-108016073D01*
X66613742Y-108021000D01*
X66436258Y-108021000D01*
X66411488Y-108016073D01*
X66262188Y-107986376D01*
X66098216Y-107918456D01*
X65950646Y-107819853D01*
X65825147Y-107694354D01*
X65726544Y-107546784D01*
X65658624Y-107382812D01*
X65624354Y-107210520D01*
X65624000Y-107208742D01*
X65624000Y-107031258D01*
X65641197Y-106944803D01*
X65658624Y-106857188D01*
X65726544Y-106693216D01*
X65825147Y-106545646D01*
X65950646Y-106420147D01*
X66098216Y-106321544D01*
X66262188Y-106253624D01*
X66411488Y-106223927D01*
X66436258Y-106219000D01*
X66613742Y-106219000D01*
X66638512Y-106223927D01*
G37*
G36*
X114829349Y-105347916D02*
G01*
X114940534Y-105370032D01*
X115150003Y-105456797D01*
X115338520Y-105582760D01*
X115498840Y-105743080D01*
X115624803Y-105931597D01*
X115711568Y-106141066D01*
X115727070Y-106219000D01*
X115747396Y-106321183D01*
X115755800Y-106363436D01*
X115755800Y-106590164D01*
X115711568Y-106812534D01*
X115624803Y-107022003D01*
X115498840Y-107210520D01*
X115338520Y-107370840D01*
X115150003Y-107496803D01*
X114940534Y-107583568D01*
X114829349Y-107605684D01*
X114718165Y-107627800D01*
X114491435Y-107627800D01*
X114380251Y-107605684D01*
X114269066Y-107583568D01*
X114059597Y-107496803D01*
X113871080Y-107370840D01*
X113710760Y-107210520D01*
X113584797Y-107022003D01*
X113498032Y-106812534D01*
X113453800Y-106590164D01*
X113453800Y-106363436D01*
X113462205Y-106321183D01*
X113482530Y-106219000D01*
X113498032Y-106141066D01*
X113584797Y-105931597D01*
X113710760Y-105743080D01*
X113871080Y-105582760D01*
X114059597Y-105456797D01*
X114269066Y-105370032D01*
X114380251Y-105347916D01*
X114491435Y-105325800D01*
X114718165Y-105325800D01*
X114829349Y-105347916D01*
G37*
G36*
X119776149Y-105270716D02*
G01*
X119887334Y-105292832D01*
X120033626Y-105353428D01*
X120094049Y-105378456D01*
X120096803Y-105379597D01*
X120285320Y-105505560D01*
X120445640Y-105665880D01*
X120523175Y-105781920D01*
X120571604Y-105854399D01*
X120573654Y-105859348D01*
X120658368Y-106063866D01*
X120660816Y-106076172D01*
X120693520Y-106240585D01*
X120702600Y-106286236D01*
X120702600Y-106512964D01*
X120658368Y-106735334D01*
X120571603Y-106944803D01*
X120445640Y-107133320D01*
X120285320Y-107293640D01*
X120096803Y-107419603D01*
X119887334Y-107506368D01*
X119776149Y-107528484D01*
X119664965Y-107550600D01*
X119438235Y-107550600D01*
X119327051Y-107528484D01*
X119215866Y-107506368D01*
X119006397Y-107419603D01*
X118817880Y-107293640D01*
X118657560Y-107133320D01*
X118531597Y-106944803D01*
X118444832Y-106735334D01*
X118400600Y-106512964D01*
X118400600Y-106286236D01*
X118409681Y-106240585D01*
X118442384Y-106076172D01*
X118444832Y-106063866D01*
X118529546Y-105859348D01*
X118531596Y-105854399D01*
X118580025Y-105781920D01*
X118657560Y-105665880D01*
X118817880Y-105505560D01*
X119006397Y-105379597D01*
X119009152Y-105378456D01*
X119069574Y-105353428D01*
X119215866Y-105292832D01*
X119327051Y-105270716D01*
X119438235Y-105248600D01*
X119664965Y-105248600D01*
X119776149Y-105270716D01*
G37*
G36*
X124149428Y-105506103D02*
G01*
X124304300Y-105570253D01*
X124443681Y-105663385D01*
X124562215Y-105781919D01*
X124655347Y-105921300D01*
X124719497Y-106076172D01*
X124752200Y-106240584D01*
X124752200Y-106408216D01*
X124719497Y-106572628D01*
X124655347Y-106727500D01*
X124562215Y-106866881D01*
X124443681Y-106985415D01*
X124304300Y-107078547D01*
X124149428Y-107142697D01*
X123985016Y-107175400D01*
X123817384Y-107175400D01*
X123652972Y-107142697D01*
X123498100Y-107078547D01*
X123358719Y-106985415D01*
X123240185Y-106866881D01*
X123147053Y-106727500D01*
X123082903Y-106572628D01*
X123050200Y-106408216D01*
X123050200Y-106240584D01*
X123082903Y-106076172D01*
X123147053Y-105921300D01*
X123240185Y-105781919D01*
X123358719Y-105663385D01*
X123498100Y-105570253D01*
X123652972Y-105506103D01*
X123817384Y-105473400D01*
X123985016Y-105473400D01*
X124149428Y-105506103D01*
G37*
G36*
X130753428Y-104286903D02*
G01*
X130908300Y-104351053D01*
X131047681Y-104444185D01*
X131166215Y-104562719D01*
X131259347Y-104702100D01*
X131323497Y-104856972D01*
X131356200Y-105021384D01*
X131356200Y-105189016D01*
X131323497Y-105353428D01*
X131259347Y-105508300D01*
X131166215Y-105647681D01*
X131047681Y-105766215D01*
X130908300Y-105859347D01*
X130753428Y-105923497D01*
X130589016Y-105956200D01*
X130421384Y-105956200D01*
X130256972Y-105923497D01*
X130102100Y-105859347D01*
X129962719Y-105766215D01*
X129844185Y-105647681D01*
X129751053Y-105508300D01*
X129686903Y-105353428D01*
X129654200Y-105189016D01*
X129654200Y-105021384D01*
X129686903Y-104856972D01*
X129751053Y-104702100D01*
X129844185Y-104562719D01*
X129962719Y-104444185D01*
X130102100Y-104351053D01*
X130256972Y-104286903D01*
X130421384Y-104254200D01*
X130589016Y-104254200D01*
X130753428Y-104286903D01*
G37*
G36*
X133253428Y-104286903D02*
G01*
X133408300Y-104351053D01*
X133547681Y-104444185D01*
X133666215Y-104562719D01*
X133759347Y-104702100D01*
X133823497Y-104856972D01*
X133856200Y-105021384D01*
X133856200Y-105189016D01*
X133823497Y-105353428D01*
X133759347Y-105508300D01*
X133666215Y-105647681D01*
X133547681Y-105766215D01*
X133408300Y-105859347D01*
X133253428Y-105923497D01*
X133089016Y-105956200D01*
X132921384Y-105956200D01*
X132756972Y-105923497D01*
X132602100Y-105859347D01*
X132462719Y-105766215D01*
X132344185Y-105647681D01*
X132251053Y-105508300D01*
X132186903Y-105353428D01*
X132154200Y-105189016D01*
X132154200Y-105021384D01*
X132186903Y-104856972D01*
X132251053Y-104702100D01*
X132344185Y-104562719D01*
X132462719Y-104444185D01*
X132602100Y-104351053D01*
X132756972Y-104286903D01*
X132921384Y-104254200D01*
X133089016Y-104254200D01*
X133253428Y-104286903D01*
G37*
G36*
X105118512Y-103683927D02*
G01*
X105267812Y-103713624D01*
X105431784Y-103781544D01*
X105579354Y-103880147D01*
X105704853Y-104005646D01*
X105803456Y-104153216D01*
X105871376Y-104317188D01*
X105906000Y-104491259D01*
X105906000Y-104668741D01*
X105871376Y-104842812D01*
X105803456Y-105006784D01*
X105704853Y-105154354D01*
X105579354Y-105279853D01*
X105431784Y-105378456D01*
X105267812Y-105446376D01*
X105118512Y-105476073D01*
X105093742Y-105481000D01*
X104916258Y-105481000D01*
X104891488Y-105476073D01*
X104742188Y-105446376D01*
X104578216Y-105378456D01*
X104430646Y-105279853D01*
X104305147Y-105154354D01*
X104206544Y-105006784D01*
X104138624Y-104842812D01*
X104104000Y-104668741D01*
X104104000Y-104491259D01*
X104138624Y-104317188D01*
X104206544Y-104153216D01*
X104305147Y-104005646D01*
X104430646Y-103880147D01*
X104578216Y-103781544D01*
X104742188Y-103713624D01*
X104891488Y-103683927D01*
X104916258Y-103679000D01*
X105093742Y-103679000D01*
X105118512Y-103683927D01*
G37*
G36*
X66638512Y-103683927D02*
G01*
X66787812Y-103713624D01*
X66951784Y-103781544D01*
X67099354Y-103880147D01*
X67224853Y-104005646D01*
X67323456Y-104153216D01*
X67391376Y-104317188D01*
X67426000Y-104491259D01*
X67426000Y-104668741D01*
X67391376Y-104842812D01*
X67323456Y-105006784D01*
X67224853Y-105154354D01*
X67099354Y-105279853D01*
X66951784Y-105378456D01*
X66787812Y-105446376D01*
X66638512Y-105476073D01*
X66613742Y-105481000D01*
X66436258Y-105481000D01*
X66411488Y-105476073D01*
X66262188Y-105446376D01*
X66098216Y-105378456D01*
X65950646Y-105279853D01*
X65825147Y-105154354D01*
X65726544Y-105006784D01*
X65658624Y-104842812D01*
X65624000Y-104668741D01*
X65624000Y-104491259D01*
X65658624Y-104317188D01*
X65726544Y-104153216D01*
X65825147Y-104005646D01*
X65950646Y-103880147D01*
X66098216Y-103781544D01*
X66262188Y-103713624D01*
X66411488Y-103683927D01*
X66436258Y-103679000D01*
X66613742Y-103679000D01*
X66638512Y-103683927D01*
G37*
G36*
X81158512Y-103683927D02*
G01*
X81307812Y-103713624D01*
X81471784Y-103781544D01*
X81619354Y-103880147D01*
X81744853Y-104005646D01*
X81843456Y-104153216D01*
X81911376Y-104317188D01*
X81946000Y-104491259D01*
X81946000Y-104668741D01*
X81911376Y-104842812D01*
X81843456Y-105006784D01*
X81744853Y-105154354D01*
X81619354Y-105279853D01*
X81471784Y-105378456D01*
X81307812Y-105446376D01*
X81158512Y-105476073D01*
X81133742Y-105481000D01*
X80956258Y-105481000D01*
X80931488Y-105476073D01*
X80782188Y-105446376D01*
X80618216Y-105378456D01*
X80470646Y-105279853D01*
X80345147Y-105154354D01*
X80246544Y-105006784D01*
X80178624Y-104842812D01*
X80144000Y-104668741D01*
X80144000Y-104491259D01*
X80178624Y-104317188D01*
X80246544Y-104153216D01*
X80345147Y-104005646D01*
X80470646Y-103880147D01*
X80618216Y-103781544D01*
X80782188Y-103713624D01*
X80931488Y-103683927D01*
X80956258Y-103679000D01*
X81133742Y-103679000D01*
X81158512Y-103683927D01*
G37*
G36*
X90598512Y-103683927D02*
G01*
X90747812Y-103713624D01*
X90911784Y-103781544D01*
X91059354Y-103880147D01*
X91184853Y-104005646D01*
X91283456Y-104153216D01*
X91351376Y-104317188D01*
X91386000Y-104491259D01*
X91386000Y-104668741D01*
X91351376Y-104842812D01*
X91283456Y-105006784D01*
X91184853Y-105154354D01*
X91059354Y-105279853D01*
X90911784Y-105378456D01*
X90747812Y-105446376D01*
X90598512Y-105476073D01*
X90573742Y-105481000D01*
X90396258Y-105481000D01*
X90371488Y-105476073D01*
X90222188Y-105446376D01*
X90058216Y-105378456D01*
X89910646Y-105279853D01*
X89785147Y-105154354D01*
X89686544Y-105006784D01*
X89618624Y-104842812D01*
X89584000Y-104668741D01*
X89584000Y-104491259D01*
X89618624Y-104317188D01*
X89686544Y-104153216D01*
X89785147Y-104005646D01*
X89910646Y-103880147D01*
X90058216Y-103781544D01*
X90222188Y-103713624D01*
X90371488Y-103683927D01*
X90396258Y-103679000D01*
X90573742Y-103679000D01*
X90598512Y-103683927D01*
G37*
G36*
X93138512Y-103683927D02*
G01*
X93287812Y-103713624D01*
X93451784Y-103781544D01*
X93599354Y-103880147D01*
X93724853Y-104005646D01*
X93823456Y-104153216D01*
X93891376Y-104317188D01*
X93926000Y-104491259D01*
X93926000Y-104668741D01*
X93891376Y-104842812D01*
X93823456Y-105006784D01*
X93724853Y-105154354D01*
X93599354Y-105279853D01*
X93451784Y-105378456D01*
X93287812Y-105446376D01*
X93138512Y-105476073D01*
X93113742Y-105481000D01*
X92936258Y-105481000D01*
X92911488Y-105476073D01*
X92762188Y-105446376D01*
X92598216Y-105378456D01*
X92450646Y-105279853D01*
X92325147Y-105154354D01*
X92226544Y-105006784D01*
X92158624Y-104842812D01*
X92124000Y-104668741D01*
X92124000Y-104491259D01*
X92158624Y-104317188D01*
X92226544Y-104153216D01*
X92325147Y-104005646D01*
X92450646Y-103880147D01*
X92598216Y-103781544D01*
X92762188Y-103713624D01*
X92911488Y-103683927D01*
X92936258Y-103679000D01*
X93113742Y-103679000D01*
X93138512Y-103683927D01*
G37*
G36*
X78618512Y-103683927D02*
G01*
X78767812Y-103713624D01*
X78931784Y-103781544D01*
X79079354Y-103880147D01*
X79204853Y-104005646D01*
X79303456Y-104153216D01*
X79371376Y-104317188D01*
X79406000Y-104491259D01*
X79406000Y-104668741D01*
X79371376Y-104842812D01*
X79303456Y-105006784D01*
X79204853Y-105154354D01*
X79079354Y-105279853D01*
X78931784Y-105378456D01*
X78767812Y-105446376D01*
X78618512Y-105476073D01*
X78593742Y-105481000D01*
X78416258Y-105481000D01*
X78391488Y-105476073D01*
X78242188Y-105446376D01*
X78078216Y-105378456D01*
X77930646Y-105279853D01*
X77805147Y-105154354D01*
X77706544Y-105006784D01*
X77638624Y-104842812D01*
X77604000Y-104668741D01*
X77604000Y-104491259D01*
X77638624Y-104317188D01*
X77706544Y-104153216D01*
X77805147Y-104005646D01*
X77930646Y-103880147D01*
X78078216Y-103781544D01*
X78242188Y-103713624D01*
X78391488Y-103683927D01*
X78416258Y-103679000D01*
X78593742Y-103679000D01*
X78618512Y-103683927D01*
G37*
G36*
X102578512Y-103683927D02*
G01*
X102727812Y-103713624D01*
X102891784Y-103781544D01*
X103039354Y-103880147D01*
X103164853Y-104005646D01*
X103263456Y-104153216D01*
X103331376Y-104317188D01*
X103366000Y-104491259D01*
X103366000Y-104668741D01*
X103331376Y-104842812D01*
X103263456Y-105006784D01*
X103164853Y-105154354D01*
X103039354Y-105279853D01*
X102891784Y-105378456D01*
X102727812Y-105446376D01*
X102578512Y-105476073D01*
X102553742Y-105481000D01*
X102376258Y-105481000D01*
X102351488Y-105476073D01*
X102202188Y-105446376D01*
X102038216Y-105378456D01*
X101890646Y-105279853D01*
X101765147Y-105154354D01*
X101666544Y-105006784D01*
X101598624Y-104842812D01*
X101564000Y-104668741D01*
X101564000Y-104491259D01*
X101598624Y-104317188D01*
X101666544Y-104153216D01*
X101765147Y-104005646D01*
X101890646Y-103880147D01*
X102038216Y-103781544D01*
X102202188Y-103713624D01*
X102351488Y-103683927D01*
X102376258Y-103679000D01*
X102553742Y-103679000D01*
X102578512Y-103683927D01*
G37*
G36*
X69178512Y-103683927D02*
G01*
X69327812Y-103713624D01*
X69491784Y-103781544D01*
X69639354Y-103880147D01*
X69764853Y-104005646D01*
X69863456Y-104153216D01*
X69931376Y-104317188D01*
X69966000Y-104491259D01*
X69966000Y-104668741D01*
X69931376Y-104842812D01*
X69863456Y-105006784D01*
X69764853Y-105154354D01*
X69639354Y-105279853D01*
X69491784Y-105378456D01*
X69327812Y-105446376D01*
X69178512Y-105476073D01*
X69153742Y-105481000D01*
X68976258Y-105481000D01*
X68951488Y-105476073D01*
X68802188Y-105446376D01*
X68638216Y-105378456D01*
X68490646Y-105279853D01*
X68365147Y-105154354D01*
X68266544Y-105006784D01*
X68198624Y-104842812D01*
X68164000Y-104668741D01*
X68164000Y-104491259D01*
X68198624Y-104317188D01*
X68266544Y-104153216D01*
X68365147Y-104005646D01*
X68490646Y-103880147D01*
X68638216Y-103781544D01*
X68802188Y-103713624D01*
X68951488Y-103683927D01*
X68976258Y-103679000D01*
X69153742Y-103679000D01*
X69178512Y-103683927D01*
G37*
G36*
X164366103Y-102536675D02*
G01*
X164593771Y-102630978D01*
X164798666Y-102767885D01*
X164972915Y-102942134D01*
X165109822Y-103147029D01*
X165204125Y-103374697D01*
X165252200Y-103616387D01*
X165252200Y-103862813D01*
X165204125Y-104104503D01*
X165109822Y-104332171D01*
X164972915Y-104537066D01*
X164798666Y-104711315D01*
X164593771Y-104848222D01*
X164593770Y-104848223D01*
X164593769Y-104848223D01*
X164366103Y-104942525D01*
X164124414Y-104990600D01*
X163877986Y-104990600D01*
X163636297Y-104942525D01*
X163408631Y-104848223D01*
X163408630Y-104848223D01*
X163408629Y-104848222D01*
X163203734Y-104711315D01*
X163029485Y-104537066D01*
X162892578Y-104332171D01*
X162798275Y-104104503D01*
X162750200Y-103862813D01*
X162750200Y-103616387D01*
X162798275Y-103374697D01*
X162892578Y-103147029D01*
X163029485Y-102942134D01*
X163203734Y-102767885D01*
X163408629Y-102630978D01*
X163636297Y-102536675D01*
X163877986Y-102488600D01*
X164124414Y-102488600D01*
X164366103Y-102536675D01*
G37*
G36*
X184366103Y-102536675D02*
G01*
X184593771Y-102630978D01*
X184798666Y-102767885D01*
X184972915Y-102942134D01*
X185109822Y-103147029D01*
X185204125Y-103374697D01*
X185252200Y-103616387D01*
X185252200Y-103862813D01*
X185204125Y-104104503D01*
X185109822Y-104332171D01*
X184972915Y-104537066D01*
X184798666Y-104711315D01*
X184593771Y-104848222D01*
X184593770Y-104848223D01*
X184593769Y-104848223D01*
X184366103Y-104942525D01*
X184124414Y-104990600D01*
X183877986Y-104990600D01*
X183636297Y-104942525D01*
X183408631Y-104848223D01*
X183408630Y-104848223D01*
X183408629Y-104848222D01*
X183203734Y-104711315D01*
X183029485Y-104537066D01*
X182892578Y-104332171D01*
X182798275Y-104104503D01*
X182750200Y-103862813D01*
X182750200Y-103616387D01*
X182798275Y-103374697D01*
X182892578Y-103147029D01*
X183029485Y-102942134D01*
X183203734Y-102767885D01*
X183408629Y-102630978D01*
X183636297Y-102536675D01*
X183877986Y-102488600D01*
X184124414Y-102488600D01*
X184366103Y-102536675D01*
G37*
G36*
X90598512Y-101143927D02*
G01*
X90747812Y-101173624D01*
X90911784Y-101241544D01*
X91059354Y-101340147D01*
X91184853Y-101465646D01*
X91283456Y-101613216D01*
X91351376Y-101777188D01*
X91386000Y-101951259D01*
X91386000Y-102128741D01*
X91351376Y-102302812D01*
X91283456Y-102466784D01*
X91184853Y-102614354D01*
X91059354Y-102739853D01*
X90911784Y-102838456D01*
X90747812Y-102906376D01*
X90598512Y-102936073D01*
X90573742Y-102941000D01*
X90396258Y-102941000D01*
X90371488Y-102936073D01*
X90222188Y-102906376D01*
X90058216Y-102838456D01*
X89910646Y-102739853D01*
X89785147Y-102614354D01*
X89686544Y-102466784D01*
X89618624Y-102302812D01*
X89584000Y-102128741D01*
X89584000Y-101951259D01*
X89618624Y-101777188D01*
X89686544Y-101613216D01*
X89785147Y-101465646D01*
X89910646Y-101340147D01*
X90058216Y-101241544D01*
X90222188Y-101173624D01*
X90371488Y-101143927D01*
X90396258Y-101139000D01*
X90573742Y-101139000D01*
X90598512Y-101143927D01*
G37*
G36*
X93138512Y-101143927D02*
G01*
X93287812Y-101173624D01*
X93451784Y-101241544D01*
X93599354Y-101340147D01*
X93724853Y-101465646D01*
X93823456Y-101613216D01*
X93891376Y-101777188D01*
X93926000Y-101951259D01*
X93926000Y-102128741D01*
X93891376Y-102302812D01*
X93823456Y-102466784D01*
X93724853Y-102614354D01*
X93599354Y-102739853D01*
X93451784Y-102838456D01*
X93287812Y-102906376D01*
X93138512Y-102936073D01*
X93113742Y-102941000D01*
X92936258Y-102941000D01*
X92911488Y-102936073D01*
X92762188Y-102906376D01*
X92598216Y-102838456D01*
X92450646Y-102739853D01*
X92325147Y-102614354D01*
X92226544Y-102466784D01*
X92158624Y-102302812D01*
X92124000Y-102128741D01*
X92124000Y-101951259D01*
X92158624Y-101777188D01*
X92226544Y-101613216D01*
X92325147Y-101465646D01*
X92450646Y-101340147D01*
X92598216Y-101241544D01*
X92762188Y-101173624D01*
X92911488Y-101143927D01*
X92936258Y-101139000D01*
X93113742Y-101139000D01*
X93138512Y-101143927D01*
G37*
G36*
X102578512Y-101143927D02*
G01*
X102727812Y-101173624D01*
X102891784Y-101241544D01*
X103039354Y-101340147D01*
X103164853Y-101465646D01*
X103263456Y-101613216D01*
X103331376Y-101777188D01*
X103366000Y-101951259D01*
X103366000Y-102128741D01*
X103331376Y-102302812D01*
X103263456Y-102466784D01*
X103164853Y-102614354D01*
X103039354Y-102739853D01*
X102891784Y-102838456D01*
X102727812Y-102906376D01*
X102578512Y-102936073D01*
X102553742Y-102941000D01*
X102376258Y-102941000D01*
X102351488Y-102936073D01*
X102202188Y-102906376D01*
X102038216Y-102838456D01*
X101890646Y-102739853D01*
X101765147Y-102614354D01*
X101666544Y-102466784D01*
X101598624Y-102302812D01*
X101564000Y-102128741D01*
X101564000Y-101951259D01*
X101598624Y-101777188D01*
X101666544Y-101613216D01*
X101765147Y-101465646D01*
X101890646Y-101340147D01*
X102038216Y-101241544D01*
X102202188Y-101173624D01*
X102351488Y-101143927D01*
X102376258Y-101139000D01*
X102553742Y-101139000D01*
X102578512Y-101143927D01*
G37*
G36*
X81158512Y-101143927D02*
G01*
X81307812Y-101173624D01*
X81471784Y-101241544D01*
X81619354Y-101340147D01*
X81744853Y-101465646D01*
X81843456Y-101613216D01*
X81911376Y-101777188D01*
X81946000Y-101951259D01*
X81946000Y-102128741D01*
X81911376Y-102302812D01*
X81843456Y-102466784D01*
X81744853Y-102614354D01*
X81619354Y-102739853D01*
X81471784Y-102838456D01*
X81307812Y-102906376D01*
X81158512Y-102936073D01*
X81133742Y-102941000D01*
X80956258Y-102941000D01*
X80931488Y-102936073D01*
X80782188Y-102906376D01*
X80618216Y-102838456D01*
X80470646Y-102739853D01*
X80345147Y-102614354D01*
X80246544Y-102466784D01*
X80178624Y-102302812D01*
X80144000Y-102128741D01*
X80144000Y-101951259D01*
X80178624Y-101777188D01*
X80246544Y-101613216D01*
X80345147Y-101465646D01*
X80470646Y-101340147D01*
X80618216Y-101241544D01*
X80782188Y-101173624D01*
X80931488Y-101143927D01*
X80956258Y-101139000D01*
X81133742Y-101139000D01*
X81158512Y-101143927D01*
G37*
G36*
X78618512Y-101143927D02*
G01*
X78767812Y-101173624D01*
X78931784Y-101241544D01*
X79079354Y-101340147D01*
X79204853Y-101465646D01*
X79303456Y-101613216D01*
X79371376Y-101777188D01*
X79406000Y-101951259D01*
X79406000Y-102128741D01*
X79371376Y-102302812D01*
X79303456Y-102466784D01*
X79204853Y-102614354D01*
X79079354Y-102739853D01*
X78931784Y-102838456D01*
X78767812Y-102906376D01*
X78618512Y-102936073D01*
X78593742Y-102941000D01*
X78416258Y-102941000D01*
X78391488Y-102936073D01*
X78242188Y-102906376D01*
X78078216Y-102838456D01*
X77930646Y-102739853D01*
X77805147Y-102614354D01*
X77706544Y-102466784D01*
X77638624Y-102302812D01*
X77604000Y-102128741D01*
X77604000Y-101951259D01*
X77638624Y-101777188D01*
X77706544Y-101613216D01*
X77805147Y-101465646D01*
X77930646Y-101340147D01*
X78078216Y-101241544D01*
X78242188Y-101173624D01*
X78391488Y-101143927D01*
X78416258Y-101139000D01*
X78593742Y-101139000D01*
X78618512Y-101143927D01*
G37*
G36*
X66638512Y-101143927D02*
G01*
X66787812Y-101173624D01*
X66951784Y-101241544D01*
X67099354Y-101340147D01*
X67224853Y-101465646D01*
X67323456Y-101613216D01*
X67391376Y-101777188D01*
X67426000Y-101951259D01*
X67426000Y-102128741D01*
X67391376Y-102302812D01*
X67323456Y-102466784D01*
X67224853Y-102614354D01*
X67099354Y-102739853D01*
X66951784Y-102838456D01*
X66787812Y-102906376D01*
X66638512Y-102936073D01*
X66613742Y-102941000D01*
X66436258Y-102941000D01*
X66411488Y-102936073D01*
X66262188Y-102906376D01*
X66098216Y-102838456D01*
X65950646Y-102739853D01*
X65825147Y-102614354D01*
X65726544Y-102466784D01*
X65658624Y-102302812D01*
X65624000Y-102128741D01*
X65624000Y-101951259D01*
X65658624Y-101777188D01*
X65726544Y-101613216D01*
X65825147Y-101465646D01*
X65950646Y-101340147D01*
X66098216Y-101241544D01*
X66262188Y-101173624D01*
X66411488Y-101143927D01*
X66436258Y-101139000D01*
X66613742Y-101139000D01*
X66638512Y-101143927D01*
G37*
G36*
X69178512Y-101143927D02*
G01*
X69327812Y-101173624D01*
X69491784Y-101241544D01*
X69639354Y-101340147D01*
X69764853Y-101465646D01*
X69863456Y-101613216D01*
X69931376Y-101777188D01*
X69966000Y-101951259D01*
X69966000Y-102128741D01*
X69931376Y-102302812D01*
X69863456Y-102466784D01*
X69764853Y-102614354D01*
X69639354Y-102739853D01*
X69491784Y-102838456D01*
X69327812Y-102906376D01*
X69178512Y-102936073D01*
X69153742Y-102941000D01*
X68976258Y-102941000D01*
X68951488Y-102936073D01*
X68802188Y-102906376D01*
X68638216Y-102838456D01*
X68490646Y-102739853D01*
X68365147Y-102614354D01*
X68266544Y-102466784D01*
X68198624Y-102302812D01*
X68164000Y-102128741D01*
X68164000Y-101951259D01*
X68198624Y-101777188D01*
X68266544Y-101613216D01*
X68365147Y-101465646D01*
X68490646Y-101340147D01*
X68638216Y-101241544D01*
X68802188Y-101173624D01*
X68951488Y-101143927D01*
X68976258Y-101139000D01*
X69153742Y-101139000D01*
X69178512Y-101143927D01*
G37*
G36*
X105118512Y-101143927D02*
G01*
X105267812Y-101173624D01*
X105431784Y-101241544D01*
X105579354Y-101340147D01*
X105704853Y-101465646D01*
X105803456Y-101613216D01*
X105871376Y-101777188D01*
X105906000Y-101951259D01*
X105906000Y-102128741D01*
X105871376Y-102302812D01*
X105803456Y-102466784D01*
X105704853Y-102614354D01*
X105579354Y-102739853D01*
X105431784Y-102838456D01*
X105267812Y-102906376D01*
X105118512Y-102936073D01*
X105093742Y-102941000D01*
X104916258Y-102941000D01*
X104891488Y-102936073D01*
X104742188Y-102906376D01*
X104578216Y-102838456D01*
X104430646Y-102739853D01*
X104305147Y-102614354D01*
X104206544Y-102466784D01*
X104138624Y-102302812D01*
X104104000Y-102128741D01*
X104104000Y-101951259D01*
X104138624Y-101777188D01*
X104206544Y-101613216D01*
X104305147Y-101465646D01*
X104430646Y-101340147D01*
X104578216Y-101241544D01*
X104742188Y-101173624D01*
X104891488Y-101143927D01*
X104916258Y-101139000D01*
X105093742Y-101139000D01*
X105118512Y-101143927D01*
G37*
G36*
X60641000Y-101841000D02*
G01*
X58839000Y-101841000D01*
X58839000Y-100039000D01*
X60641000Y-100039000D01*
X60641000Y-101841000D01*
G37*
G36*
X57313512Y-100043927D02*
G01*
X57462812Y-100073624D01*
X57626784Y-100141544D01*
X57774354Y-100240147D01*
X57899853Y-100365646D01*
X57998456Y-100513216D01*
X58066376Y-100677188D01*
X58101000Y-100851259D01*
X58101000Y-101028741D01*
X58066376Y-101202812D01*
X57998456Y-101366784D01*
X57899853Y-101514354D01*
X57774354Y-101639853D01*
X57626784Y-101738456D01*
X57462812Y-101806376D01*
X57313512Y-101836073D01*
X57288742Y-101841000D01*
X57111258Y-101841000D01*
X57086488Y-101836073D01*
X56937188Y-101806376D01*
X56773216Y-101738456D01*
X56625646Y-101639853D01*
X56500147Y-101514354D01*
X56401544Y-101366784D01*
X56333624Y-101202812D01*
X56299000Y-101028741D01*
X56299000Y-100851259D01*
X56333624Y-100677188D01*
X56401544Y-100513216D01*
X56500147Y-100365646D01*
X56625646Y-100240147D01*
X56773216Y-100141544D01*
X56937188Y-100073624D01*
X57086488Y-100043927D01*
X57111258Y-100039000D01*
X57288742Y-100039000D01*
X57313512Y-100043927D01*
G37*
G36*
X93138512Y-98603927D02*
G01*
X93287812Y-98633624D01*
X93451784Y-98701544D01*
X93599354Y-98800147D01*
X93724853Y-98925646D01*
X93823456Y-99073216D01*
X93891376Y-99237188D01*
X93926000Y-99411259D01*
X93926000Y-99588741D01*
X93891376Y-99762812D01*
X93823456Y-99926784D01*
X93724853Y-100074354D01*
X93599354Y-100199853D01*
X93451784Y-100298456D01*
X93287812Y-100366376D01*
X93138512Y-100396073D01*
X93113742Y-100401000D01*
X92936258Y-100401000D01*
X92911488Y-100396073D01*
X92762188Y-100366376D01*
X92598216Y-100298456D01*
X92450646Y-100199853D01*
X92325147Y-100074354D01*
X92226544Y-99926784D01*
X92158624Y-99762812D01*
X92124000Y-99588741D01*
X92124000Y-99411259D01*
X92158624Y-99237188D01*
X92226544Y-99073216D01*
X92325147Y-98925646D01*
X92450646Y-98800147D01*
X92598216Y-98701544D01*
X92762188Y-98633624D01*
X92911488Y-98603927D01*
X92936258Y-98599000D01*
X93113742Y-98599000D01*
X93138512Y-98603927D01*
G37*
G36*
X66638512Y-98603927D02*
G01*
X66787812Y-98633624D01*
X66951784Y-98701544D01*
X67099354Y-98800147D01*
X67224853Y-98925646D01*
X67323456Y-99073216D01*
X67391376Y-99237188D01*
X67426000Y-99411259D01*
X67426000Y-99588741D01*
X67391376Y-99762812D01*
X67323456Y-99926784D01*
X67224853Y-100074354D01*
X67099354Y-100199853D01*
X66951784Y-100298456D01*
X66787812Y-100366376D01*
X66638512Y-100396073D01*
X66613742Y-100401000D01*
X66436258Y-100401000D01*
X66411488Y-100396073D01*
X66262188Y-100366376D01*
X66098216Y-100298456D01*
X65950646Y-100199853D01*
X65825147Y-100074354D01*
X65726544Y-99926784D01*
X65658624Y-99762812D01*
X65624000Y-99588741D01*
X65624000Y-99411259D01*
X65658624Y-99237188D01*
X65726544Y-99073216D01*
X65825147Y-98925646D01*
X65950646Y-98800147D01*
X66098216Y-98701544D01*
X66262188Y-98633624D01*
X66411488Y-98603927D01*
X66436258Y-98599000D01*
X66613742Y-98599000D01*
X66638512Y-98603927D01*
G37*
G36*
X69178512Y-98603927D02*
G01*
X69327812Y-98633624D01*
X69491784Y-98701544D01*
X69639354Y-98800147D01*
X69764853Y-98925646D01*
X69863456Y-99073216D01*
X69931376Y-99237188D01*
X69966000Y-99411259D01*
X69966000Y-99588741D01*
X69931376Y-99762812D01*
X69863456Y-99926784D01*
X69764853Y-100074354D01*
X69639354Y-100199853D01*
X69491784Y-100298456D01*
X69327812Y-100366376D01*
X69178512Y-100396073D01*
X69153742Y-100401000D01*
X68976258Y-100401000D01*
X68951488Y-100396073D01*
X68802188Y-100366376D01*
X68638216Y-100298456D01*
X68490646Y-100199853D01*
X68365147Y-100074354D01*
X68266544Y-99926784D01*
X68198624Y-99762812D01*
X68164000Y-99588741D01*
X68164000Y-99411259D01*
X68198624Y-99237188D01*
X68266544Y-99073216D01*
X68365147Y-98925646D01*
X68490646Y-98800147D01*
X68638216Y-98701544D01*
X68802188Y-98633624D01*
X68951488Y-98603927D01*
X68976258Y-98599000D01*
X69153742Y-98599000D01*
X69178512Y-98603927D01*
G37*
G36*
X78618512Y-98603927D02*
G01*
X78767812Y-98633624D01*
X78931784Y-98701544D01*
X79079354Y-98800147D01*
X79204853Y-98925646D01*
X79303456Y-99073216D01*
X79371376Y-99237188D01*
X79406000Y-99411259D01*
X79406000Y-99588741D01*
X79371376Y-99762812D01*
X79303456Y-99926784D01*
X79204853Y-100074354D01*
X79079354Y-100199853D01*
X78931784Y-100298456D01*
X78767812Y-100366376D01*
X78618512Y-100396073D01*
X78593742Y-100401000D01*
X78416258Y-100401000D01*
X78391488Y-100396073D01*
X78242188Y-100366376D01*
X78078216Y-100298456D01*
X77930646Y-100199853D01*
X77805147Y-100074354D01*
X77706544Y-99926784D01*
X77638624Y-99762812D01*
X77604000Y-99588741D01*
X77604000Y-99411259D01*
X77638624Y-99237188D01*
X77706544Y-99073216D01*
X77805147Y-98925646D01*
X77930646Y-98800147D01*
X78078216Y-98701544D01*
X78242188Y-98633624D01*
X78391488Y-98603927D01*
X78416258Y-98599000D01*
X78593742Y-98599000D01*
X78618512Y-98603927D01*
G37*
G36*
X105118512Y-98603927D02*
G01*
X105267812Y-98633624D01*
X105431784Y-98701544D01*
X105579354Y-98800147D01*
X105704853Y-98925646D01*
X105803456Y-99073216D01*
X105871376Y-99237188D01*
X105906000Y-99411259D01*
X105906000Y-99588741D01*
X105871376Y-99762812D01*
X105803456Y-99926784D01*
X105704853Y-100074354D01*
X105579354Y-100199853D01*
X105431784Y-100298456D01*
X105267812Y-100366376D01*
X105118512Y-100396073D01*
X105093742Y-100401000D01*
X104916258Y-100401000D01*
X104891488Y-100396073D01*
X104742188Y-100366376D01*
X104578216Y-100298456D01*
X104430646Y-100199853D01*
X104305147Y-100074354D01*
X104206544Y-99926784D01*
X104138624Y-99762812D01*
X104104000Y-99588741D01*
X104104000Y-99411259D01*
X104138624Y-99237188D01*
X104206544Y-99073216D01*
X104305147Y-98925646D01*
X104430646Y-98800147D01*
X104578216Y-98701544D01*
X104742188Y-98633624D01*
X104891488Y-98603927D01*
X104916258Y-98599000D01*
X105093742Y-98599000D01*
X105118512Y-98603927D01*
G37*
G36*
X102578512Y-98603927D02*
G01*
X102727812Y-98633624D01*
X102891784Y-98701544D01*
X103039354Y-98800147D01*
X103164853Y-98925646D01*
X103263456Y-99073216D01*
X103331376Y-99237188D01*
X103366000Y-99411259D01*
X103366000Y-99588741D01*
X103331376Y-99762812D01*
X103263456Y-99926784D01*
X103164853Y-100074354D01*
X103039354Y-100199853D01*
X102891784Y-100298456D01*
X102727812Y-100366376D01*
X102578512Y-100396073D01*
X102553742Y-100401000D01*
X102376258Y-100401000D01*
X102351488Y-100396073D01*
X102202188Y-100366376D01*
X102038216Y-100298456D01*
X101890646Y-100199853D01*
X101765147Y-100074354D01*
X101666544Y-99926784D01*
X101598624Y-99762812D01*
X101564000Y-99588741D01*
X101564000Y-99411259D01*
X101598624Y-99237188D01*
X101666544Y-99073216D01*
X101765147Y-98925646D01*
X101890646Y-98800147D01*
X102038216Y-98701544D01*
X102202188Y-98633624D01*
X102351488Y-98603927D01*
X102376258Y-98599000D01*
X102553742Y-98599000D01*
X102578512Y-98603927D01*
G37*
G36*
X90598512Y-98603927D02*
G01*
X90747812Y-98633624D01*
X90911784Y-98701544D01*
X91059354Y-98800147D01*
X91184853Y-98925646D01*
X91283456Y-99073216D01*
X91351376Y-99237188D01*
X91386000Y-99411259D01*
X91386000Y-99588741D01*
X91351376Y-99762812D01*
X91283456Y-99926784D01*
X91184853Y-100074354D01*
X91059354Y-100199853D01*
X90911784Y-100298456D01*
X90747812Y-100366376D01*
X90598512Y-100396073D01*
X90573742Y-100401000D01*
X90396258Y-100401000D01*
X90371488Y-100396073D01*
X90222188Y-100366376D01*
X90058216Y-100298456D01*
X89910646Y-100199853D01*
X89785147Y-100074354D01*
X89686544Y-99926784D01*
X89618624Y-99762812D01*
X89584000Y-99588741D01*
X89584000Y-99411259D01*
X89618624Y-99237188D01*
X89686544Y-99073216D01*
X89785147Y-98925646D01*
X89910646Y-98800147D01*
X90058216Y-98701544D01*
X90222188Y-98633624D01*
X90371488Y-98603927D01*
X90396258Y-98599000D01*
X90573742Y-98599000D01*
X90598512Y-98603927D01*
G37*
G36*
X81158512Y-98603927D02*
G01*
X81307812Y-98633624D01*
X81471784Y-98701544D01*
X81619354Y-98800147D01*
X81744853Y-98925646D01*
X81843456Y-99073216D01*
X81911376Y-99237188D01*
X81946000Y-99411259D01*
X81946000Y-99588741D01*
X81911376Y-99762812D01*
X81843456Y-99926784D01*
X81744853Y-100074354D01*
X81619354Y-100199853D01*
X81471784Y-100298456D01*
X81307812Y-100366376D01*
X81158512Y-100396073D01*
X81133742Y-100401000D01*
X80956258Y-100401000D01*
X80931488Y-100396073D01*
X80782188Y-100366376D01*
X80618216Y-100298456D01*
X80470646Y-100199853D01*
X80345147Y-100074354D01*
X80246544Y-99926784D01*
X80178624Y-99762812D01*
X80144000Y-99588741D01*
X80144000Y-99411259D01*
X80178624Y-99237188D01*
X80246544Y-99073216D01*
X80345147Y-98925646D01*
X80470646Y-98800147D01*
X80618216Y-98701544D01*
X80782188Y-98633624D01*
X80931488Y-98603927D01*
X80956258Y-98599000D01*
X81133742Y-98599000D01*
X81158512Y-98603927D01*
G37*
G36*
X204261028Y-97886103D02*
G01*
X204415900Y-97950253D01*
X204555281Y-98043385D01*
X204673815Y-98161919D01*
X204766947Y-98301300D01*
X204831097Y-98456172D01*
X204863800Y-98620584D01*
X204863800Y-98788216D01*
X204831097Y-98952628D01*
X204766947Y-99107500D01*
X204673815Y-99246881D01*
X204555281Y-99365415D01*
X204415900Y-99458547D01*
X204261028Y-99522697D01*
X204096616Y-99555400D01*
X203928984Y-99555400D01*
X203764572Y-99522697D01*
X203609700Y-99458547D01*
X203470319Y-99365415D01*
X203351785Y-99246881D01*
X203258653Y-99107500D01*
X203194503Y-98952628D01*
X203161800Y-98788216D01*
X203161800Y-98620584D01*
X203194503Y-98456172D01*
X203258653Y-98301300D01*
X203351785Y-98161919D01*
X203470319Y-98043385D01*
X203609700Y-97950253D01*
X203764572Y-97886103D01*
X203928984Y-97853400D01*
X204096616Y-97853400D01*
X204261028Y-97886103D01*
G37*
G36*
X194101028Y-97886103D02*
G01*
X194255900Y-97950253D01*
X194395281Y-98043385D01*
X194513815Y-98161919D01*
X194606947Y-98301300D01*
X194671097Y-98456172D01*
X194703800Y-98620584D01*
X194703800Y-98788216D01*
X194671097Y-98952628D01*
X194606947Y-99107500D01*
X194513815Y-99246881D01*
X194395281Y-99365415D01*
X194255900Y-99458547D01*
X194101028Y-99522697D01*
X193936616Y-99555400D01*
X193768984Y-99555400D01*
X193604572Y-99522697D01*
X193449700Y-99458547D01*
X193310319Y-99365415D01*
X193191785Y-99246881D01*
X193098653Y-99107500D01*
X193034503Y-98952628D01*
X193001800Y-98788216D01*
X193001800Y-98620584D01*
X193034503Y-98456172D01*
X193098653Y-98301300D01*
X193191785Y-98161919D01*
X193310319Y-98043385D01*
X193449700Y-97950253D01*
X193604572Y-97886103D01*
X193768984Y-97853400D01*
X193936616Y-97853400D01*
X194101028Y-97886103D01*
G37*
G36*
X59853512Y-97503927D02*
G01*
X60002812Y-97533624D01*
X60166784Y-97601544D01*
X60314354Y-97700147D01*
X60439853Y-97825646D01*
X60538456Y-97973216D01*
X60606376Y-98137188D01*
X60641000Y-98311259D01*
X60641000Y-98488741D01*
X60606376Y-98662812D01*
X60538456Y-98826784D01*
X60439853Y-98974354D01*
X60314354Y-99099853D01*
X60166784Y-99198456D01*
X60002812Y-99266376D01*
X59853512Y-99296073D01*
X59828742Y-99301000D01*
X59651258Y-99301000D01*
X59626488Y-99296073D01*
X59477188Y-99266376D01*
X59313216Y-99198456D01*
X59165646Y-99099853D01*
X59040147Y-98974354D01*
X58941544Y-98826784D01*
X58873624Y-98662812D01*
X58839000Y-98488741D01*
X58839000Y-98311259D01*
X58873624Y-98137188D01*
X58941544Y-97973216D01*
X59040147Y-97825646D01*
X59165646Y-97700147D01*
X59313216Y-97601544D01*
X59477188Y-97533624D01*
X59626488Y-97503927D01*
X59651258Y-97499000D01*
X59828742Y-97499000D01*
X59853512Y-97503927D01*
G37*
G36*
X57313512Y-97503927D02*
G01*
X57462812Y-97533624D01*
X57626784Y-97601544D01*
X57774354Y-97700147D01*
X57899853Y-97825646D01*
X57998456Y-97973216D01*
X58066376Y-98137188D01*
X58101000Y-98311259D01*
X58101000Y-98488741D01*
X58066376Y-98662812D01*
X57998456Y-98826784D01*
X57899853Y-98974354D01*
X57774354Y-99099853D01*
X57626784Y-99198456D01*
X57462812Y-99266376D01*
X57313512Y-99296073D01*
X57288742Y-99301000D01*
X57111258Y-99301000D01*
X57086488Y-99296073D01*
X56937188Y-99266376D01*
X56773216Y-99198456D01*
X56625646Y-99099853D01*
X56500147Y-98974354D01*
X56401544Y-98826784D01*
X56333624Y-98662812D01*
X56299000Y-98488741D01*
X56299000Y-98311259D01*
X56333624Y-98137188D01*
X56401544Y-97973216D01*
X56500147Y-97825646D01*
X56625646Y-97700147D01*
X56773216Y-97601544D01*
X56937188Y-97533624D01*
X57086488Y-97503927D01*
X57111258Y-97499000D01*
X57288742Y-97499000D01*
X57313512Y-97503927D01*
G37*
G36*
X130601028Y-97174903D02*
G01*
X130755900Y-97239053D01*
X130895281Y-97332185D01*
X131013815Y-97450719D01*
X131106947Y-97590100D01*
X131171097Y-97744972D01*
X131203800Y-97909384D01*
X131203800Y-98077016D01*
X131171097Y-98241428D01*
X131106947Y-98396300D01*
X131013815Y-98535681D01*
X130895281Y-98654215D01*
X130755900Y-98747347D01*
X130601028Y-98811497D01*
X130436616Y-98844200D01*
X130268984Y-98844200D01*
X130104572Y-98811497D01*
X129949700Y-98747347D01*
X129810319Y-98654215D01*
X129691785Y-98535681D01*
X129598653Y-98396300D01*
X129534503Y-98241428D01*
X129501800Y-98077016D01*
X129501800Y-97909384D01*
X129534503Y-97744972D01*
X129598653Y-97590100D01*
X129691785Y-97450719D01*
X129810319Y-97332185D01*
X129949700Y-97239053D01*
X130104572Y-97174903D01*
X130268984Y-97142200D01*
X130436616Y-97142200D01*
X130601028Y-97174903D01*
G37*
G36*
X133101028Y-97174903D02*
G01*
X133255900Y-97239053D01*
X133395281Y-97332185D01*
X133513815Y-97450719D01*
X133606947Y-97590100D01*
X133671097Y-97744972D01*
X133703800Y-97909384D01*
X133703800Y-98077016D01*
X133671097Y-98241428D01*
X133606947Y-98396300D01*
X133513815Y-98535681D01*
X133395281Y-98654215D01*
X133255900Y-98747347D01*
X133101028Y-98811497D01*
X132936616Y-98844200D01*
X132768984Y-98844200D01*
X132604572Y-98811497D01*
X132449700Y-98747347D01*
X132310319Y-98654215D01*
X132191785Y-98535681D01*
X132098653Y-98396300D01*
X132034503Y-98241428D01*
X132001800Y-98077016D01*
X132001800Y-97909384D01*
X132034503Y-97744972D01*
X132098653Y-97590100D01*
X132191785Y-97450719D01*
X132310319Y-97332185D01*
X132449700Y-97239053D01*
X132604572Y-97174903D01*
X132768984Y-97142200D01*
X132936616Y-97142200D01*
X133101028Y-97174903D01*
G37*
G36*
X66638512Y-96063927D02*
G01*
X66787812Y-96093624D01*
X66951784Y-96161544D01*
X67099354Y-96260147D01*
X67224853Y-96385646D01*
X67323456Y-96533216D01*
X67391376Y-96697188D01*
X67426000Y-96871259D01*
X67426000Y-97048741D01*
X67391376Y-97222812D01*
X67323456Y-97386784D01*
X67224853Y-97534354D01*
X67099354Y-97659853D01*
X66951784Y-97758456D01*
X66787812Y-97826376D01*
X66638512Y-97856073D01*
X66613742Y-97861000D01*
X66436258Y-97861000D01*
X66411488Y-97856073D01*
X66262188Y-97826376D01*
X66098216Y-97758456D01*
X65950646Y-97659853D01*
X65825147Y-97534354D01*
X65726544Y-97386784D01*
X65658624Y-97222812D01*
X65624000Y-97048741D01*
X65624000Y-96871259D01*
X65658624Y-96697188D01*
X65726544Y-96533216D01*
X65825147Y-96385646D01*
X65950646Y-96260147D01*
X66098216Y-96161544D01*
X66262188Y-96093624D01*
X66411488Y-96063927D01*
X66436258Y-96059000D01*
X66613742Y-96059000D01*
X66638512Y-96063927D01*
G37*
G36*
X93138512Y-96063927D02*
G01*
X93287812Y-96093624D01*
X93451784Y-96161544D01*
X93599354Y-96260147D01*
X93724853Y-96385646D01*
X93823456Y-96533216D01*
X93891376Y-96697188D01*
X93926000Y-96871259D01*
X93926000Y-97048741D01*
X93891376Y-97222812D01*
X93823456Y-97386784D01*
X93724853Y-97534354D01*
X93599354Y-97659853D01*
X93451784Y-97758456D01*
X93287812Y-97826376D01*
X93138512Y-97856073D01*
X93113742Y-97861000D01*
X92936258Y-97861000D01*
X92911488Y-97856073D01*
X92762188Y-97826376D01*
X92598216Y-97758456D01*
X92450646Y-97659853D01*
X92325147Y-97534354D01*
X92226544Y-97386784D01*
X92158624Y-97222812D01*
X92124000Y-97048741D01*
X92124000Y-96871259D01*
X92158624Y-96697188D01*
X92226544Y-96533216D01*
X92325147Y-96385646D01*
X92450646Y-96260147D01*
X92598216Y-96161544D01*
X92762188Y-96093624D01*
X92911488Y-96063927D01*
X92936258Y-96059000D01*
X93113742Y-96059000D01*
X93138512Y-96063927D01*
G37*
G36*
X105118512Y-96063927D02*
G01*
X105267812Y-96093624D01*
X105431784Y-96161544D01*
X105579354Y-96260147D01*
X105704853Y-96385646D01*
X105803456Y-96533216D01*
X105871376Y-96697188D01*
X105906000Y-96871259D01*
X105906000Y-97048741D01*
X105871376Y-97222812D01*
X105803456Y-97386784D01*
X105704853Y-97534354D01*
X105579354Y-97659853D01*
X105431784Y-97758456D01*
X105267812Y-97826376D01*
X105118512Y-97856073D01*
X105093742Y-97861000D01*
X104916258Y-97861000D01*
X104891488Y-97856073D01*
X104742188Y-97826376D01*
X104578216Y-97758456D01*
X104430646Y-97659853D01*
X104305147Y-97534354D01*
X104206544Y-97386784D01*
X104138624Y-97222812D01*
X104104000Y-97048741D01*
X104104000Y-96871259D01*
X104138624Y-96697188D01*
X104206544Y-96533216D01*
X104305147Y-96385646D01*
X104430646Y-96260147D01*
X104578216Y-96161544D01*
X104742188Y-96093624D01*
X104891488Y-96063927D01*
X104916258Y-96059000D01*
X105093742Y-96059000D01*
X105118512Y-96063927D01*
G37*
G36*
X90598512Y-96063927D02*
G01*
X90747812Y-96093624D01*
X90911784Y-96161544D01*
X91059354Y-96260147D01*
X91184853Y-96385646D01*
X91283456Y-96533216D01*
X91351376Y-96697188D01*
X91386000Y-96871259D01*
X91386000Y-97048741D01*
X91351376Y-97222812D01*
X91283456Y-97386784D01*
X91184853Y-97534354D01*
X91059354Y-97659853D01*
X90911784Y-97758456D01*
X90747812Y-97826376D01*
X90598512Y-97856073D01*
X90573742Y-97861000D01*
X90396258Y-97861000D01*
X90371488Y-97856073D01*
X90222188Y-97826376D01*
X90058216Y-97758456D01*
X89910646Y-97659853D01*
X89785147Y-97534354D01*
X89686544Y-97386784D01*
X89618624Y-97222812D01*
X89584000Y-97048741D01*
X89584000Y-96871259D01*
X89618624Y-96697188D01*
X89686544Y-96533216D01*
X89785147Y-96385646D01*
X89910646Y-96260147D01*
X90058216Y-96161544D01*
X90222188Y-96093624D01*
X90371488Y-96063927D01*
X90396258Y-96059000D01*
X90573742Y-96059000D01*
X90598512Y-96063927D01*
G37*
G36*
X81158512Y-96063927D02*
G01*
X81307812Y-96093624D01*
X81471784Y-96161544D01*
X81619354Y-96260147D01*
X81744853Y-96385646D01*
X81843456Y-96533216D01*
X81911376Y-96697188D01*
X81946000Y-96871259D01*
X81946000Y-97048741D01*
X81911376Y-97222812D01*
X81843456Y-97386784D01*
X81744853Y-97534354D01*
X81619354Y-97659853D01*
X81471784Y-97758456D01*
X81307812Y-97826376D01*
X81158512Y-97856073D01*
X81133742Y-97861000D01*
X80956258Y-97861000D01*
X80931488Y-97856073D01*
X80782188Y-97826376D01*
X80618216Y-97758456D01*
X80470646Y-97659853D01*
X80345147Y-97534354D01*
X80246544Y-97386784D01*
X80178624Y-97222812D01*
X80144000Y-97048741D01*
X80144000Y-96871259D01*
X80178624Y-96697188D01*
X80246544Y-96533216D01*
X80345147Y-96385646D01*
X80470646Y-96260147D01*
X80618216Y-96161544D01*
X80782188Y-96093624D01*
X80931488Y-96063927D01*
X80956258Y-96059000D01*
X81133742Y-96059000D01*
X81158512Y-96063927D01*
G37*
G36*
X78618512Y-96063927D02*
G01*
X78767812Y-96093624D01*
X78931784Y-96161544D01*
X79079354Y-96260147D01*
X79204853Y-96385646D01*
X79303456Y-96533216D01*
X79371376Y-96697188D01*
X79406000Y-96871259D01*
X79406000Y-97048741D01*
X79371376Y-97222812D01*
X79303456Y-97386784D01*
X79204853Y-97534354D01*
X79079354Y-97659853D01*
X78931784Y-97758456D01*
X78767812Y-97826376D01*
X78618512Y-97856073D01*
X78593742Y-97861000D01*
X78416258Y-97861000D01*
X78391488Y-97856073D01*
X78242188Y-97826376D01*
X78078216Y-97758456D01*
X77930646Y-97659853D01*
X77805147Y-97534354D01*
X77706544Y-97386784D01*
X77638624Y-97222812D01*
X77604000Y-97048741D01*
X77604000Y-96871259D01*
X77638624Y-96697188D01*
X77706544Y-96533216D01*
X77805147Y-96385646D01*
X77930646Y-96260147D01*
X78078216Y-96161544D01*
X78242188Y-96093624D01*
X78391488Y-96063927D01*
X78416258Y-96059000D01*
X78593742Y-96059000D01*
X78618512Y-96063927D01*
G37*
G36*
X69178512Y-96063927D02*
G01*
X69327812Y-96093624D01*
X69491784Y-96161544D01*
X69639354Y-96260147D01*
X69764853Y-96385646D01*
X69863456Y-96533216D01*
X69931376Y-96697188D01*
X69966000Y-96871259D01*
X69966000Y-97048741D01*
X69931376Y-97222812D01*
X69863456Y-97386784D01*
X69764853Y-97534354D01*
X69639354Y-97659853D01*
X69491784Y-97758456D01*
X69327812Y-97826376D01*
X69178512Y-97856073D01*
X69153742Y-97861000D01*
X68976258Y-97861000D01*
X68951488Y-97856073D01*
X68802188Y-97826376D01*
X68638216Y-97758456D01*
X68490646Y-97659853D01*
X68365147Y-97534354D01*
X68266544Y-97386784D01*
X68198624Y-97222812D01*
X68164000Y-97048741D01*
X68164000Y-96871259D01*
X68198624Y-96697188D01*
X68266544Y-96533216D01*
X68365147Y-96385646D01*
X68490646Y-96260147D01*
X68638216Y-96161544D01*
X68802188Y-96093624D01*
X68951488Y-96063927D01*
X68976258Y-96059000D01*
X69153742Y-96059000D01*
X69178512Y-96063927D01*
G37*
G36*
X102578512Y-96063927D02*
G01*
X102727812Y-96093624D01*
X102891784Y-96161544D01*
X103039354Y-96260147D01*
X103164853Y-96385646D01*
X103263456Y-96533216D01*
X103331376Y-96697188D01*
X103366000Y-96871259D01*
X103366000Y-97048741D01*
X103331376Y-97222812D01*
X103263456Y-97386784D01*
X103164853Y-97534354D01*
X103039354Y-97659853D01*
X102891784Y-97758456D01*
X102727812Y-97826376D01*
X102578512Y-97856073D01*
X102553742Y-97861000D01*
X102376258Y-97861000D01*
X102351488Y-97856073D01*
X102202188Y-97826376D01*
X102038216Y-97758456D01*
X101890646Y-97659853D01*
X101765147Y-97534354D01*
X101666544Y-97386784D01*
X101598624Y-97222812D01*
X101564000Y-97048741D01*
X101564000Y-96871259D01*
X101598624Y-96697188D01*
X101666544Y-96533216D01*
X101765147Y-96385646D01*
X101890646Y-96260147D01*
X102038216Y-96161544D01*
X102202188Y-96093624D01*
X102351488Y-96063927D01*
X102376258Y-96059000D01*
X102553742Y-96059000D01*
X102578512Y-96063927D01*
G37*
G36*
X115755800Y-97467800D02*
G01*
X113453800Y-97467800D01*
X113453800Y-95165800D01*
X115755800Y-95165800D01*
X115755800Y-97467800D01*
G37*
G36*
X120702600Y-97390600D02*
G01*
X118400600Y-97390600D01*
X118400600Y-95088600D01*
X120702600Y-95088600D01*
X120702600Y-97390600D01*
G37*
G36*
X124149428Y-95346103D02*
G01*
X124304300Y-95410253D01*
X124443681Y-95503385D01*
X124562215Y-95621919D01*
X124655347Y-95761300D01*
X124719497Y-95916172D01*
X124752200Y-96080584D01*
X124752200Y-96248216D01*
X124719497Y-96412628D01*
X124655347Y-96567500D01*
X124562215Y-96706881D01*
X124443681Y-96825415D01*
X124304300Y-96918547D01*
X124149428Y-96982697D01*
X123985016Y-97015400D01*
X123817384Y-97015400D01*
X123652972Y-96982697D01*
X123498100Y-96918547D01*
X123358719Y-96825415D01*
X123240185Y-96706881D01*
X123147053Y-96567500D01*
X123082903Y-96412628D01*
X123050200Y-96248216D01*
X123050200Y-96080584D01*
X123082903Y-95916172D01*
X123147053Y-95761300D01*
X123240185Y-95621919D01*
X123358719Y-95503385D01*
X123498100Y-95410253D01*
X123652972Y-95346103D01*
X123817384Y-95313400D01*
X123985016Y-95313400D01*
X124149428Y-95346103D01*
G37*
G36*
X59853512Y-94963927D02*
G01*
X60002812Y-94993624D01*
X60166784Y-95061544D01*
X60314354Y-95160147D01*
X60439853Y-95285646D01*
X60538456Y-95433216D01*
X60606376Y-95597188D01*
X60641000Y-95771259D01*
X60641000Y-95948741D01*
X60606376Y-96122812D01*
X60538456Y-96286784D01*
X60439853Y-96434354D01*
X60314354Y-96559853D01*
X60166784Y-96658456D01*
X60002812Y-96726376D01*
X59853512Y-96756073D01*
X59828742Y-96761000D01*
X59651258Y-96761000D01*
X59626488Y-96756073D01*
X59477188Y-96726376D01*
X59313216Y-96658456D01*
X59165646Y-96559853D01*
X59040147Y-96434354D01*
X58941544Y-96286784D01*
X58873624Y-96122812D01*
X58839000Y-95948741D01*
X58839000Y-95771259D01*
X58873624Y-95597188D01*
X58941544Y-95433216D01*
X59040147Y-95285646D01*
X59165646Y-95160147D01*
X59313216Y-95061544D01*
X59477188Y-94993624D01*
X59626488Y-94963927D01*
X59651258Y-94959000D01*
X59828742Y-94959000D01*
X59853512Y-94963927D01*
G37*
G36*
X57313512Y-94963927D02*
G01*
X57462812Y-94993624D01*
X57626784Y-95061544D01*
X57774354Y-95160147D01*
X57899853Y-95285646D01*
X57998456Y-95433216D01*
X58066376Y-95597188D01*
X58101000Y-95771259D01*
X58101000Y-95948741D01*
X58066376Y-96122812D01*
X57998456Y-96286784D01*
X57899853Y-96434354D01*
X57774354Y-96559853D01*
X57626784Y-96658456D01*
X57462812Y-96726376D01*
X57313512Y-96756073D01*
X57288742Y-96761000D01*
X57111258Y-96761000D01*
X57086488Y-96756073D01*
X56937188Y-96726376D01*
X56773216Y-96658456D01*
X56625646Y-96559853D01*
X56500147Y-96434354D01*
X56401544Y-96286784D01*
X56333624Y-96122812D01*
X56299000Y-95948741D01*
X56299000Y-95771259D01*
X56333624Y-95597188D01*
X56401544Y-95433216D01*
X56500147Y-95285646D01*
X56625646Y-95160147D01*
X56773216Y-95061544D01*
X56937188Y-94993624D01*
X57086488Y-94963927D01*
X57111258Y-94959000D01*
X57288742Y-94959000D01*
X57313512Y-94963927D01*
G37*
G36*
X78618512Y-93523927D02*
G01*
X78767812Y-93553624D01*
X78931784Y-93621544D01*
X79079354Y-93720147D01*
X79204853Y-93845646D01*
X79303456Y-93993216D01*
X79371376Y-94157188D01*
X79406000Y-94331259D01*
X79406000Y-94508741D01*
X79371376Y-94682812D01*
X79303456Y-94846784D01*
X79204853Y-94994354D01*
X79079354Y-95119853D01*
X78931784Y-95218456D01*
X78767812Y-95286376D01*
X78618512Y-95316073D01*
X78593742Y-95321000D01*
X78416258Y-95321000D01*
X78391488Y-95316073D01*
X78242188Y-95286376D01*
X78078216Y-95218456D01*
X77930646Y-95119853D01*
X77805147Y-94994354D01*
X77706544Y-94846784D01*
X77638624Y-94682812D01*
X77604000Y-94508741D01*
X77604000Y-94331259D01*
X77638624Y-94157188D01*
X77706544Y-93993216D01*
X77805147Y-93845646D01*
X77930646Y-93720147D01*
X78078216Y-93621544D01*
X78242188Y-93553624D01*
X78391488Y-93523927D01*
X78416258Y-93519000D01*
X78593742Y-93519000D01*
X78618512Y-93523927D01*
G37*
G36*
X66638512Y-93523927D02*
G01*
X66787812Y-93553624D01*
X66951784Y-93621544D01*
X67099354Y-93720147D01*
X67224853Y-93845646D01*
X67323456Y-93993216D01*
X67391376Y-94157188D01*
X67426000Y-94331259D01*
X67426000Y-94508741D01*
X67391376Y-94682812D01*
X67323456Y-94846784D01*
X67224853Y-94994354D01*
X67099354Y-95119853D01*
X66951784Y-95218456D01*
X66787812Y-95286376D01*
X66638512Y-95316073D01*
X66613742Y-95321000D01*
X66436258Y-95321000D01*
X66411488Y-95316073D01*
X66262188Y-95286376D01*
X66098216Y-95218456D01*
X65950646Y-95119853D01*
X65825147Y-94994354D01*
X65726544Y-94846784D01*
X65658624Y-94682812D01*
X65624000Y-94508741D01*
X65624000Y-94331259D01*
X65658624Y-94157188D01*
X65726544Y-93993216D01*
X65825147Y-93845646D01*
X65950646Y-93720147D01*
X66098216Y-93621544D01*
X66262188Y-93553624D01*
X66411488Y-93523927D01*
X66436258Y-93519000D01*
X66613742Y-93519000D01*
X66638512Y-93523927D01*
G37*
G36*
X105118512Y-93523927D02*
G01*
X105267812Y-93553624D01*
X105431784Y-93621544D01*
X105579354Y-93720147D01*
X105704853Y-93845646D01*
X105803456Y-93993216D01*
X105871376Y-94157188D01*
X105906000Y-94331259D01*
X105906000Y-94508741D01*
X105871376Y-94682812D01*
X105803456Y-94846784D01*
X105704853Y-94994354D01*
X105579354Y-95119853D01*
X105431784Y-95218456D01*
X105267812Y-95286376D01*
X105118512Y-95316073D01*
X105093742Y-95321000D01*
X104916258Y-95321000D01*
X104891488Y-95316073D01*
X104742188Y-95286376D01*
X104578216Y-95218456D01*
X104430646Y-95119853D01*
X104305147Y-94994354D01*
X104206544Y-94846784D01*
X104138624Y-94682812D01*
X104104000Y-94508741D01*
X104104000Y-94331259D01*
X104138624Y-94157188D01*
X104206544Y-93993216D01*
X104305147Y-93845646D01*
X104430646Y-93720147D01*
X104578216Y-93621544D01*
X104742188Y-93553624D01*
X104891488Y-93523927D01*
X104916258Y-93519000D01*
X105093742Y-93519000D01*
X105118512Y-93523927D01*
G37*
G36*
X93138512Y-93523927D02*
G01*
X93287812Y-93553624D01*
X93451784Y-93621544D01*
X93599354Y-93720147D01*
X93724853Y-93845646D01*
X93823456Y-93993216D01*
X93891376Y-94157188D01*
X93926000Y-94331259D01*
X93926000Y-94508741D01*
X93891376Y-94682812D01*
X93823456Y-94846784D01*
X93724853Y-94994354D01*
X93599354Y-95119853D01*
X93451784Y-95218456D01*
X93287812Y-95286376D01*
X93138512Y-95316073D01*
X93113742Y-95321000D01*
X92936258Y-95321000D01*
X92911488Y-95316073D01*
X92762188Y-95286376D01*
X92598216Y-95218456D01*
X92450646Y-95119853D01*
X92325147Y-94994354D01*
X92226544Y-94846784D01*
X92158624Y-94682812D01*
X92124000Y-94508741D01*
X92124000Y-94331259D01*
X92158624Y-94157188D01*
X92226544Y-93993216D01*
X92325147Y-93845646D01*
X92450646Y-93720147D01*
X92598216Y-93621544D01*
X92762188Y-93553624D01*
X92911488Y-93523927D01*
X92936258Y-93519000D01*
X93113742Y-93519000D01*
X93138512Y-93523927D01*
G37*
G36*
X81158512Y-93523927D02*
G01*
X81307812Y-93553624D01*
X81471784Y-93621544D01*
X81619354Y-93720147D01*
X81744853Y-93845646D01*
X81843456Y-93993216D01*
X81911376Y-94157188D01*
X81946000Y-94331259D01*
X81946000Y-94508741D01*
X81911376Y-94682812D01*
X81843456Y-94846784D01*
X81744853Y-94994354D01*
X81619354Y-95119853D01*
X81471784Y-95218456D01*
X81307812Y-95286376D01*
X81158512Y-95316073D01*
X81133742Y-95321000D01*
X80956258Y-95321000D01*
X80931488Y-95316073D01*
X80782188Y-95286376D01*
X80618216Y-95218456D01*
X80470646Y-95119853D01*
X80345147Y-94994354D01*
X80246544Y-94846784D01*
X80178624Y-94682812D01*
X80144000Y-94508741D01*
X80144000Y-94331259D01*
X80178624Y-94157188D01*
X80246544Y-93993216D01*
X80345147Y-93845646D01*
X80470646Y-93720147D01*
X80618216Y-93621544D01*
X80782188Y-93553624D01*
X80931488Y-93523927D01*
X80956258Y-93519000D01*
X81133742Y-93519000D01*
X81158512Y-93523927D01*
G37*
G36*
X69178512Y-93523927D02*
G01*
X69327812Y-93553624D01*
X69491784Y-93621544D01*
X69639354Y-93720147D01*
X69764853Y-93845646D01*
X69863456Y-93993216D01*
X69931376Y-94157188D01*
X69966000Y-94331259D01*
X69966000Y-94508741D01*
X69931376Y-94682812D01*
X69863456Y-94846784D01*
X69764853Y-94994354D01*
X69639354Y-95119853D01*
X69491784Y-95218456D01*
X69327812Y-95286376D01*
X69178512Y-95316073D01*
X69153742Y-95321000D01*
X68976258Y-95321000D01*
X68951488Y-95316073D01*
X68802188Y-95286376D01*
X68638216Y-95218456D01*
X68490646Y-95119853D01*
X68365147Y-94994354D01*
X68266544Y-94846784D01*
X68198624Y-94682812D01*
X68164000Y-94508741D01*
X68164000Y-94331259D01*
X68198624Y-94157188D01*
X68266544Y-93993216D01*
X68365147Y-93845646D01*
X68490646Y-93720147D01*
X68638216Y-93621544D01*
X68802188Y-93553624D01*
X68951488Y-93523927D01*
X68976258Y-93519000D01*
X69153742Y-93519000D01*
X69178512Y-93523927D01*
G37*
G36*
X102578512Y-93523927D02*
G01*
X102727812Y-93553624D01*
X102891784Y-93621544D01*
X103039354Y-93720147D01*
X103164853Y-93845646D01*
X103263456Y-93993216D01*
X103331376Y-94157188D01*
X103366000Y-94331259D01*
X103366000Y-94508741D01*
X103331376Y-94682812D01*
X103263456Y-94846784D01*
X103164853Y-94994354D01*
X103039354Y-95119853D01*
X102891784Y-95218456D01*
X102727812Y-95286376D01*
X102578512Y-95316073D01*
X102553742Y-95321000D01*
X102376258Y-95321000D01*
X102351488Y-95316073D01*
X102202188Y-95286376D01*
X102038216Y-95218456D01*
X101890646Y-95119853D01*
X101765147Y-94994354D01*
X101666544Y-94846784D01*
X101598624Y-94682812D01*
X101564000Y-94508741D01*
X101564000Y-94331259D01*
X101598624Y-94157188D01*
X101666544Y-93993216D01*
X101765147Y-93845646D01*
X101890646Y-93720147D01*
X102038216Y-93621544D01*
X102202188Y-93553624D01*
X102351488Y-93523927D01*
X102376258Y-93519000D01*
X102553742Y-93519000D01*
X102578512Y-93523927D01*
G37*
G36*
X90598512Y-93523927D02*
G01*
X90747812Y-93553624D01*
X90911784Y-93621544D01*
X91059354Y-93720147D01*
X91184853Y-93845646D01*
X91283456Y-93993216D01*
X91351376Y-94157188D01*
X91386000Y-94331259D01*
X91386000Y-94508741D01*
X91351376Y-94682812D01*
X91283456Y-94846784D01*
X91184853Y-94994354D01*
X91059354Y-95119853D01*
X90911784Y-95218456D01*
X90747812Y-95286376D01*
X90598512Y-95316073D01*
X90573742Y-95321000D01*
X90396258Y-95321000D01*
X90371488Y-95316073D01*
X90222188Y-95286376D01*
X90058216Y-95218456D01*
X89910646Y-95119853D01*
X89785147Y-94994354D01*
X89686544Y-94846784D01*
X89618624Y-94682812D01*
X89584000Y-94508741D01*
X89584000Y-94331259D01*
X89618624Y-94157188D01*
X89686544Y-93993216D01*
X89785147Y-93845646D01*
X89910646Y-93720147D01*
X90058216Y-93621544D01*
X90222188Y-93553624D01*
X90371488Y-93523927D01*
X90396258Y-93519000D01*
X90573742Y-93519000D01*
X90598512Y-93523927D01*
G37*
G36*
X57291773Y-92419603D02*
G01*
X57462812Y-92453624D01*
X57626784Y-92521544D01*
X57774354Y-92620147D01*
X57899853Y-92745646D01*
X57998456Y-92893216D01*
X58066376Y-93057188D01*
X58101000Y-93231259D01*
X58101000Y-93408741D01*
X58066376Y-93582812D01*
X57998456Y-93746784D01*
X57899853Y-93894354D01*
X57774354Y-94019853D01*
X57626784Y-94118456D01*
X57462812Y-94186376D01*
X57313512Y-94216073D01*
X57288742Y-94221000D01*
X57111258Y-94221000D01*
X57086488Y-94216073D01*
X56937188Y-94186376D01*
X56773216Y-94118456D01*
X56625646Y-94019853D01*
X56500147Y-93894354D01*
X56401544Y-93746784D01*
X56333624Y-93582812D01*
X56299000Y-93408741D01*
X56299000Y-93231259D01*
X56333624Y-93057188D01*
X56401544Y-92893216D01*
X56500147Y-92745646D01*
X56625646Y-92620147D01*
X56773216Y-92521544D01*
X56937188Y-92453624D01*
X57108227Y-92419603D01*
X57111258Y-92419000D01*
X57288742Y-92419000D01*
X57291773Y-92419603D01*
G37*
G36*
X59831773Y-92419603D02*
G01*
X60002812Y-92453624D01*
X60166784Y-92521544D01*
X60314354Y-92620147D01*
X60439853Y-92745646D01*
X60538456Y-92893216D01*
X60606376Y-93057188D01*
X60641000Y-93231259D01*
X60641000Y-93408741D01*
X60606376Y-93582812D01*
X60538456Y-93746784D01*
X60439853Y-93894354D01*
X60314354Y-94019853D01*
X60166784Y-94118456D01*
X60002812Y-94186376D01*
X59853512Y-94216073D01*
X59828742Y-94221000D01*
X59651258Y-94221000D01*
X59626488Y-94216073D01*
X59477188Y-94186376D01*
X59313216Y-94118456D01*
X59165646Y-94019853D01*
X59040147Y-93894354D01*
X58941544Y-93746784D01*
X58873624Y-93582812D01*
X58839000Y-93408741D01*
X58839000Y-93231259D01*
X58873624Y-93057188D01*
X58941544Y-92893216D01*
X59040147Y-92745646D01*
X59165646Y-92620147D01*
X59313216Y-92521544D01*
X59477188Y-92453624D01*
X59648227Y-92419603D01*
X59651258Y-92419000D01*
X59828742Y-92419000D01*
X59831773Y-92419603D01*
G37*
G36*
X114676949Y-91123916D02*
G01*
X114788134Y-91146032D01*
X114997603Y-91232797D01*
X115186120Y-91358760D01*
X115346440Y-91519080D01*
X115458071Y-91686148D01*
X115472404Y-91707599D01*
X115559168Y-91917067D01*
X115602184Y-92133320D01*
X115603400Y-92139436D01*
X115603400Y-92366164D01*
X115559168Y-92588534D01*
X115472403Y-92798003D01*
X115346440Y-92986520D01*
X115186120Y-93146840D01*
X114997603Y-93272803D01*
X114788134Y-93359568D01*
X114676949Y-93381684D01*
X114565765Y-93403800D01*
X114339035Y-93403800D01*
X114227851Y-93381684D01*
X114116666Y-93359568D01*
X113907197Y-93272803D01*
X113718680Y-93146840D01*
X113558360Y-92986520D01*
X113432397Y-92798003D01*
X113345632Y-92588534D01*
X113301400Y-92366164D01*
X113301400Y-92139436D01*
X113302617Y-92133320D01*
X113345632Y-91917067D01*
X113432396Y-91707599D01*
X113446729Y-91686148D01*
X113558360Y-91519080D01*
X113718680Y-91358760D01*
X113907197Y-91232797D01*
X114116666Y-91146032D01*
X114227851Y-91123916D01*
X114339035Y-91101800D01*
X114565765Y-91101800D01*
X114676949Y-91123916D01*
G37*
G36*
X120702600Y-93390600D02*
G01*
X118400600Y-93390600D01*
X118400600Y-91088600D01*
X120702600Y-91088600D01*
X120702600Y-93390600D01*
G37*
G36*
X146602600Y-93243100D02*
G01*
X144500600Y-93243100D01*
X144500600Y-91236100D01*
X146602600Y-91236100D01*
X146602600Y-93243100D01*
G37*
G36*
X204126312Y-90848727D02*
G01*
X204275612Y-90878424D01*
X204439584Y-90946344D01*
X204587154Y-91044947D01*
X204712653Y-91170446D01*
X204811256Y-91318016D01*
X204879176Y-91481988D01*
X204913800Y-91656059D01*
X204913800Y-91833541D01*
X204879176Y-92007612D01*
X204811256Y-92171584D01*
X204712653Y-92319154D01*
X204587154Y-92444653D01*
X204439584Y-92543256D01*
X204275612Y-92611176D01*
X204126312Y-92640873D01*
X204101542Y-92645800D01*
X203924058Y-92645800D01*
X203899288Y-92640873D01*
X203749988Y-92611176D01*
X203586016Y-92543256D01*
X203438446Y-92444653D01*
X203312947Y-92319154D01*
X203214344Y-92171584D01*
X203146424Y-92007612D01*
X203111800Y-91833541D01*
X203111800Y-91656059D01*
X203146424Y-91481988D01*
X203214344Y-91318016D01*
X203312947Y-91170446D01*
X203438446Y-91044947D01*
X203586016Y-90946344D01*
X203749988Y-90878424D01*
X203899288Y-90848727D01*
X203924058Y-90843800D01*
X204101542Y-90843800D01*
X204126312Y-90848727D01*
G37*
G36*
X197170926Y-90259811D02*
G01*
X197336934Y-90292832D01*
X197546403Y-90379597D01*
X197734920Y-90505560D01*
X197895240Y-90665880D01*
X198017052Y-90848185D01*
X198021204Y-90854399D01*
X198027145Y-90868742D01*
X198107968Y-91063866D01*
X198124312Y-91146032D01*
X198152200Y-91286235D01*
X198152200Y-91512965D01*
X198150983Y-91519081D01*
X198107968Y-91735334D01*
X198021203Y-91944803D01*
X197895240Y-92133320D01*
X197734920Y-92293640D01*
X197546403Y-92419603D01*
X197336934Y-92506368D01*
X197260639Y-92521544D01*
X197114565Y-92550600D01*
X196887835Y-92550600D01*
X196741761Y-92521544D01*
X196665466Y-92506368D01*
X196455997Y-92419603D01*
X196267480Y-92293640D01*
X196107160Y-92133320D01*
X195981197Y-91944803D01*
X195894432Y-91735334D01*
X195851417Y-91519081D01*
X195850200Y-91512965D01*
X195850200Y-91286235D01*
X195878088Y-91146032D01*
X195894432Y-91063866D01*
X195975255Y-90868742D01*
X195981196Y-90854399D01*
X195985348Y-90848185D01*
X196107160Y-90665880D01*
X196267480Y-90505560D01*
X196455997Y-90379597D01*
X196665466Y-90292832D01*
X196831474Y-90259811D01*
X196887835Y-90248600D01*
X197114565Y-90248600D01*
X197170926Y-90259811D01*
G37*
G36*
X130488628Y-90113703D02*
G01*
X130643500Y-90177853D01*
X130782881Y-90270985D01*
X130901415Y-90389519D01*
X130994547Y-90528900D01*
X131058697Y-90683772D01*
X131091400Y-90848184D01*
X131091400Y-91015816D01*
X131058697Y-91180228D01*
X130994547Y-91335100D01*
X130901415Y-91474481D01*
X130782881Y-91593015D01*
X130643500Y-91686147D01*
X130488628Y-91750297D01*
X130324216Y-91783000D01*
X130156584Y-91783000D01*
X129992172Y-91750297D01*
X129837300Y-91686147D01*
X129697919Y-91593015D01*
X129579385Y-91474481D01*
X129486253Y-91335100D01*
X129422103Y-91180228D01*
X129389400Y-91015816D01*
X129389400Y-90848184D01*
X129422103Y-90683772D01*
X129486253Y-90528900D01*
X129579385Y-90389519D01*
X129697919Y-90270985D01*
X129837300Y-90177853D01*
X129992172Y-90113703D01*
X130156584Y-90081000D01*
X130324216Y-90081000D01*
X130488628Y-90113703D01*
G37*
G36*
X132988628Y-90113703D02*
G01*
X133143500Y-90177853D01*
X133282881Y-90270985D01*
X133401415Y-90389519D01*
X133494547Y-90528900D01*
X133558697Y-90683772D01*
X133591400Y-90848184D01*
X133591400Y-91015816D01*
X133558697Y-91180228D01*
X133494547Y-91335100D01*
X133401415Y-91474481D01*
X133282881Y-91593015D01*
X133143500Y-91686147D01*
X132988628Y-91750297D01*
X132824216Y-91783000D01*
X132656584Y-91783000D01*
X132492172Y-91750297D01*
X132337300Y-91686147D01*
X132197919Y-91593015D01*
X132079385Y-91474481D01*
X131986253Y-91335100D01*
X131922103Y-91180228D01*
X131889400Y-91015816D01*
X131889400Y-90848184D01*
X131922103Y-90683772D01*
X131986253Y-90528900D01*
X132079385Y-90389519D01*
X132197919Y-90270985D01*
X132337300Y-90177853D01*
X132492172Y-90113703D01*
X132656584Y-90081000D01*
X132824216Y-90081000D01*
X132988628Y-90113703D01*
G37*
G36*
X59853512Y-89883927D02*
G01*
X60002812Y-89913624D01*
X60166784Y-89981544D01*
X60314354Y-90080147D01*
X60439853Y-90205646D01*
X60538456Y-90353216D01*
X60606376Y-90517188D01*
X60641000Y-90691259D01*
X60641000Y-90868741D01*
X60606376Y-91042812D01*
X60538456Y-91206784D01*
X60439853Y-91354354D01*
X60314354Y-91479853D01*
X60166784Y-91578456D01*
X60002812Y-91646376D01*
X59853512Y-91676073D01*
X59828742Y-91681000D01*
X59651258Y-91681000D01*
X59626488Y-91676073D01*
X59477188Y-91646376D01*
X59313216Y-91578456D01*
X59165646Y-91479853D01*
X59040147Y-91354354D01*
X58941544Y-91206784D01*
X58873624Y-91042812D01*
X58839000Y-90868741D01*
X58839000Y-90691259D01*
X58873624Y-90517188D01*
X58941544Y-90353216D01*
X59040147Y-90205646D01*
X59165646Y-90080147D01*
X59313216Y-89981544D01*
X59477188Y-89913624D01*
X59626488Y-89883927D01*
X59651258Y-89879000D01*
X59828742Y-89879000D01*
X59853512Y-89883927D01*
G37*
G36*
X57313512Y-89883927D02*
G01*
X57462812Y-89913624D01*
X57626784Y-89981544D01*
X57774354Y-90080147D01*
X57899853Y-90205646D01*
X57998456Y-90353216D01*
X58066376Y-90517188D01*
X58101000Y-90691259D01*
X58101000Y-90868741D01*
X58066376Y-91042812D01*
X57998456Y-91206784D01*
X57899853Y-91354354D01*
X57774354Y-91479853D01*
X57626784Y-91578456D01*
X57462812Y-91646376D01*
X57313512Y-91676073D01*
X57288742Y-91681000D01*
X57111258Y-91681000D01*
X57086488Y-91676073D01*
X56937188Y-91646376D01*
X56773216Y-91578456D01*
X56625646Y-91479853D01*
X56500147Y-91354354D01*
X56401544Y-91206784D01*
X56333624Y-91042812D01*
X56299000Y-90868741D01*
X56299000Y-90691259D01*
X56333624Y-90517188D01*
X56401544Y-90353216D01*
X56500147Y-90205646D01*
X56625646Y-90080147D01*
X56773216Y-89981544D01*
X56937188Y-89913624D01*
X57086488Y-89883927D01*
X57111258Y-89879000D01*
X57288742Y-89879000D01*
X57313512Y-89883927D01*
G37*
G36*
X145697536Y-88700940D02*
G01*
X145795820Y-88710620D01*
X145984981Y-88768001D01*
X146159312Y-88861183D01*
X146312115Y-88986585D01*
X146437517Y-89139388D01*
X146530699Y-89313719D01*
X146588080Y-89502880D01*
X146607455Y-89699600D01*
X146588080Y-89896320D01*
X146530699Y-90085481D01*
X146437517Y-90259812D01*
X146312115Y-90412615D01*
X146159312Y-90538017D01*
X145984981Y-90631199D01*
X145795820Y-90688580D01*
X145697536Y-90698260D01*
X145648395Y-90703100D01*
X145454805Y-90703100D01*
X145405664Y-90698260D01*
X145307380Y-90688580D01*
X145118219Y-90631199D01*
X144943888Y-90538017D01*
X144791085Y-90412615D01*
X144665683Y-90259812D01*
X144572501Y-90085481D01*
X144515120Y-89896320D01*
X144495745Y-89699600D01*
X144515120Y-89502880D01*
X144572501Y-89313719D01*
X144665683Y-89139388D01*
X144791085Y-88986585D01*
X144943888Y-88861183D01*
X145118219Y-88768001D01*
X145307380Y-88710620D01*
X145405664Y-88700940D01*
X145454805Y-88696100D01*
X145648395Y-88696100D01*
X145697536Y-88700940D01*
G37*
G36*
X204913800Y-90105800D02*
G01*
X203111800Y-90105800D01*
X203111800Y-88303800D01*
X204913800Y-88303800D01*
X204913800Y-90105800D01*
G37*
G36*
X167866103Y-86036675D02*
G01*
X168093771Y-86130978D01*
X168298666Y-86267885D01*
X168472915Y-86442134D01*
X168609822Y-86647029D01*
X168704125Y-86874697D01*
X168752200Y-87116387D01*
X168752200Y-87362813D01*
X168704125Y-87604503D01*
X168609822Y-87832171D01*
X168472915Y-88037066D01*
X168298666Y-88211315D01*
X168093771Y-88348222D01*
X168093770Y-88348223D01*
X168093769Y-88348223D01*
X167866103Y-88442525D01*
X167624414Y-88490600D01*
X167377986Y-88490600D01*
X167136297Y-88442525D01*
X166908631Y-88348223D01*
X166908630Y-88348223D01*
X166908629Y-88348222D01*
X166703734Y-88211315D01*
X166529485Y-88037066D01*
X166392578Y-87832171D01*
X166298275Y-87604503D01*
X166250200Y-87362813D01*
X166250200Y-87116387D01*
X166298275Y-86874697D01*
X166392578Y-86647029D01*
X166529485Y-86442134D01*
X166703734Y-86267885D01*
X166908629Y-86130978D01*
X167136297Y-86036675D01*
X167377986Y-85988600D01*
X167624414Y-85988600D01*
X167866103Y-86036675D01*
G37*
G36*
X187864903Y-86036675D02*
G01*
X188092571Y-86130978D01*
X188297466Y-86267885D01*
X188471715Y-86442134D01*
X188608622Y-86647029D01*
X188702925Y-86874697D01*
X188751000Y-87116387D01*
X188751000Y-87362813D01*
X188702925Y-87604503D01*
X188608622Y-87832171D01*
X188471715Y-88037066D01*
X188297466Y-88211315D01*
X188092571Y-88348222D01*
X188092570Y-88348223D01*
X188092569Y-88348223D01*
X187864903Y-88442525D01*
X187623214Y-88490600D01*
X187376786Y-88490600D01*
X187135097Y-88442525D01*
X186907431Y-88348223D01*
X186907430Y-88348223D01*
X186907429Y-88348222D01*
X186702534Y-88211315D01*
X186528285Y-88037066D01*
X186391378Y-87832171D01*
X186297075Y-87604503D01*
X186249000Y-87362813D01*
X186249000Y-87116387D01*
X186297075Y-86874697D01*
X186391378Y-86647029D01*
X186528285Y-86442134D01*
X186702534Y-86267885D01*
X186907429Y-86130978D01*
X187135097Y-86036675D01*
X187376786Y-85988600D01*
X187623214Y-85988600D01*
X187864903Y-86036675D01*
G37*
G36*
X181251000Y-88490600D02*
G01*
X178749000Y-88490600D01*
X178749000Y-85988600D01*
X181251000Y-85988600D01*
X181251000Y-88490600D01*
G37*
G36*
X161252200Y-88490600D02*
G01*
X158750200Y-88490600D01*
X158750200Y-85988600D01*
X161252200Y-85988600D01*
X161252200Y-88490600D01*
G37*
G36*
X145697536Y-86160940D02*
G01*
X145795820Y-86170620D01*
X145984981Y-86228001D01*
X146159312Y-86321183D01*
X146312115Y-86446585D01*
X146437517Y-86599388D01*
X146530699Y-86773719D01*
X146588080Y-86962880D01*
X146607455Y-87159600D01*
X146588080Y-87356320D01*
X146530699Y-87545481D01*
X146437517Y-87719812D01*
X146312115Y-87872615D01*
X146159312Y-87998017D01*
X145984981Y-88091199D01*
X145795820Y-88148580D01*
X145697536Y-88158260D01*
X145648395Y-88163100D01*
X145454805Y-88163100D01*
X145405664Y-88158260D01*
X145307380Y-88148580D01*
X145118219Y-88091199D01*
X144943888Y-87998017D01*
X144791085Y-87872615D01*
X144665683Y-87719812D01*
X144572501Y-87545481D01*
X144515120Y-87356320D01*
X144495745Y-87159600D01*
X144515120Y-86962880D01*
X144572501Y-86773719D01*
X144665683Y-86599388D01*
X144791085Y-86446585D01*
X144943888Y-86321183D01*
X145118219Y-86228001D01*
X145307380Y-86170620D01*
X145405664Y-86160940D01*
X145454805Y-86156100D01*
X145648395Y-86156100D01*
X145697536Y-86160940D01*
G37*
G36*
X204075512Y-83533527D02*
G01*
X204224812Y-83563224D01*
X204388784Y-83631144D01*
X204536354Y-83729747D01*
X204661853Y-83855246D01*
X204760456Y-84002816D01*
X204828376Y-84166788D01*
X204863000Y-84340859D01*
X204863000Y-84518341D01*
X204828376Y-84692412D01*
X204760456Y-84856384D01*
X204661853Y-85003954D01*
X204536354Y-85129453D01*
X204388784Y-85228056D01*
X204224812Y-85295976D01*
X204075512Y-85325673D01*
X204050742Y-85330600D01*
X203873258Y-85330600D01*
X203848488Y-85325673D01*
X203699188Y-85295976D01*
X203535216Y-85228056D01*
X203387646Y-85129453D01*
X203262147Y-85003954D01*
X203163544Y-84856384D01*
X203095624Y-84692412D01*
X203061000Y-84518341D01*
X203061000Y-84340859D01*
X203095624Y-84166788D01*
X203163544Y-84002816D01*
X203262147Y-83855246D01*
X203387646Y-83729747D01*
X203535216Y-83631144D01*
X203699188Y-83563224D01*
X203848488Y-83533527D01*
X203873258Y-83528600D01*
X204050742Y-83528600D01*
X204075512Y-83533527D01*
G37*
G36*
X132893428Y-83167303D02*
G01*
X133048300Y-83231453D01*
X133187681Y-83324585D01*
X133306215Y-83443119D01*
X133399347Y-83582500D01*
X133463497Y-83737372D01*
X133496200Y-83901784D01*
X133496200Y-84069416D01*
X133463497Y-84233828D01*
X133399347Y-84388700D01*
X133306215Y-84528081D01*
X133187681Y-84646615D01*
X133048300Y-84739747D01*
X132893428Y-84803897D01*
X132729016Y-84836600D01*
X132561384Y-84836600D01*
X132396972Y-84803897D01*
X132242100Y-84739747D01*
X132102719Y-84646615D01*
X131984185Y-84528081D01*
X131891053Y-84388700D01*
X131826903Y-84233828D01*
X131794200Y-84069416D01*
X131794200Y-83901784D01*
X131826903Y-83737372D01*
X131891053Y-83582500D01*
X131984185Y-83443119D01*
X132102719Y-83324585D01*
X132242100Y-83231453D01*
X132396972Y-83167303D01*
X132561384Y-83134600D01*
X132729016Y-83134600D01*
X132893428Y-83167303D01*
G37*
G36*
X130393428Y-83167303D02*
G01*
X130548300Y-83231453D01*
X130687681Y-83324585D01*
X130806215Y-83443119D01*
X130899347Y-83582500D01*
X130963497Y-83737372D01*
X130996200Y-83901784D01*
X130996200Y-84069416D01*
X130963497Y-84233828D01*
X130899347Y-84388700D01*
X130806215Y-84528081D01*
X130687681Y-84646615D01*
X130548300Y-84739747D01*
X130393428Y-84803897D01*
X130229016Y-84836600D01*
X130061384Y-84836600D01*
X129896972Y-84803897D01*
X129742100Y-84739747D01*
X129602719Y-84646615D01*
X129484185Y-84528081D01*
X129391053Y-84388700D01*
X129326903Y-84233828D01*
X129294200Y-84069416D01*
X129294200Y-83901784D01*
X129326903Y-83737372D01*
X129391053Y-83582500D01*
X129484185Y-83443119D01*
X129602719Y-83324585D01*
X129742100Y-83231453D01*
X129896972Y-83167303D01*
X130061384Y-83134600D01*
X130229016Y-83134600D01*
X130393428Y-83167303D01*
G37*
G36*
X115603400Y-83243800D02*
G01*
X113301400Y-83243800D01*
X113301400Y-80941800D01*
X115603400Y-80941800D01*
X115603400Y-83243800D01*
G37*
G36*
X119731325Y-80941800D02*
G01*
X119887334Y-80972832D01*
X120096803Y-81059597D01*
X120285320Y-81185560D01*
X120445640Y-81345880D01*
X120571603Y-81534397D01*
X120641197Y-81702411D01*
X120658368Y-81743867D01*
X120702600Y-81966235D01*
X120702600Y-82192965D01*
X120696660Y-82222826D01*
X120658368Y-82415334D01*
X120571603Y-82624803D01*
X120445640Y-82813320D01*
X120285320Y-82973640D01*
X120096803Y-83099603D01*
X119887334Y-83186368D01*
X119776149Y-83208484D01*
X119664965Y-83230600D01*
X119438235Y-83230600D01*
X119327051Y-83208484D01*
X119215866Y-83186368D01*
X119006397Y-83099603D01*
X118817880Y-82973640D01*
X118657560Y-82813320D01*
X118531597Y-82624803D01*
X118444832Y-82415334D01*
X118406540Y-82222826D01*
X118400600Y-82192965D01*
X118400600Y-81966235D01*
X118444832Y-81743867D01*
X118462004Y-81702411D01*
X118531597Y-81534397D01*
X118657560Y-81345880D01*
X118817880Y-81185560D01*
X119006397Y-81059597D01*
X119215866Y-80972832D01*
X119371875Y-80941800D01*
X119438235Y-80928600D01*
X119664965Y-80928600D01*
X119731325Y-80941800D01*
G37*
G36*
X204863000Y-82790600D02*
G01*
X203061000Y-82790600D01*
X203061000Y-80988600D01*
X204863000Y-80988600D01*
X204863000Y-82790600D01*
G37*
G36*
X69758600Y-80702989D02*
G01*
X69791652Y-80713015D01*
X69822103Y-80729292D01*
X69848799Y-80751201D01*
X69870708Y-80777897D01*
X69886985Y-80808348D01*
X69897011Y-80841400D01*
X69901000Y-80881903D01*
X69901000Y-82318097D01*
X69897011Y-82358600D01*
X69886985Y-82391652D01*
X69870708Y-82422103D01*
X69848799Y-82448799D01*
X69822103Y-82470708D01*
X69791652Y-82486985D01*
X69758600Y-82497011D01*
X69718097Y-82501000D01*
X68281903Y-82501000D01*
X68241400Y-82497011D01*
X68208348Y-82486985D01*
X68177897Y-82470708D01*
X68151201Y-82448799D01*
X68129292Y-82422103D01*
X68113015Y-82391652D01*
X68102989Y-82358600D01*
X68099000Y-82318097D01*
X68099000Y-80881903D01*
X68102989Y-80841400D01*
X68113015Y-80808348D01*
X68129292Y-80777897D01*
X68151201Y-80751201D01*
X68177897Y-80729292D01*
X68208348Y-80713015D01*
X68241400Y-80702989D01*
X68281903Y-80699000D01*
X69718097Y-80699000D01*
X69758600Y-80702989D01*
G37*
G36*
X90364774Y-80702189D02*
G01*
X90522812Y-80733624D01*
X90686784Y-80801544D01*
X90834354Y-80900147D01*
X90959853Y-81025646D01*
X91058456Y-81173216D01*
X91126376Y-81337188D01*
X91161000Y-81511259D01*
X91161000Y-81688741D01*
X91126376Y-81862812D01*
X91058456Y-82026784D01*
X90959853Y-82174354D01*
X90834354Y-82299853D01*
X90686784Y-82398456D01*
X90522812Y-82466376D01*
X90374341Y-82495908D01*
X90348742Y-82501000D01*
X90171258Y-82501000D01*
X90145659Y-82495908D01*
X89997188Y-82466376D01*
X89833216Y-82398456D01*
X89685646Y-82299853D01*
X89560147Y-82174354D01*
X89461544Y-82026784D01*
X89393624Y-81862812D01*
X89359000Y-81688741D01*
X89359000Y-81511259D01*
X89393624Y-81337188D01*
X89461544Y-81173216D01*
X89560147Y-81025646D01*
X89685646Y-80900147D01*
X89833216Y-80801544D01*
X89997188Y-80733624D01*
X90155226Y-80702189D01*
X90171258Y-80699000D01*
X90348742Y-80699000D01*
X90364774Y-80702189D01*
G37*
G36*
X81558600Y-80702989D02*
G01*
X81591652Y-80713015D01*
X81622103Y-80729292D01*
X81648799Y-80751201D01*
X81670708Y-80777897D01*
X81686985Y-80808348D01*
X81697011Y-80841400D01*
X81701000Y-80881903D01*
X81701000Y-82318097D01*
X81697011Y-82358600D01*
X81686985Y-82391652D01*
X81670708Y-82422103D01*
X81648799Y-82448799D01*
X81622103Y-82470708D01*
X81591652Y-82486985D01*
X81558600Y-82497011D01*
X81518097Y-82501000D01*
X80081903Y-82501000D01*
X80041400Y-82497011D01*
X80008348Y-82486985D01*
X79977897Y-82470708D01*
X79951201Y-82448799D01*
X79929292Y-82422103D01*
X79913015Y-82391652D01*
X79902989Y-82358600D01*
X79899000Y-82318097D01*
X79899000Y-80881903D01*
X79902989Y-80841400D01*
X79913015Y-80808348D01*
X79929292Y-80777897D01*
X79951201Y-80751201D01*
X79977897Y-80729292D01*
X80008348Y-80713015D01*
X80041400Y-80702989D01*
X80081903Y-80699000D01*
X81518097Y-80699000D01*
X81558600Y-80702989D01*
G37*
G36*
X78364774Y-80702189D02*
G01*
X78522812Y-80733624D01*
X78686784Y-80801544D01*
X78834354Y-80900147D01*
X78959853Y-81025646D01*
X79058456Y-81173216D01*
X79126376Y-81337188D01*
X79161000Y-81511259D01*
X79161000Y-81688741D01*
X79126376Y-81862812D01*
X79058456Y-82026784D01*
X78959853Y-82174354D01*
X78834354Y-82299853D01*
X78686784Y-82398456D01*
X78522812Y-82466376D01*
X78374341Y-82495908D01*
X78348742Y-82501000D01*
X78171258Y-82501000D01*
X78145659Y-82495908D01*
X77997188Y-82466376D01*
X77833216Y-82398456D01*
X77685646Y-82299853D01*
X77560147Y-82174354D01*
X77461544Y-82026784D01*
X77393624Y-81862812D01*
X77359000Y-81688741D01*
X77359000Y-81511259D01*
X77393624Y-81337188D01*
X77461544Y-81173216D01*
X77560147Y-81025646D01*
X77685646Y-80900147D01*
X77833216Y-80801544D01*
X77997188Y-80733624D01*
X78155226Y-80702189D01*
X78171258Y-80699000D01*
X78348742Y-80699000D01*
X78364774Y-80702189D01*
G37*
G36*
X66564774Y-80702189D02*
G01*
X66722812Y-80733624D01*
X66886784Y-80801544D01*
X67034354Y-80900147D01*
X67159853Y-81025646D01*
X67258456Y-81173216D01*
X67326376Y-81337188D01*
X67361000Y-81511259D01*
X67361000Y-81688741D01*
X67326376Y-81862812D01*
X67258456Y-82026784D01*
X67159853Y-82174354D01*
X67034354Y-82299853D01*
X66886784Y-82398456D01*
X66722812Y-82466376D01*
X66574341Y-82495908D01*
X66548742Y-82501000D01*
X66371258Y-82501000D01*
X66345659Y-82495908D01*
X66197188Y-82466376D01*
X66033216Y-82398456D01*
X65885646Y-82299853D01*
X65760147Y-82174354D01*
X65661544Y-82026784D01*
X65593624Y-81862812D01*
X65559000Y-81688741D01*
X65559000Y-81511259D01*
X65593624Y-81337188D01*
X65661544Y-81173216D01*
X65760147Y-81025646D01*
X65885646Y-80900147D01*
X66033216Y-80801544D01*
X66197188Y-80733624D01*
X66355226Y-80702189D01*
X66371258Y-80699000D01*
X66548742Y-80699000D01*
X66564774Y-80702189D01*
G37*
G36*
X60301000Y-82501000D02*
G01*
X58499000Y-82501000D01*
X58499000Y-80699000D01*
X60301000Y-80699000D01*
X60301000Y-82501000D01*
G37*
G36*
X56964774Y-80702189D02*
G01*
X57122812Y-80733624D01*
X57286784Y-80801544D01*
X57434354Y-80900147D01*
X57559853Y-81025646D01*
X57658456Y-81173216D01*
X57726376Y-81337188D01*
X57761000Y-81511259D01*
X57761000Y-81688741D01*
X57726376Y-81862812D01*
X57658456Y-82026784D01*
X57559853Y-82174354D01*
X57434354Y-82299853D01*
X57286784Y-82398456D01*
X57122812Y-82466376D01*
X56974341Y-82495908D01*
X56948742Y-82501000D01*
X56771258Y-82501000D01*
X56745659Y-82495908D01*
X56597188Y-82466376D01*
X56433216Y-82398456D01*
X56285646Y-82299853D01*
X56160147Y-82174354D01*
X56061544Y-82026784D01*
X55993624Y-81862812D01*
X55959000Y-81688741D01*
X55959000Y-81511259D01*
X55993624Y-81337188D01*
X56061544Y-81173216D01*
X56160147Y-81025646D01*
X56285646Y-80900147D01*
X56433216Y-80801544D01*
X56597188Y-80733624D01*
X56755226Y-80702189D01*
X56771258Y-80699000D01*
X56948742Y-80699000D01*
X56964774Y-80702189D01*
G37*
G36*
X93558600Y-80702989D02*
G01*
X93591652Y-80713015D01*
X93622103Y-80729292D01*
X93648799Y-80751201D01*
X93670708Y-80777897D01*
X93686985Y-80808348D01*
X93697011Y-80841400D01*
X93701000Y-80881903D01*
X93701000Y-82318097D01*
X93697011Y-82358600D01*
X93686985Y-82391652D01*
X93670708Y-82422103D01*
X93648799Y-82448799D01*
X93622103Y-82470708D01*
X93591652Y-82486985D01*
X93558600Y-82497011D01*
X93518097Y-82501000D01*
X92081903Y-82501000D01*
X92041400Y-82497011D01*
X92008348Y-82486985D01*
X91977897Y-82470708D01*
X91951201Y-82448799D01*
X91929292Y-82422103D01*
X91913015Y-82391652D01*
X91902989Y-82358600D01*
X91899000Y-82318097D01*
X91899000Y-80881903D01*
X91902989Y-80841400D01*
X91913015Y-80808348D01*
X91929292Y-80777897D01*
X91951201Y-80751201D01*
X91977897Y-80729292D01*
X92008348Y-80713015D01*
X92041400Y-80702989D01*
X92081903Y-80699000D01*
X93518097Y-80699000D01*
X93558600Y-80702989D01*
G37*
G36*
X198152200Y-82390600D02*
G01*
X195850200Y-82390600D01*
X195850200Y-80088600D01*
X198152200Y-80088600D01*
X198152200Y-82390600D01*
G37*
G36*
X102520396Y-80542589D02*
G01*
X102674412Y-80573224D01*
X102838384Y-80641144D01*
X102985954Y-80739747D01*
X103111453Y-80865246D01*
X103210056Y-81012816D01*
X103277976Y-81176788D01*
X103307673Y-81326088D01*
X103312600Y-81350858D01*
X103312600Y-81528342D01*
X103311395Y-81534399D01*
X103277976Y-81702412D01*
X103210056Y-81866384D01*
X103111453Y-82013954D01*
X102985954Y-82139453D01*
X102838384Y-82238056D01*
X102674412Y-82305976D01*
X102525941Y-82335508D01*
X102500342Y-82340600D01*
X102322858Y-82340600D01*
X102297259Y-82335508D01*
X102148788Y-82305976D01*
X101984816Y-82238056D01*
X101837246Y-82139453D01*
X101711747Y-82013954D01*
X101613144Y-81866384D01*
X101545224Y-81702412D01*
X101511805Y-81534399D01*
X101510600Y-81528342D01*
X101510600Y-81350858D01*
X101515527Y-81326088D01*
X101545224Y-81176788D01*
X101613144Y-81012816D01*
X101711747Y-80865246D01*
X101837246Y-80739747D01*
X101984816Y-80641144D01*
X102148788Y-80573224D01*
X102302804Y-80542589D01*
X102322858Y-80538600D01*
X102500342Y-80538600D01*
X102520396Y-80542589D01*
G37*
G36*
X105710200Y-80542589D02*
G01*
X105743252Y-80552615D01*
X105773703Y-80568892D01*
X105800399Y-80590801D01*
X105822308Y-80617497D01*
X105838585Y-80647948D01*
X105848611Y-80681000D01*
X105852600Y-80721503D01*
X105852600Y-82157697D01*
X105848611Y-82198200D01*
X105838585Y-82231252D01*
X105822308Y-82261703D01*
X105800399Y-82288399D01*
X105773703Y-82310308D01*
X105743252Y-82326585D01*
X105710200Y-82336611D01*
X105669697Y-82340600D01*
X104233503Y-82340600D01*
X104193000Y-82336611D01*
X104159948Y-82326585D01*
X104129497Y-82310308D01*
X104102801Y-82288399D01*
X104080892Y-82261703D01*
X104064615Y-82231252D01*
X104054589Y-82198200D01*
X104050600Y-82157697D01*
X104050600Y-80721503D01*
X104054589Y-80681000D01*
X104064615Y-80647948D01*
X104080892Y-80617497D01*
X104102801Y-80590801D01*
X104129497Y-80568892D01*
X104159948Y-80552615D01*
X104193000Y-80542589D01*
X104233503Y-80538600D01*
X105669697Y-80538600D01*
X105710200Y-80542589D01*
G37*
G36*
X80913512Y-78163927D02*
G01*
X81062812Y-78193624D01*
X81226784Y-78261544D01*
X81374354Y-78360147D01*
X81499853Y-78485646D01*
X81598456Y-78633216D01*
X81666376Y-78797188D01*
X81701000Y-78971259D01*
X81701000Y-79148741D01*
X81666376Y-79322812D01*
X81598456Y-79486784D01*
X81499853Y-79634354D01*
X81374354Y-79759853D01*
X81226784Y-79858456D01*
X81062812Y-79926376D01*
X80913512Y-79956073D01*
X80888742Y-79961000D01*
X80711258Y-79961000D01*
X80686488Y-79956073D01*
X80537188Y-79926376D01*
X80373216Y-79858456D01*
X80225646Y-79759853D01*
X80100147Y-79634354D01*
X80001544Y-79486784D01*
X79933624Y-79322812D01*
X79899000Y-79148741D01*
X79899000Y-78971259D01*
X79933624Y-78797188D01*
X80001544Y-78633216D01*
X80100147Y-78485646D01*
X80225646Y-78360147D01*
X80373216Y-78261544D01*
X80537188Y-78193624D01*
X80686488Y-78163927D01*
X80711258Y-78159000D01*
X80888742Y-78159000D01*
X80913512Y-78163927D01*
G37*
G36*
X56973512Y-78163927D02*
G01*
X57122812Y-78193624D01*
X57286784Y-78261544D01*
X57434354Y-78360147D01*
X57559853Y-78485646D01*
X57658456Y-78633216D01*
X57726376Y-78797188D01*
X57761000Y-78971259D01*
X57761000Y-79148741D01*
X57726376Y-79322812D01*
X57658456Y-79486784D01*
X57559853Y-79634354D01*
X57434354Y-79759853D01*
X57286784Y-79858456D01*
X57122812Y-79926376D01*
X56973512Y-79956073D01*
X56948742Y-79961000D01*
X56771258Y-79961000D01*
X56746488Y-79956073D01*
X56597188Y-79926376D01*
X56433216Y-79858456D01*
X56285646Y-79759853D01*
X56160147Y-79634354D01*
X56061544Y-79486784D01*
X55993624Y-79322812D01*
X55959000Y-79148741D01*
X55959000Y-78971259D01*
X55993624Y-78797188D01*
X56061544Y-78633216D01*
X56160147Y-78485646D01*
X56285646Y-78360147D01*
X56433216Y-78261544D01*
X56597188Y-78193624D01*
X56746488Y-78163927D01*
X56771258Y-78159000D01*
X56948742Y-78159000D01*
X56973512Y-78163927D01*
G37*
G36*
X90373512Y-78163927D02*
G01*
X90522812Y-78193624D01*
X90686784Y-78261544D01*
X90834354Y-78360147D01*
X90959853Y-78485646D01*
X91058456Y-78633216D01*
X91126376Y-78797188D01*
X91161000Y-78971259D01*
X91161000Y-79148741D01*
X91126376Y-79322812D01*
X91058456Y-79486784D01*
X90959853Y-79634354D01*
X90834354Y-79759853D01*
X90686784Y-79858456D01*
X90522812Y-79926376D01*
X90373512Y-79956073D01*
X90348742Y-79961000D01*
X90171258Y-79961000D01*
X90146488Y-79956073D01*
X89997188Y-79926376D01*
X89833216Y-79858456D01*
X89685646Y-79759853D01*
X89560147Y-79634354D01*
X89461544Y-79486784D01*
X89393624Y-79322812D01*
X89359000Y-79148741D01*
X89359000Y-78971259D01*
X89393624Y-78797188D01*
X89461544Y-78633216D01*
X89560147Y-78485646D01*
X89685646Y-78360147D01*
X89833216Y-78261544D01*
X89997188Y-78193624D01*
X90146488Y-78163927D01*
X90171258Y-78159000D01*
X90348742Y-78159000D01*
X90373512Y-78163927D01*
G37*
G36*
X59513512Y-78163927D02*
G01*
X59662812Y-78193624D01*
X59826784Y-78261544D01*
X59974354Y-78360147D01*
X60099853Y-78485646D01*
X60198456Y-78633216D01*
X60266376Y-78797188D01*
X60301000Y-78971259D01*
X60301000Y-79148741D01*
X60266376Y-79322812D01*
X60198456Y-79486784D01*
X60099853Y-79634354D01*
X59974354Y-79759853D01*
X59826784Y-79858456D01*
X59662812Y-79926376D01*
X59513512Y-79956073D01*
X59488742Y-79961000D01*
X59311258Y-79961000D01*
X59286488Y-79956073D01*
X59137188Y-79926376D01*
X58973216Y-79858456D01*
X58825646Y-79759853D01*
X58700147Y-79634354D01*
X58601544Y-79486784D01*
X58533624Y-79322812D01*
X58499000Y-79148741D01*
X58499000Y-78971259D01*
X58533624Y-78797188D01*
X58601544Y-78633216D01*
X58700147Y-78485646D01*
X58825646Y-78360147D01*
X58973216Y-78261544D01*
X59137188Y-78193624D01*
X59286488Y-78163927D01*
X59311258Y-78159000D01*
X59488742Y-78159000D01*
X59513512Y-78163927D01*
G37*
G36*
X92913512Y-78163927D02*
G01*
X93062812Y-78193624D01*
X93226784Y-78261544D01*
X93374354Y-78360147D01*
X93499853Y-78485646D01*
X93598456Y-78633216D01*
X93666376Y-78797188D01*
X93701000Y-78971259D01*
X93701000Y-79148741D01*
X93666376Y-79322812D01*
X93598456Y-79486784D01*
X93499853Y-79634354D01*
X93374354Y-79759853D01*
X93226784Y-79858456D01*
X93062812Y-79926376D01*
X92913512Y-79956073D01*
X92888742Y-79961000D01*
X92711258Y-79961000D01*
X92686488Y-79956073D01*
X92537188Y-79926376D01*
X92373216Y-79858456D01*
X92225646Y-79759853D01*
X92100147Y-79634354D01*
X92001544Y-79486784D01*
X91933624Y-79322812D01*
X91899000Y-79148741D01*
X91899000Y-78971259D01*
X91933624Y-78797188D01*
X92001544Y-78633216D01*
X92100147Y-78485646D01*
X92225646Y-78360147D01*
X92373216Y-78261544D01*
X92537188Y-78193624D01*
X92686488Y-78163927D01*
X92711258Y-78159000D01*
X92888742Y-78159000D01*
X92913512Y-78163927D01*
G37*
G36*
X69113512Y-78163927D02*
G01*
X69262812Y-78193624D01*
X69426784Y-78261544D01*
X69574354Y-78360147D01*
X69699853Y-78485646D01*
X69798456Y-78633216D01*
X69866376Y-78797188D01*
X69901000Y-78971259D01*
X69901000Y-79148741D01*
X69866376Y-79322812D01*
X69798456Y-79486784D01*
X69699853Y-79634354D01*
X69574354Y-79759853D01*
X69426784Y-79858456D01*
X69262812Y-79926376D01*
X69113512Y-79956073D01*
X69088742Y-79961000D01*
X68911258Y-79961000D01*
X68886488Y-79956073D01*
X68737188Y-79926376D01*
X68573216Y-79858456D01*
X68425646Y-79759853D01*
X68300147Y-79634354D01*
X68201544Y-79486784D01*
X68133624Y-79322812D01*
X68099000Y-79148741D01*
X68099000Y-78971259D01*
X68133624Y-78797188D01*
X68201544Y-78633216D01*
X68300147Y-78485646D01*
X68425646Y-78360147D01*
X68573216Y-78261544D01*
X68737188Y-78193624D01*
X68886488Y-78163927D01*
X68911258Y-78159000D01*
X69088742Y-78159000D01*
X69113512Y-78163927D01*
G37*
G36*
X66573512Y-78163927D02*
G01*
X66722812Y-78193624D01*
X66886784Y-78261544D01*
X67034354Y-78360147D01*
X67159853Y-78485646D01*
X67258456Y-78633216D01*
X67326376Y-78797188D01*
X67361000Y-78971259D01*
X67361000Y-79148741D01*
X67326376Y-79322812D01*
X67258456Y-79486784D01*
X67159853Y-79634354D01*
X67034354Y-79759853D01*
X66886784Y-79858456D01*
X66722812Y-79926376D01*
X66573512Y-79956073D01*
X66548742Y-79961000D01*
X66371258Y-79961000D01*
X66346488Y-79956073D01*
X66197188Y-79926376D01*
X66033216Y-79858456D01*
X65885646Y-79759853D01*
X65760147Y-79634354D01*
X65661544Y-79486784D01*
X65593624Y-79322812D01*
X65559000Y-79148741D01*
X65559000Y-78971259D01*
X65593624Y-78797188D01*
X65661544Y-78633216D01*
X65760147Y-78485646D01*
X65885646Y-78360147D01*
X66033216Y-78261544D01*
X66197188Y-78193624D01*
X66346488Y-78163927D01*
X66371258Y-78159000D01*
X66548742Y-78159000D01*
X66573512Y-78163927D01*
G37*
G36*
X78373512Y-78163927D02*
G01*
X78522812Y-78193624D01*
X78686784Y-78261544D01*
X78834354Y-78360147D01*
X78959853Y-78485646D01*
X79058456Y-78633216D01*
X79126376Y-78797188D01*
X79161000Y-78971259D01*
X79161000Y-79148741D01*
X79126376Y-79322812D01*
X79058456Y-79486784D01*
X78959853Y-79634354D01*
X78834354Y-79759853D01*
X78686784Y-79858456D01*
X78522812Y-79926376D01*
X78373512Y-79956073D01*
X78348742Y-79961000D01*
X78171258Y-79961000D01*
X78146488Y-79956073D01*
X77997188Y-79926376D01*
X77833216Y-79858456D01*
X77685646Y-79759853D01*
X77560147Y-79634354D01*
X77461544Y-79486784D01*
X77393624Y-79322812D01*
X77359000Y-79148741D01*
X77359000Y-78971259D01*
X77393624Y-78797188D01*
X77461544Y-78633216D01*
X77560147Y-78485646D01*
X77685646Y-78360147D01*
X77833216Y-78261544D01*
X77997188Y-78193624D01*
X78146488Y-78163927D01*
X78171258Y-78159000D01*
X78348742Y-78159000D01*
X78373512Y-78163927D01*
G37*
G36*
X102525112Y-78003527D02*
G01*
X102674412Y-78033224D01*
X102838384Y-78101144D01*
X102985954Y-78199747D01*
X103111453Y-78325246D01*
X103210056Y-78472816D01*
X103277976Y-78636788D01*
X103312600Y-78810859D01*
X103312600Y-78988341D01*
X103277976Y-79162412D01*
X103210056Y-79326384D01*
X103111453Y-79473954D01*
X102985954Y-79599453D01*
X102838384Y-79698056D01*
X102674412Y-79765976D01*
X102525112Y-79795673D01*
X102500342Y-79800600D01*
X102322858Y-79800600D01*
X102298088Y-79795673D01*
X102148788Y-79765976D01*
X101984816Y-79698056D01*
X101837246Y-79599453D01*
X101711747Y-79473954D01*
X101613144Y-79326384D01*
X101545224Y-79162412D01*
X101510600Y-78988341D01*
X101510600Y-78810859D01*
X101545224Y-78636788D01*
X101613144Y-78472816D01*
X101711747Y-78325246D01*
X101837246Y-78199747D01*
X101984816Y-78101144D01*
X102148788Y-78033224D01*
X102298088Y-78003527D01*
X102322858Y-77998600D01*
X102500342Y-77998600D01*
X102525112Y-78003527D01*
G37*
G36*
X105065112Y-78003527D02*
G01*
X105214412Y-78033224D01*
X105378384Y-78101144D01*
X105525954Y-78199747D01*
X105651453Y-78325246D01*
X105750056Y-78472816D01*
X105817976Y-78636788D01*
X105852600Y-78810859D01*
X105852600Y-78988341D01*
X105817976Y-79162412D01*
X105750056Y-79326384D01*
X105651453Y-79473954D01*
X105525954Y-79599453D01*
X105378384Y-79698056D01*
X105214412Y-79765976D01*
X105065112Y-79795673D01*
X105040342Y-79800600D01*
X104862858Y-79800600D01*
X104838088Y-79795673D01*
X104688788Y-79765976D01*
X104524816Y-79698056D01*
X104377246Y-79599453D01*
X104251747Y-79473954D01*
X104153144Y-79326384D01*
X104085224Y-79162412D01*
X104050600Y-78988341D01*
X104050600Y-78810859D01*
X104085224Y-78636788D01*
X104153144Y-78472816D01*
X104251747Y-78325246D01*
X104377246Y-78199747D01*
X104524816Y-78101144D01*
X104688788Y-78033224D01*
X104838088Y-78003527D01*
X104862858Y-77998600D01*
X105040342Y-77998600D01*
X105065112Y-78003527D01*
G37*
G36*
X119776149Y-77270716D02*
G01*
X119887334Y-77292832D01*
X120096803Y-77379597D01*
X120285320Y-77505560D01*
X120445640Y-77665880D01*
X120571603Y-77854397D01*
X120646234Y-78034571D01*
X120658368Y-78063867D01*
X120697689Y-78261544D01*
X120702600Y-78286236D01*
X120702600Y-78512964D01*
X120658368Y-78735334D01*
X120571603Y-78944803D01*
X120445640Y-79133320D01*
X120285320Y-79293640D01*
X120096803Y-79419603D01*
X119887334Y-79506368D01*
X119776149Y-79528484D01*
X119664965Y-79550600D01*
X119438235Y-79550600D01*
X119327051Y-79528484D01*
X119215866Y-79506368D01*
X119006397Y-79419603D01*
X118817880Y-79293640D01*
X118657560Y-79133320D01*
X118531597Y-78944803D01*
X118444832Y-78735334D01*
X118400600Y-78512964D01*
X118400600Y-78286236D01*
X118405512Y-78261544D01*
X118444832Y-78063867D01*
X118456967Y-78034571D01*
X118531597Y-77854397D01*
X118657560Y-77665880D01*
X118817880Y-77505560D01*
X119006397Y-77379597D01*
X119215866Y-77292832D01*
X119327051Y-77270716D01*
X119438235Y-77248600D01*
X119664965Y-77248600D01*
X119776149Y-77270716D01*
G37*
G36*
X125153800Y-79535400D02*
G01*
X122851800Y-79535400D01*
X122851800Y-77233400D01*
X125153800Y-77233400D01*
X125153800Y-79535400D01*
G37*
G36*
X114853028Y-77464503D02*
G01*
X115007900Y-77528653D01*
X115147281Y-77621785D01*
X115265815Y-77740319D01*
X115358947Y-77879700D01*
X115423097Y-78034572D01*
X115455800Y-78198984D01*
X115455800Y-78366616D01*
X115423097Y-78531028D01*
X115358947Y-78685900D01*
X115265815Y-78825281D01*
X115147281Y-78943815D01*
X115007900Y-79036947D01*
X114853028Y-79101097D01*
X114688616Y-79133800D01*
X114520984Y-79133800D01*
X114356572Y-79101097D01*
X114201700Y-79036947D01*
X114062319Y-78943815D01*
X113943785Y-78825281D01*
X113850653Y-78685900D01*
X113786503Y-78531028D01*
X113753800Y-78366616D01*
X113753800Y-78198984D01*
X113786503Y-78034572D01*
X113850653Y-77879700D01*
X113943785Y-77740319D01*
X114062319Y-77621785D01*
X114201700Y-77528653D01*
X114356572Y-77464503D01*
X114520984Y-77431800D01*
X114688616Y-77431800D01*
X114853028Y-77464503D01*
G37*
G36*
X197225749Y-76270716D02*
G01*
X197336934Y-76292832D01*
X197546403Y-76379597D01*
X197734920Y-76505560D01*
X197895240Y-76665880D01*
X198021203Y-76854397D01*
X198106140Y-77059452D01*
X198107968Y-77063867D01*
X198152200Y-77286235D01*
X198152200Y-77512965D01*
X198149079Y-77528653D01*
X198107968Y-77735334D01*
X198021203Y-77944803D01*
X197895240Y-78133320D01*
X197734920Y-78293640D01*
X197546403Y-78419603D01*
X197336934Y-78506368D01*
X197225749Y-78528484D01*
X197114565Y-78550600D01*
X196887835Y-78550600D01*
X196776651Y-78528484D01*
X196665466Y-78506368D01*
X196455997Y-78419603D01*
X196267480Y-78293640D01*
X196107160Y-78133320D01*
X195981197Y-77944803D01*
X195894432Y-77735334D01*
X195853321Y-77528653D01*
X195850200Y-77512965D01*
X195850200Y-77286235D01*
X195894432Y-77063867D01*
X195896261Y-77059452D01*
X195981197Y-76854397D01*
X196107160Y-76665880D01*
X196267480Y-76505560D01*
X196455997Y-76379597D01*
X196665466Y-76292832D01*
X196776651Y-76270716D01*
X196887835Y-76248600D01*
X197114565Y-76248600D01*
X197225749Y-76270716D01*
G37*
G36*
X204902200Y-78140600D02*
G01*
X203100200Y-78140600D01*
X203100200Y-76338600D01*
X204902200Y-76338600D01*
X204902200Y-78140600D01*
G37*
G36*
X130245428Y-76143703D02*
G01*
X130400300Y-76207853D01*
X130539681Y-76300985D01*
X130658215Y-76419519D01*
X130751347Y-76558900D01*
X130815497Y-76713772D01*
X130848200Y-76878184D01*
X130848200Y-77045816D01*
X130815497Y-77210228D01*
X130751347Y-77365100D01*
X130658215Y-77504481D01*
X130539681Y-77623015D01*
X130400300Y-77716147D01*
X130245428Y-77780297D01*
X130081016Y-77813000D01*
X129913384Y-77813000D01*
X129748972Y-77780297D01*
X129594100Y-77716147D01*
X129454719Y-77623015D01*
X129336185Y-77504481D01*
X129243053Y-77365100D01*
X129178903Y-77210228D01*
X129146200Y-77045816D01*
X129146200Y-76878184D01*
X129178903Y-76713772D01*
X129243053Y-76558900D01*
X129336185Y-76419519D01*
X129454719Y-76300985D01*
X129594100Y-76207853D01*
X129748972Y-76143703D01*
X129913384Y-76111000D01*
X130081016Y-76111000D01*
X130245428Y-76143703D01*
G37*
G36*
X132745428Y-76143703D02*
G01*
X132900300Y-76207853D01*
X133039681Y-76300985D01*
X133158215Y-76419519D01*
X133251347Y-76558900D01*
X133315497Y-76713772D01*
X133348200Y-76878184D01*
X133348200Y-77045816D01*
X133315497Y-77210228D01*
X133251347Y-77365100D01*
X133158215Y-77504481D01*
X133039681Y-77623015D01*
X132900300Y-77716147D01*
X132745428Y-77780297D01*
X132581016Y-77813000D01*
X132413384Y-77813000D01*
X132248972Y-77780297D01*
X132094100Y-77716147D01*
X131954719Y-77623015D01*
X131836185Y-77504481D01*
X131743053Y-77365100D01*
X131678903Y-77210228D01*
X131646200Y-77045816D01*
X131646200Y-76878184D01*
X131678903Y-76713772D01*
X131743053Y-76558900D01*
X131836185Y-76419519D01*
X131954719Y-76300985D01*
X132094100Y-76207853D01*
X132248972Y-76143703D01*
X132413384Y-76111000D01*
X132581016Y-76111000D01*
X132745428Y-76143703D01*
G37*
G36*
X69113512Y-75623927D02*
G01*
X69262812Y-75653624D01*
X69426784Y-75721544D01*
X69574354Y-75820147D01*
X69699853Y-75945646D01*
X69798456Y-76093216D01*
X69866376Y-76257188D01*
X69901000Y-76431259D01*
X69901000Y-76608741D01*
X69866376Y-76782812D01*
X69798456Y-76946784D01*
X69699853Y-77094354D01*
X69574354Y-77219853D01*
X69426784Y-77318456D01*
X69262812Y-77386376D01*
X69113512Y-77416073D01*
X69088742Y-77421000D01*
X68911258Y-77421000D01*
X68886488Y-77416073D01*
X68737188Y-77386376D01*
X68573216Y-77318456D01*
X68425646Y-77219853D01*
X68300147Y-77094354D01*
X68201544Y-76946784D01*
X68133624Y-76782812D01*
X68099000Y-76608741D01*
X68099000Y-76431259D01*
X68133624Y-76257188D01*
X68201544Y-76093216D01*
X68300147Y-75945646D01*
X68425646Y-75820147D01*
X68573216Y-75721544D01*
X68737188Y-75653624D01*
X68886488Y-75623927D01*
X68911258Y-75619000D01*
X69088742Y-75619000D01*
X69113512Y-75623927D01*
G37*
G36*
X78373512Y-75623927D02*
G01*
X78522812Y-75653624D01*
X78686784Y-75721544D01*
X78834354Y-75820147D01*
X78959853Y-75945646D01*
X79058456Y-76093216D01*
X79126376Y-76257188D01*
X79161000Y-76431259D01*
X79161000Y-76608741D01*
X79126376Y-76782812D01*
X79058456Y-76946784D01*
X78959853Y-77094354D01*
X78834354Y-77219853D01*
X78686784Y-77318456D01*
X78522812Y-77386376D01*
X78373512Y-77416073D01*
X78348742Y-77421000D01*
X78171258Y-77421000D01*
X78146488Y-77416073D01*
X77997188Y-77386376D01*
X77833216Y-77318456D01*
X77685646Y-77219853D01*
X77560147Y-77094354D01*
X77461544Y-76946784D01*
X77393624Y-76782812D01*
X77359000Y-76608741D01*
X77359000Y-76431259D01*
X77393624Y-76257188D01*
X77461544Y-76093216D01*
X77560147Y-75945646D01*
X77685646Y-75820147D01*
X77833216Y-75721544D01*
X77997188Y-75653624D01*
X78146488Y-75623927D01*
X78171258Y-75619000D01*
X78348742Y-75619000D01*
X78373512Y-75623927D01*
G37*
G36*
X80913512Y-75623927D02*
G01*
X81062812Y-75653624D01*
X81226784Y-75721544D01*
X81374354Y-75820147D01*
X81499853Y-75945646D01*
X81598456Y-76093216D01*
X81666376Y-76257188D01*
X81701000Y-76431259D01*
X81701000Y-76608741D01*
X81666376Y-76782812D01*
X81598456Y-76946784D01*
X81499853Y-77094354D01*
X81374354Y-77219853D01*
X81226784Y-77318456D01*
X81062812Y-77386376D01*
X80913512Y-77416073D01*
X80888742Y-77421000D01*
X80711258Y-77421000D01*
X80686488Y-77416073D01*
X80537188Y-77386376D01*
X80373216Y-77318456D01*
X80225646Y-77219853D01*
X80100147Y-77094354D01*
X80001544Y-76946784D01*
X79933624Y-76782812D01*
X79899000Y-76608741D01*
X79899000Y-76431259D01*
X79933624Y-76257188D01*
X80001544Y-76093216D01*
X80100147Y-75945646D01*
X80225646Y-75820147D01*
X80373216Y-75721544D01*
X80537188Y-75653624D01*
X80686488Y-75623927D01*
X80711258Y-75619000D01*
X80888742Y-75619000D01*
X80913512Y-75623927D01*
G37*
G36*
X90373512Y-75623927D02*
G01*
X90522812Y-75653624D01*
X90686784Y-75721544D01*
X90834354Y-75820147D01*
X90959853Y-75945646D01*
X91058456Y-76093216D01*
X91126376Y-76257188D01*
X91161000Y-76431259D01*
X91161000Y-76608741D01*
X91126376Y-76782812D01*
X91058456Y-76946784D01*
X90959853Y-77094354D01*
X90834354Y-77219853D01*
X90686784Y-77318456D01*
X90522812Y-77386376D01*
X90373512Y-77416073D01*
X90348742Y-77421000D01*
X90171258Y-77421000D01*
X90146488Y-77416073D01*
X89997188Y-77386376D01*
X89833216Y-77318456D01*
X89685646Y-77219853D01*
X89560147Y-77094354D01*
X89461544Y-76946784D01*
X89393624Y-76782812D01*
X89359000Y-76608741D01*
X89359000Y-76431259D01*
X89393624Y-76257188D01*
X89461544Y-76093216D01*
X89560147Y-75945646D01*
X89685646Y-75820147D01*
X89833216Y-75721544D01*
X89997188Y-75653624D01*
X90146488Y-75623927D01*
X90171258Y-75619000D01*
X90348742Y-75619000D01*
X90373512Y-75623927D01*
G37*
G36*
X92913512Y-75623927D02*
G01*
X93062812Y-75653624D01*
X93226784Y-75721544D01*
X93374354Y-75820147D01*
X93499853Y-75945646D01*
X93598456Y-76093216D01*
X93666376Y-76257188D01*
X93701000Y-76431259D01*
X93701000Y-76608741D01*
X93666376Y-76782812D01*
X93598456Y-76946784D01*
X93499853Y-77094354D01*
X93374354Y-77219853D01*
X93226784Y-77318456D01*
X93062812Y-77386376D01*
X92913512Y-77416073D01*
X92888742Y-77421000D01*
X92711258Y-77421000D01*
X92686488Y-77416073D01*
X92537188Y-77386376D01*
X92373216Y-77318456D01*
X92225646Y-77219853D01*
X92100147Y-77094354D01*
X92001544Y-76946784D01*
X91933624Y-76782812D01*
X91899000Y-76608741D01*
X91899000Y-76431259D01*
X91933624Y-76257188D01*
X92001544Y-76093216D01*
X92100147Y-75945646D01*
X92225646Y-75820147D01*
X92373216Y-75721544D01*
X92537188Y-75653624D01*
X92686488Y-75623927D01*
X92711258Y-75619000D01*
X92888742Y-75619000D01*
X92913512Y-75623927D01*
G37*
G36*
X56973512Y-75623927D02*
G01*
X57122812Y-75653624D01*
X57286784Y-75721544D01*
X57434354Y-75820147D01*
X57559853Y-75945646D01*
X57658456Y-76093216D01*
X57726376Y-76257188D01*
X57761000Y-76431259D01*
X57761000Y-76608741D01*
X57726376Y-76782812D01*
X57658456Y-76946784D01*
X57559853Y-77094354D01*
X57434354Y-77219853D01*
X57286784Y-77318456D01*
X57122812Y-77386376D01*
X56973512Y-77416073D01*
X56948742Y-77421000D01*
X56771258Y-77421000D01*
X56746488Y-77416073D01*
X56597188Y-77386376D01*
X56433216Y-77318456D01*
X56285646Y-77219853D01*
X56160147Y-77094354D01*
X56061544Y-76946784D01*
X55993624Y-76782812D01*
X55959000Y-76608741D01*
X55959000Y-76431259D01*
X55993624Y-76257188D01*
X56061544Y-76093216D01*
X56160147Y-75945646D01*
X56285646Y-75820147D01*
X56433216Y-75721544D01*
X56597188Y-75653624D01*
X56746488Y-75623927D01*
X56771258Y-75619000D01*
X56948742Y-75619000D01*
X56973512Y-75623927D01*
G37*
G36*
X59513512Y-75623927D02*
G01*
X59662812Y-75653624D01*
X59826784Y-75721544D01*
X59974354Y-75820147D01*
X60099853Y-75945646D01*
X60198456Y-76093216D01*
X60266376Y-76257188D01*
X60301000Y-76431259D01*
X60301000Y-76608741D01*
X60266376Y-76782812D01*
X60198456Y-76946784D01*
X60099853Y-77094354D01*
X59974354Y-77219853D01*
X59826784Y-77318456D01*
X59662812Y-77386376D01*
X59513512Y-77416073D01*
X59488742Y-77421000D01*
X59311258Y-77421000D01*
X59286488Y-77416073D01*
X59137188Y-77386376D01*
X58973216Y-77318456D01*
X58825646Y-77219853D01*
X58700147Y-77094354D01*
X58601544Y-76946784D01*
X58533624Y-76782812D01*
X58499000Y-76608741D01*
X58499000Y-76431259D01*
X58533624Y-76257188D01*
X58601544Y-76093216D01*
X58700147Y-75945646D01*
X58825646Y-75820147D01*
X58973216Y-75721544D01*
X59137188Y-75653624D01*
X59286488Y-75623927D01*
X59311258Y-75619000D01*
X59488742Y-75619000D01*
X59513512Y-75623927D01*
G37*
G36*
X66573512Y-75623927D02*
G01*
X66722812Y-75653624D01*
X66886784Y-75721544D01*
X67034354Y-75820147D01*
X67159853Y-75945646D01*
X67258456Y-76093216D01*
X67326376Y-76257188D01*
X67361000Y-76431259D01*
X67361000Y-76608741D01*
X67326376Y-76782812D01*
X67258456Y-76946784D01*
X67159853Y-77094354D01*
X67034354Y-77219853D01*
X66886784Y-77318456D01*
X66722812Y-77386376D01*
X66573512Y-77416073D01*
X66548742Y-77421000D01*
X66371258Y-77421000D01*
X66346488Y-77416073D01*
X66197188Y-77386376D01*
X66033216Y-77318456D01*
X65885646Y-77219853D01*
X65760147Y-77094354D01*
X65661544Y-76946784D01*
X65593624Y-76782812D01*
X65559000Y-76608741D01*
X65559000Y-76431259D01*
X65593624Y-76257188D01*
X65661544Y-76093216D01*
X65760147Y-75945646D01*
X65885646Y-75820147D01*
X66033216Y-75721544D01*
X66197188Y-75653624D01*
X66346488Y-75623927D01*
X66371258Y-75619000D01*
X66548742Y-75619000D01*
X66573512Y-75623927D01*
G37*
G36*
X102525112Y-75463527D02*
G01*
X102674412Y-75493224D01*
X102838384Y-75561144D01*
X102985954Y-75659747D01*
X103111453Y-75785246D01*
X103210056Y-75932816D01*
X103277976Y-76096788D01*
X103312600Y-76270859D01*
X103312600Y-76448341D01*
X103277976Y-76622412D01*
X103210056Y-76786384D01*
X103111453Y-76933954D01*
X102985954Y-77059453D01*
X102838384Y-77158056D01*
X102674412Y-77225976D01*
X102525112Y-77255673D01*
X102500342Y-77260600D01*
X102322858Y-77260600D01*
X102298088Y-77255673D01*
X102148788Y-77225976D01*
X101984816Y-77158056D01*
X101837246Y-77059453D01*
X101711747Y-76933954D01*
X101613144Y-76786384D01*
X101545224Y-76622412D01*
X101510600Y-76448341D01*
X101510600Y-76270859D01*
X101545224Y-76096788D01*
X101613144Y-75932816D01*
X101711747Y-75785246D01*
X101837246Y-75659747D01*
X101984816Y-75561144D01*
X102148788Y-75493224D01*
X102298088Y-75463527D01*
X102322858Y-75458600D01*
X102500342Y-75458600D01*
X102525112Y-75463527D01*
G37*
G36*
X105065112Y-75463527D02*
G01*
X105214412Y-75493224D01*
X105378384Y-75561144D01*
X105525954Y-75659747D01*
X105651453Y-75785246D01*
X105750056Y-75932816D01*
X105817976Y-76096788D01*
X105852600Y-76270859D01*
X105852600Y-76448341D01*
X105817976Y-76622412D01*
X105750056Y-76786384D01*
X105651453Y-76933954D01*
X105525954Y-77059453D01*
X105378384Y-77158056D01*
X105214412Y-77225976D01*
X105065112Y-77255673D01*
X105040342Y-77260600D01*
X104862858Y-77260600D01*
X104838088Y-77255673D01*
X104688788Y-77225976D01*
X104524816Y-77158056D01*
X104377246Y-77059453D01*
X104251747Y-76933954D01*
X104153144Y-76786384D01*
X104085224Y-76622412D01*
X104050600Y-76448341D01*
X104050600Y-76270859D01*
X104085224Y-76096788D01*
X104153144Y-75932816D01*
X104251747Y-75785246D01*
X104377246Y-75659747D01*
X104524816Y-75561144D01*
X104688788Y-75493224D01*
X104838088Y-75463527D01*
X104862858Y-75458600D01*
X105040342Y-75458600D01*
X105065112Y-75463527D01*
G37*
G36*
X204114712Y-73803527D02*
G01*
X204264012Y-73833224D01*
X204427984Y-73901144D01*
X204575554Y-73999747D01*
X204701053Y-74125246D01*
X204799656Y-74272816D01*
X204867576Y-74436788D01*
X204902200Y-74610859D01*
X204902200Y-74788341D01*
X204867576Y-74962412D01*
X204799656Y-75126384D01*
X204701053Y-75273954D01*
X204575554Y-75399453D01*
X204427984Y-75498056D01*
X204264012Y-75565976D01*
X204114712Y-75595673D01*
X204089942Y-75600600D01*
X203912458Y-75600600D01*
X203887688Y-75595673D01*
X203738388Y-75565976D01*
X203574416Y-75498056D01*
X203426846Y-75399453D01*
X203301347Y-75273954D01*
X203202744Y-75126384D01*
X203134824Y-74962412D01*
X203100200Y-74788341D01*
X203100200Y-74610859D01*
X203134824Y-74436788D01*
X203202744Y-74272816D01*
X203301347Y-74125246D01*
X203426846Y-73999747D01*
X203574416Y-73901144D01*
X203738388Y-73833224D01*
X203887688Y-73803527D01*
X203912458Y-73798600D01*
X204089942Y-73798600D01*
X204114712Y-73803527D01*
G37*
G36*
X69113512Y-73083927D02*
G01*
X69262812Y-73113624D01*
X69426784Y-73181544D01*
X69574354Y-73280147D01*
X69699853Y-73405646D01*
X69798456Y-73553216D01*
X69866376Y-73717188D01*
X69901000Y-73891259D01*
X69901000Y-74068741D01*
X69866376Y-74242812D01*
X69798456Y-74406784D01*
X69699853Y-74554354D01*
X69574354Y-74679853D01*
X69426784Y-74778456D01*
X69262812Y-74846376D01*
X69113512Y-74876073D01*
X69088742Y-74881000D01*
X68911258Y-74881000D01*
X68886488Y-74876073D01*
X68737188Y-74846376D01*
X68573216Y-74778456D01*
X68425646Y-74679853D01*
X68300147Y-74554354D01*
X68201544Y-74406784D01*
X68133624Y-74242812D01*
X68099000Y-74068741D01*
X68099000Y-73891259D01*
X68133624Y-73717188D01*
X68201544Y-73553216D01*
X68300147Y-73405646D01*
X68425646Y-73280147D01*
X68573216Y-73181544D01*
X68737188Y-73113624D01*
X68886488Y-73083927D01*
X68911258Y-73079000D01*
X69088742Y-73079000D01*
X69113512Y-73083927D01*
G37*
G36*
X78373512Y-73083927D02*
G01*
X78522812Y-73113624D01*
X78686784Y-73181544D01*
X78834354Y-73280147D01*
X78959853Y-73405646D01*
X79058456Y-73553216D01*
X79126376Y-73717188D01*
X79161000Y-73891259D01*
X79161000Y-74068741D01*
X79126376Y-74242812D01*
X79058456Y-74406784D01*
X78959853Y-74554354D01*
X78834354Y-74679853D01*
X78686784Y-74778456D01*
X78522812Y-74846376D01*
X78373512Y-74876073D01*
X78348742Y-74881000D01*
X78171258Y-74881000D01*
X78146488Y-74876073D01*
X77997188Y-74846376D01*
X77833216Y-74778456D01*
X77685646Y-74679853D01*
X77560147Y-74554354D01*
X77461544Y-74406784D01*
X77393624Y-74242812D01*
X77359000Y-74068741D01*
X77359000Y-73891259D01*
X77393624Y-73717188D01*
X77461544Y-73553216D01*
X77560147Y-73405646D01*
X77685646Y-73280147D01*
X77833216Y-73181544D01*
X77997188Y-73113624D01*
X78146488Y-73083927D01*
X78171258Y-73079000D01*
X78348742Y-73079000D01*
X78373512Y-73083927D01*
G37*
G36*
X66573512Y-73083927D02*
G01*
X66722812Y-73113624D01*
X66886784Y-73181544D01*
X67034354Y-73280147D01*
X67159853Y-73405646D01*
X67258456Y-73553216D01*
X67326376Y-73717188D01*
X67361000Y-73891259D01*
X67361000Y-74068741D01*
X67326376Y-74242812D01*
X67258456Y-74406784D01*
X67159853Y-74554354D01*
X67034354Y-74679853D01*
X66886784Y-74778456D01*
X66722812Y-74846376D01*
X66573512Y-74876073D01*
X66548742Y-74881000D01*
X66371258Y-74881000D01*
X66346488Y-74876073D01*
X66197188Y-74846376D01*
X66033216Y-74778456D01*
X65885646Y-74679853D01*
X65760147Y-74554354D01*
X65661544Y-74406784D01*
X65593624Y-74242812D01*
X65559000Y-74068741D01*
X65559000Y-73891259D01*
X65593624Y-73717188D01*
X65661544Y-73553216D01*
X65760147Y-73405646D01*
X65885646Y-73280147D01*
X66033216Y-73181544D01*
X66197188Y-73113624D01*
X66346488Y-73083927D01*
X66371258Y-73079000D01*
X66548742Y-73079000D01*
X66573512Y-73083927D01*
G37*
G36*
X59513512Y-73083927D02*
G01*
X59662812Y-73113624D01*
X59826784Y-73181544D01*
X59974354Y-73280147D01*
X60099853Y-73405646D01*
X60198456Y-73553216D01*
X60266376Y-73717188D01*
X60301000Y-73891259D01*
X60301000Y-74068741D01*
X60266376Y-74242812D01*
X60198456Y-74406784D01*
X60099853Y-74554354D01*
X59974354Y-74679853D01*
X59826784Y-74778456D01*
X59662812Y-74846376D01*
X59513512Y-74876073D01*
X59488742Y-74881000D01*
X59311258Y-74881000D01*
X59286488Y-74876073D01*
X59137188Y-74846376D01*
X58973216Y-74778456D01*
X58825646Y-74679853D01*
X58700147Y-74554354D01*
X58601544Y-74406784D01*
X58533624Y-74242812D01*
X58499000Y-74068741D01*
X58499000Y-73891259D01*
X58533624Y-73717188D01*
X58601544Y-73553216D01*
X58700147Y-73405646D01*
X58825646Y-73280147D01*
X58973216Y-73181544D01*
X59137188Y-73113624D01*
X59286488Y-73083927D01*
X59311258Y-73079000D01*
X59488742Y-73079000D01*
X59513512Y-73083927D01*
G37*
G36*
X90373512Y-73083927D02*
G01*
X90522812Y-73113624D01*
X90686784Y-73181544D01*
X90834354Y-73280147D01*
X90959853Y-73405646D01*
X91058456Y-73553216D01*
X91126376Y-73717188D01*
X91161000Y-73891259D01*
X91161000Y-74068741D01*
X91126376Y-74242812D01*
X91058456Y-74406784D01*
X90959853Y-74554354D01*
X90834354Y-74679853D01*
X90686784Y-74778456D01*
X90522812Y-74846376D01*
X90373512Y-74876073D01*
X90348742Y-74881000D01*
X90171258Y-74881000D01*
X90146488Y-74876073D01*
X89997188Y-74846376D01*
X89833216Y-74778456D01*
X89685646Y-74679853D01*
X89560147Y-74554354D01*
X89461544Y-74406784D01*
X89393624Y-74242812D01*
X89359000Y-74068741D01*
X89359000Y-73891259D01*
X89393624Y-73717188D01*
X89461544Y-73553216D01*
X89560147Y-73405646D01*
X89685646Y-73280147D01*
X89833216Y-73181544D01*
X89997188Y-73113624D01*
X90146488Y-73083927D01*
X90171258Y-73079000D01*
X90348742Y-73079000D01*
X90373512Y-73083927D01*
G37*
G36*
X92913512Y-73083927D02*
G01*
X93062812Y-73113624D01*
X93226784Y-73181544D01*
X93374354Y-73280147D01*
X93499853Y-73405646D01*
X93598456Y-73553216D01*
X93666376Y-73717188D01*
X93701000Y-73891259D01*
X93701000Y-74068741D01*
X93666376Y-74242812D01*
X93598456Y-74406784D01*
X93499853Y-74554354D01*
X93374354Y-74679853D01*
X93226784Y-74778456D01*
X93062812Y-74846376D01*
X92913512Y-74876073D01*
X92888742Y-74881000D01*
X92711258Y-74881000D01*
X92686488Y-74876073D01*
X92537188Y-74846376D01*
X92373216Y-74778456D01*
X92225646Y-74679853D01*
X92100147Y-74554354D01*
X92001544Y-74406784D01*
X91933624Y-74242812D01*
X91899000Y-74068741D01*
X91899000Y-73891259D01*
X91933624Y-73717188D01*
X92001544Y-73553216D01*
X92100147Y-73405646D01*
X92225646Y-73280147D01*
X92373216Y-73181544D01*
X92537188Y-73113624D01*
X92686488Y-73083927D01*
X92711258Y-73079000D01*
X92888742Y-73079000D01*
X92913512Y-73083927D01*
G37*
G36*
X80913512Y-73083927D02*
G01*
X81062812Y-73113624D01*
X81226784Y-73181544D01*
X81374354Y-73280147D01*
X81499853Y-73405646D01*
X81598456Y-73553216D01*
X81666376Y-73717188D01*
X81701000Y-73891259D01*
X81701000Y-74068741D01*
X81666376Y-74242812D01*
X81598456Y-74406784D01*
X81499853Y-74554354D01*
X81374354Y-74679853D01*
X81226784Y-74778456D01*
X81062812Y-74846376D01*
X80913512Y-74876073D01*
X80888742Y-74881000D01*
X80711258Y-74881000D01*
X80686488Y-74876073D01*
X80537188Y-74846376D01*
X80373216Y-74778456D01*
X80225646Y-74679853D01*
X80100147Y-74554354D01*
X80001544Y-74406784D01*
X79933624Y-74242812D01*
X79899000Y-74068741D01*
X79899000Y-73891259D01*
X79933624Y-73717188D01*
X80001544Y-73553216D01*
X80100147Y-73405646D01*
X80225646Y-73280147D01*
X80373216Y-73181544D01*
X80537188Y-73113624D01*
X80686488Y-73083927D01*
X80711258Y-73079000D01*
X80888742Y-73079000D01*
X80913512Y-73083927D01*
G37*
G36*
X56973512Y-73083927D02*
G01*
X57122812Y-73113624D01*
X57286784Y-73181544D01*
X57434354Y-73280147D01*
X57559853Y-73405646D01*
X57658456Y-73553216D01*
X57726376Y-73717188D01*
X57761000Y-73891259D01*
X57761000Y-74068741D01*
X57726376Y-74242812D01*
X57658456Y-74406784D01*
X57559853Y-74554354D01*
X57434354Y-74679853D01*
X57286784Y-74778456D01*
X57122812Y-74846376D01*
X56973512Y-74876073D01*
X56948742Y-74881000D01*
X56771258Y-74881000D01*
X56746488Y-74876073D01*
X56597188Y-74846376D01*
X56433216Y-74778456D01*
X56285646Y-74679853D01*
X56160147Y-74554354D01*
X56061544Y-74406784D01*
X55993624Y-74242812D01*
X55959000Y-74068741D01*
X55959000Y-73891259D01*
X55993624Y-73717188D01*
X56061544Y-73553216D01*
X56160147Y-73405646D01*
X56285646Y-73280147D01*
X56433216Y-73181544D01*
X56597188Y-73113624D01*
X56746488Y-73083927D01*
X56771258Y-73079000D01*
X56948742Y-73079000D01*
X56973512Y-73083927D01*
G37*
G36*
X105065112Y-72923527D02*
G01*
X105214412Y-72953224D01*
X105378384Y-73021144D01*
X105525954Y-73119747D01*
X105651453Y-73245246D01*
X105750056Y-73392816D01*
X105817976Y-73556788D01*
X105852600Y-73730859D01*
X105852600Y-73908341D01*
X105817976Y-74082412D01*
X105750056Y-74246384D01*
X105651453Y-74393954D01*
X105525954Y-74519453D01*
X105378384Y-74618056D01*
X105214412Y-74685976D01*
X105065112Y-74715673D01*
X105040342Y-74720600D01*
X104862858Y-74720600D01*
X104838088Y-74715673D01*
X104688788Y-74685976D01*
X104524816Y-74618056D01*
X104377246Y-74519453D01*
X104251747Y-74393954D01*
X104153144Y-74246384D01*
X104085224Y-74082412D01*
X104050600Y-73908341D01*
X104050600Y-73730859D01*
X104085224Y-73556788D01*
X104153144Y-73392816D01*
X104251747Y-73245246D01*
X104377246Y-73119747D01*
X104524816Y-73021144D01*
X104688788Y-72953224D01*
X104838088Y-72923527D01*
X104862858Y-72918600D01*
X105040342Y-72918600D01*
X105065112Y-72923527D01*
G37*
G36*
X102525112Y-72923527D02*
G01*
X102674412Y-72953224D01*
X102838384Y-73021144D01*
X102985954Y-73119747D01*
X103111453Y-73245246D01*
X103210056Y-73392816D01*
X103277976Y-73556788D01*
X103312600Y-73730859D01*
X103312600Y-73908341D01*
X103277976Y-74082412D01*
X103210056Y-74246384D01*
X103111453Y-74393954D01*
X102985954Y-74519453D01*
X102838384Y-74618056D01*
X102674412Y-74685976D01*
X102525112Y-74715673D01*
X102500342Y-74720600D01*
X102322858Y-74720600D01*
X102298088Y-74715673D01*
X102148788Y-74685976D01*
X101984816Y-74618056D01*
X101837246Y-74519453D01*
X101711747Y-74393954D01*
X101613144Y-74246384D01*
X101545224Y-74082412D01*
X101510600Y-73908341D01*
X101510600Y-73730859D01*
X101545224Y-73556788D01*
X101613144Y-73392816D01*
X101711747Y-73245246D01*
X101837246Y-73119747D01*
X101984816Y-73021144D01*
X102148788Y-72953224D01*
X102298088Y-72923527D01*
X102322858Y-72918600D01*
X102500342Y-72918600D01*
X102525112Y-72923527D01*
G37*
G36*
X80913512Y-70543927D02*
G01*
X81062812Y-70573624D01*
X81226784Y-70641544D01*
X81374354Y-70740147D01*
X81499853Y-70865646D01*
X81598456Y-71013216D01*
X81666376Y-71177188D01*
X81701000Y-71351259D01*
X81701000Y-71528741D01*
X81666376Y-71702812D01*
X81598456Y-71866784D01*
X81499853Y-72014354D01*
X81374354Y-72139853D01*
X81226784Y-72238456D01*
X81062812Y-72306376D01*
X80913512Y-72336073D01*
X80888742Y-72341000D01*
X80711258Y-72341000D01*
X80686488Y-72336073D01*
X80537188Y-72306376D01*
X80373216Y-72238456D01*
X80225646Y-72139853D01*
X80100147Y-72014354D01*
X80001544Y-71866784D01*
X79933624Y-71702812D01*
X79899000Y-71528741D01*
X79899000Y-71351259D01*
X79933624Y-71177188D01*
X80001544Y-71013216D01*
X80100147Y-70865646D01*
X80225646Y-70740147D01*
X80373216Y-70641544D01*
X80537188Y-70573624D01*
X80686488Y-70543927D01*
X80711258Y-70539000D01*
X80888742Y-70539000D01*
X80913512Y-70543927D01*
G37*
G36*
X90373512Y-70543927D02*
G01*
X90522812Y-70573624D01*
X90686784Y-70641544D01*
X90834354Y-70740147D01*
X90959853Y-70865646D01*
X91058456Y-71013216D01*
X91126376Y-71177188D01*
X91161000Y-71351259D01*
X91161000Y-71528741D01*
X91126376Y-71702812D01*
X91058456Y-71866784D01*
X90959853Y-72014354D01*
X90834354Y-72139853D01*
X90686784Y-72238456D01*
X90522812Y-72306376D01*
X90373512Y-72336073D01*
X90348742Y-72341000D01*
X90171258Y-72341000D01*
X90146488Y-72336073D01*
X89997188Y-72306376D01*
X89833216Y-72238456D01*
X89685646Y-72139853D01*
X89560147Y-72014354D01*
X89461544Y-71866784D01*
X89393624Y-71702812D01*
X89359000Y-71528741D01*
X89359000Y-71351259D01*
X89393624Y-71177188D01*
X89461544Y-71013216D01*
X89560147Y-70865646D01*
X89685646Y-70740147D01*
X89833216Y-70641544D01*
X89997188Y-70573624D01*
X90146488Y-70543927D01*
X90171258Y-70539000D01*
X90348742Y-70539000D01*
X90373512Y-70543927D01*
G37*
G36*
X69113512Y-70543927D02*
G01*
X69262812Y-70573624D01*
X69426784Y-70641544D01*
X69574354Y-70740147D01*
X69699853Y-70865646D01*
X69798456Y-71013216D01*
X69866376Y-71177188D01*
X69901000Y-71351259D01*
X69901000Y-71528741D01*
X69866376Y-71702812D01*
X69798456Y-71866784D01*
X69699853Y-72014354D01*
X69574354Y-72139853D01*
X69426784Y-72238456D01*
X69262812Y-72306376D01*
X69113512Y-72336073D01*
X69088742Y-72341000D01*
X68911258Y-72341000D01*
X68886488Y-72336073D01*
X68737188Y-72306376D01*
X68573216Y-72238456D01*
X68425646Y-72139853D01*
X68300147Y-72014354D01*
X68201544Y-71866784D01*
X68133624Y-71702812D01*
X68099000Y-71528741D01*
X68099000Y-71351259D01*
X68133624Y-71177188D01*
X68201544Y-71013216D01*
X68300147Y-70865646D01*
X68425646Y-70740147D01*
X68573216Y-70641544D01*
X68737188Y-70573624D01*
X68886488Y-70543927D01*
X68911258Y-70539000D01*
X69088742Y-70539000D01*
X69113512Y-70543927D01*
G37*
G36*
X92913512Y-70543927D02*
G01*
X93062812Y-70573624D01*
X93226784Y-70641544D01*
X93374354Y-70740147D01*
X93499853Y-70865646D01*
X93598456Y-71013216D01*
X93666376Y-71177188D01*
X93701000Y-71351259D01*
X93701000Y-71528741D01*
X93666376Y-71702812D01*
X93598456Y-71866784D01*
X93499853Y-72014354D01*
X93374354Y-72139853D01*
X93226784Y-72238456D01*
X93062812Y-72306376D01*
X92913512Y-72336073D01*
X92888742Y-72341000D01*
X92711258Y-72341000D01*
X92686488Y-72336073D01*
X92537188Y-72306376D01*
X92373216Y-72238456D01*
X92225646Y-72139853D01*
X92100147Y-72014354D01*
X92001544Y-71866784D01*
X91933624Y-71702812D01*
X91899000Y-71528741D01*
X91899000Y-71351259D01*
X91933624Y-71177188D01*
X92001544Y-71013216D01*
X92100147Y-70865646D01*
X92225646Y-70740147D01*
X92373216Y-70641544D01*
X92537188Y-70573624D01*
X92686488Y-70543927D01*
X92711258Y-70539000D01*
X92888742Y-70539000D01*
X92913512Y-70543927D01*
G37*
G36*
X66573512Y-70543927D02*
G01*
X66722812Y-70573624D01*
X66886784Y-70641544D01*
X67034354Y-70740147D01*
X67159853Y-70865646D01*
X67258456Y-71013216D01*
X67326376Y-71177188D01*
X67361000Y-71351259D01*
X67361000Y-71528741D01*
X67326376Y-71702812D01*
X67258456Y-71866784D01*
X67159853Y-72014354D01*
X67034354Y-72139853D01*
X66886784Y-72238456D01*
X66722812Y-72306376D01*
X66573512Y-72336073D01*
X66548742Y-72341000D01*
X66371258Y-72341000D01*
X66346488Y-72336073D01*
X66197188Y-72306376D01*
X66033216Y-72238456D01*
X65885646Y-72139853D01*
X65760147Y-72014354D01*
X65661544Y-71866784D01*
X65593624Y-71702812D01*
X65559000Y-71528741D01*
X65559000Y-71351259D01*
X65593624Y-71177188D01*
X65661544Y-71013216D01*
X65760147Y-70865646D01*
X65885646Y-70740147D01*
X66033216Y-70641544D01*
X66197188Y-70573624D01*
X66346488Y-70543927D01*
X66371258Y-70539000D01*
X66548742Y-70539000D01*
X66573512Y-70543927D01*
G37*
G36*
X59513512Y-70543927D02*
G01*
X59662812Y-70573624D01*
X59826784Y-70641544D01*
X59974354Y-70740147D01*
X60099853Y-70865646D01*
X60198456Y-71013216D01*
X60266376Y-71177188D01*
X60301000Y-71351259D01*
X60301000Y-71528741D01*
X60266376Y-71702812D01*
X60198456Y-71866784D01*
X60099853Y-72014354D01*
X59974354Y-72139853D01*
X59826784Y-72238456D01*
X59662812Y-72306376D01*
X59513512Y-72336073D01*
X59488742Y-72341000D01*
X59311258Y-72341000D01*
X59286488Y-72336073D01*
X59137188Y-72306376D01*
X58973216Y-72238456D01*
X58825646Y-72139853D01*
X58700147Y-72014354D01*
X58601544Y-71866784D01*
X58533624Y-71702812D01*
X58499000Y-71528741D01*
X58499000Y-71351259D01*
X58533624Y-71177188D01*
X58601544Y-71013216D01*
X58700147Y-70865646D01*
X58825646Y-70740147D01*
X58973216Y-70641544D01*
X59137188Y-70573624D01*
X59286488Y-70543927D01*
X59311258Y-70539000D01*
X59488742Y-70539000D01*
X59513512Y-70543927D01*
G37*
G36*
X56973512Y-70543927D02*
G01*
X57122812Y-70573624D01*
X57286784Y-70641544D01*
X57434354Y-70740147D01*
X57559853Y-70865646D01*
X57658456Y-71013216D01*
X57726376Y-71177188D01*
X57761000Y-71351259D01*
X57761000Y-71528741D01*
X57726376Y-71702812D01*
X57658456Y-71866784D01*
X57559853Y-72014354D01*
X57434354Y-72139853D01*
X57286784Y-72238456D01*
X57122812Y-72306376D01*
X56973512Y-72336073D01*
X56948742Y-72341000D01*
X56771258Y-72341000D01*
X56746488Y-72336073D01*
X56597188Y-72306376D01*
X56433216Y-72238456D01*
X56285646Y-72139853D01*
X56160147Y-72014354D01*
X56061544Y-71866784D01*
X55993624Y-71702812D01*
X55959000Y-71528741D01*
X55959000Y-71351259D01*
X55993624Y-71177188D01*
X56061544Y-71013216D01*
X56160147Y-70865646D01*
X56285646Y-70740147D01*
X56433216Y-70641544D01*
X56597188Y-70573624D01*
X56746488Y-70543927D01*
X56771258Y-70539000D01*
X56948742Y-70539000D01*
X56973512Y-70543927D01*
G37*
G36*
X78373512Y-70543927D02*
G01*
X78522812Y-70573624D01*
X78686784Y-70641544D01*
X78834354Y-70740147D01*
X78959853Y-70865646D01*
X79058456Y-71013216D01*
X79126376Y-71177188D01*
X79161000Y-71351259D01*
X79161000Y-71528741D01*
X79126376Y-71702812D01*
X79058456Y-71866784D01*
X78959853Y-72014354D01*
X78834354Y-72139853D01*
X78686784Y-72238456D01*
X78522812Y-72306376D01*
X78373512Y-72336073D01*
X78348742Y-72341000D01*
X78171258Y-72341000D01*
X78146488Y-72336073D01*
X77997188Y-72306376D01*
X77833216Y-72238456D01*
X77685646Y-72139853D01*
X77560147Y-72014354D01*
X77461544Y-71866784D01*
X77393624Y-71702812D01*
X77359000Y-71528741D01*
X77359000Y-71351259D01*
X77393624Y-71177188D01*
X77461544Y-71013216D01*
X77560147Y-70865646D01*
X77685646Y-70740147D01*
X77833216Y-70641544D01*
X77997188Y-70573624D01*
X78146488Y-70543927D01*
X78171258Y-70539000D01*
X78348742Y-70539000D01*
X78373512Y-70543927D01*
G37*
G36*
X185251000Y-72251000D02*
G01*
X182749000Y-72251000D01*
X182749000Y-69749000D01*
X185251000Y-69749000D01*
X185251000Y-72251000D01*
G37*
G36*
X165251000Y-72251000D02*
G01*
X162749000Y-72251000D01*
X162749000Y-69749000D01*
X165251000Y-69749000D01*
X165251000Y-72251000D01*
G37*
G36*
X102525112Y-70383527D02*
G01*
X102674412Y-70413224D01*
X102838384Y-70481144D01*
X102985954Y-70579747D01*
X103111453Y-70705246D01*
X103210056Y-70852816D01*
X103277976Y-71016788D01*
X103312600Y-71190859D01*
X103312600Y-71368341D01*
X103277976Y-71542412D01*
X103210056Y-71706384D01*
X103111453Y-71853954D01*
X102985954Y-71979453D01*
X102838384Y-72078056D01*
X102674412Y-72145976D01*
X102525112Y-72175673D01*
X102500342Y-72180600D01*
X102322858Y-72180600D01*
X102298088Y-72175673D01*
X102148788Y-72145976D01*
X101984816Y-72078056D01*
X101837246Y-71979453D01*
X101711747Y-71853954D01*
X101613144Y-71706384D01*
X101545224Y-71542412D01*
X101510600Y-71368341D01*
X101510600Y-71190859D01*
X101545224Y-71016788D01*
X101613144Y-70852816D01*
X101711747Y-70705246D01*
X101837246Y-70579747D01*
X101984816Y-70481144D01*
X102148788Y-70413224D01*
X102298088Y-70383527D01*
X102322858Y-70378600D01*
X102500342Y-70378600D01*
X102525112Y-70383527D01*
G37*
G36*
X105065112Y-70383527D02*
G01*
X105214412Y-70413224D01*
X105378384Y-70481144D01*
X105525954Y-70579747D01*
X105651453Y-70705246D01*
X105750056Y-70852816D01*
X105817976Y-71016788D01*
X105852600Y-71190859D01*
X105852600Y-71368341D01*
X105817976Y-71542412D01*
X105750056Y-71706384D01*
X105651453Y-71853954D01*
X105525954Y-71979453D01*
X105378384Y-72078056D01*
X105214412Y-72145976D01*
X105065112Y-72175673D01*
X105040342Y-72180600D01*
X104862858Y-72180600D01*
X104838088Y-72175673D01*
X104688788Y-72145976D01*
X104524816Y-72078056D01*
X104377246Y-71979453D01*
X104251747Y-71853954D01*
X104153144Y-71706384D01*
X104085224Y-71542412D01*
X104050600Y-71368341D01*
X104050600Y-71190859D01*
X104085224Y-71016788D01*
X104153144Y-70852816D01*
X104251747Y-70705246D01*
X104377246Y-70579747D01*
X104524816Y-70481144D01*
X104688788Y-70413224D01*
X104838088Y-70383527D01*
X104862858Y-70378600D01*
X105040342Y-70378600D01*
X105065112Y-70383527D01*
G37*
G36*
X130093028Y-69133303D02*
G01*
X130247900Y-69197453D01*
X130387281Y-69290585D01*
X130505815Y-69409119D01*
X130598947Y-69548500D01*
X130663097Y-69703372D01*
X130695800Y-69867784D01*
X130695800Y-70035416D01*
X130663097Y-70199828D01*
X130598947Y-70354700D01*
X130505815Y-70494081D01*
X130387281Y-70612615D01*
X130247900Y-70705747D01*
X130093028Y-70769897D01*
X129928616Y-70802600D01*
X129760984Y-70802600D01*
X129596572Y-70769897D01*
X129441700Y-70705747D01*
X129302319Y-70612615D01*
X129183785Y-70494081D01*
X129090653Y-70354700D01*
X129026503Y-70199828D01*
X128993800Y-70035416D01*
X128993800Y-69867784D01*
X129026503Y-69703372D01*
X129090653Y-69548500D01*
X129183785Y-69409119D01*
X129302319Y-69290585D01*
X129441700Y-69197453D01*
X129596572Y-69133303D01*
X129760984Y-69100600D01*
X129928616Y-69100600D01*
X130093028Y-69133303D01*
G37*
G36*
X132593028Y-69133303D02*
G01*
X132747900Y-69197453D01*
X132887281Y-69290585D01*
X133005815Y-69409119D01*
X133098947Y-69548500D01*
X133163097Y-69703372D01*
X133195800Y-69867784D01*
X133195800Y-70035416D01*
X133163097Y-70199828D01*
X133098947Y-70354700D01*
X133005815Y-70494081D01*
X132887281Y-70612615D01*
X132747900Y-70705747D01*
X132593028Y-70769897D01*
X132428616Y-70802600D01*
X132260984Y-70802600D01*
X132096572Y-70769897D01*
X131941700Y-70705747D01*
X131802319Y-70612615D01*
X131683785Y-70494081D01*
X131590653Y-70354700D01*
X131526503Y-70199828D01*
X131493800Y-70035416D01*
X131493800Y-69867784D01*
X131526503Y-69703372D01*
X131590653Y-69548500D01*
X131683785Y-69409119D01*
X131802319Y-69290585D01*
X131941700Y-69197453D01*
X132096572Y-69133303D01*
X132260984Y-69100600D01*
X132428616Y-69100600D01*
X132593028Y-69133303D01*
G37*
G36*
X146602600Y-70243100D02*
G01*
X144500600Y-70243100D01*
X144500600Y-68236100D01*
X146602600Y-68236100D01*
X146602600Y-70243100D01*
G37*
G36*
X69113512Y-68003927D02*
G01*
X69262812Y-68033624D01*
X69426784Y-68101544D01*
X69574354Y-68200147D01*
X69699853Y-68325646D01*
X69798456Y-68473216D01*
X69866376Y-68637188D01*
X69901000Y-68811259D01*
X69901000Y-68988741D01*
X69866376Y-69162812D01*
X69798456Y-69326784D01*
X69699853Y-69474354D01*
X69574354Y-69599853D01*
X69426784Y-69698456D01*
X69262812Y-69766376D01*
X69113512Y-69796073D01*
X69088742Y-69801000D01*
X68911258Y-69801000D01*
X68886488Y-69796073D01*
X68737188Y-69766376D01*
X68573216Y-69698456D01*
X68425646Y-69599853D01*
X68300147Y-69474354D01*
X68201544Y-69326784D01*
X68133624Y-69162812D01*
X68099000Y-68988741D01*
X68099000Y-68811259D01*
X68133624Y-68637188D01*
X68201544Y-68473216D01*
X68300147Y-68325646D01*
X68425646Y-68200147D01*
X68573216Y-68101544D01*
X68737188Y-68033624D01*
X68886488Y-68003927D01*
X68911258Y-67999000D01*
X69088742Y-67999000D01*
X69113512Y-68003927D01*
G37*
G36*
X66573512Y-68003927D02*
G01*
X66722812Y-68033624D01*
X66886784Y-68101544D01*
X67034354Y-68200147D01*
X67159853Y-68325646D01*
X67258456Y-68473216D01*
X67326376Y-68637188D01*
X67361000Y-68811259D01*
X67361000Y-68988741D01*
X67326376Y-69162812D01*
X67258456Y-69326784D01*
X67159853Y-69474354D01*
X67034354Y-69599853D01*
X66886784Y-69698456D01*
X66722812Y-69766376D01*
X66573512Y-69796073D01*
X66548742Y-69801000D01*
X66371258Y-69801000D01*
X66346488Y-69796073D01*
X66197188Y-69766376D01*
X66033216Y-69698456D01*
X65885646Y-69599853D01*
X65760147Y-69474354D01*
X65661544Y-69326784D01*
X65593624Y-69162812D01*
X65559000Y-68988741D01*
X65559000Y-68811259D01*
X65593624Y-68637188D01*
X65661544Y-68473216D01*
X65760147Y-68325646D01*
X65885646Y-68200147D01*
X66033216Y-68101544D01*
X66197188Y-68033624D01*
X66346488Y-68003927D01*
X66371258Y-67999000D01*
X66548742Y-67999000D01*
X66573512Y-68003927D01*
G37*
G36*
X78373512Y-68003927D02*
G01*
X78522812Y-68033624D01*
X78686784Y-68101544D01*
X78834354Y-68200147D01*
X78959853Y-68325646D01*
X79058456Y-68473216D01*
X79126376Y-68637188D01*
X79161000Y-68811259D01*
X79161000Y-68988741D01*
X79126376Y-69162812D01*
X79058456Y-69326784D01*
X78959853Y-69474354D01*
X78834354Y-69599853D01*
X78686784Y-69698456D01*
X78522812Y-69766376D01*
X78373512Y-69796073D01*
X78348742Y-69801000D01*
X78171258Y-69801000D01*
X78146488Y-69796073D01*
X77997188Y-69766376D01*
X77833216Y-69698456D01*
X77685646Y-69599853D01*
X77560147Y-69474354D01*
X77461544Y-69326784D01*
X77393624Y-69162812D01*
X77359000Y-68988741D01*
X77359000Y-68811259D01*
X77393624Y-68637188D01*
X77461544Y-68473216D01*
X77560147Y-68325646D01*
X77685646Y-68200147D01*
X77833216Y-68101544D01*
X77997188Y-68033624D01*
X78146488Y-68003927D01*
X78171258Y-67999000D01*
X78348742Y-67999000D01*
X78373512Y-68003927D01*
G37*
G36*
X92913512Y-68003927D02*
G01*
X93062812Y-68033624D01*
X93226784Y-68101544D01*
X93374354Y-68200147D01*
X93499853Y-68325646D01*
X93598456Y-68473216D01*
X93666376Y-68637188D01*
X93701000Y-68811259D01*
X93701000Y-68988741D01*
X93666376Y-69162812D01*
X93598456Y-69326784D01*
X93499853Y-69474354D01*
X93374354Y-69599853D01*
X93226784Y-69698456D01*
X93062812Y-69766376D01*
X92913512Y-69796073D01*
X92888742Y-69801000D01*
X92711258Y-69801000D01*
X92686488Y-69796073D01*
X92537188Y-69766376D01*
X92373216Y-69698456D01*
X92225646Y-69599853D01*
X92100147Y-69474354D01*
X92001544Y-69326784D01*
X91933624Y-69162812D01*
X91899000Y-68988741D01*
X91899000Y-68811259D01*
X91933624Y-68637188D01*
X92001544Y-68473216D01*
X92100147Y-68325646D01*
X92225646Y-68200147D01*
X92373216Y-68101544D01*
X92537188Y-68033624D01*
X92686488Y-68003927D01*
X92711258Y-67999000D01*
X92888742Y-67999000D01*
X92913512Y-68003927D01*
G37*
G36*
X90373512Y-68003927D02*
G01*
X90522812Y-68033624D01*
X90686784Y-68101544D01*
X90834354Y-68200147D01*
X90959853Y-68325646D01*
X91058456Y-68473216D01*
X91126376Y-68637188D01*
X91161000Y-68811259D01*
X91161000Y-68988741D01*
X91126376Y-69162812D01*
X91058456Y-69326784D01*
X90959853Y-69474354D01*
X90834354Y-69599853D01*
X90686784Y-69698456D01*
X90522812Y-69766376D01*
X90373512Y-69796073D01*
X90348742Y-69801000D01*
X90171258Y-69801000D01*
X90146488Y-69796073D01*
X89997188Y-69766376D01*
X89833216Y-69698456D01*
X89685646Y-69599853D01*
X89560147Y-69474354D01*
X89461544Y-69326784D01*
X89393624Y-69162812D01*
X89359000Y-68988741D01*
X89359000Y-68811259D01*
X89393624Y-68637188D01*
X89461544Y-68473216D01*
X89560147Y-68325646D01*
X89685646Y-68200147D01*
X89833216Y-68101544D01*
X89997188Y-68033624D01*
X90146488Y-68003927D01*
X90171258Y-67999000D01*
X90348742Y-67999000D01*
X90373512Y-68003927D01*
G37*
G36*
X80913512Y-68003927D02*
G01*
X81062812Y-68033624D01*
X81226784Y-68101544D01*
X81374354Y-68200147D01*
X81499853Y-68325646D01*
X81598456Y-68473216D01*
X81666376Y-68637188D01*
X81701000Y-68811259D01*
X81701000Y-68988741D01*
X81666376Y-69162812D01*
X81598456Y-69326784D01*
X81499853Y-69474354D01*
X81374354Y-69599853D01*
X81226784Y-69698456D01*
X81062812Y-69766376D01*
X80913512Y-69796073D01*
X80888742Y-69801000D01*
X80711258Y-69801000D01*
X80686488Y-69796073D01*
X80537188Y-69766376D01*
X80373216Y-69698456D01*
X80225646Y-69599853D01*
X80100147Y-69474354D01*
X80001544Y-69326784D01*
X79933624Y-69162812D01*
X79899000Y-68988741D01*
X79899000Y-68811259D01*
X79933624Y-68637188D01*
X80001544Y-68473216D01*
X80100147Y-68325646D01*
X80225646Y-68200147D01*
X80373216Y-68101544D01*
X80537188Y-68033624D01*
X80686488Y-68003927D01*
X80711258Y-67999000D01*
X80888742Y-67999000D01*
X80913512Y-68003927D01*
G37*
G36*
X105065112Y-67843527D02*
G01*
X105214412Y-67873224D01*
X105378384Y-67941144D01*
X105525954Y-68039747D01*
X105651453Y-68165246D01*
X105750056Y-68312816D01*
X105817976Y-68476788D01*
X105852600Y-68650859D01*
X105852600Y-68828341D01*
X105817976Y-69002412D01*
X105750056Y-69166384D01*
X105651453Y-69313954D01*
X105525954Y-69439453D01*
X105378384Y-69538056D01*
X105214412Y-69605976D01*
X105065112Y-69635673D01*
X105040342Y-69640600D01*
X104862858Y-69640600D01*
X104838088Y-69635673D01*
X104688788Y-69605976D01*
X104524816Y-69538056D01*
X104377246Y-69439453D01*
X104251747Y-69313954D01*
X104153144Y-69166384D01*
X104085224Y-69002412D01*
X104050600Y-68828341D01*
X104050600Y-68650859D01*
X104085224Y-68476788D01*
X104153144Y-68312816D01*
X104251747Y-68165246D01*
X104377246Y-68039747D01*
X104524816Y-67941144D01*
X104688788Y-67873224D01*
X104838088Y-67843527D01*
X104862858Y-67838600D01*
X105040342Y-67838600D01*
X105065112Y-67843527D01*
G37*
G36*
X102525112Y-67843527D02*
G01*
X102674412Y-67873224D01*
X102838384Y-67941144D01*
X102985954Y-68039747D01*
X103111453Y-68165246D01*
X103210056Y-68312816D01*
X103277976Y-68476788D01*
X103312600Y-68650859D01*
X103312600Y-68828341D01*
X103277976Y-69002412D01*
X103210056Y-69166384D01*
X103111453Y-69313954D01*
X102985954Y-69439453D01*
X102838384Y-69538056D01*
X102674412Y-69605976D01*
X102525112Y-69635673D01*
X102500342Y-69640600D01*
X102322858Y-69640600D01*
X102298088Y-69635673D01*
X102148788Y-69605976D01*
X101984816Y-69538056D01*
X101837246Y-69439453D01*
X101711747Y-69313954D01*
X101613144Y-69166384D01*
X101545224Y-69002412D01*
X101510600Y-68828341D01*
X101510600Y-68650859D01*
X101545224Y-68476788D01*
X101613144Y-68312816D01*
X101711747Y-68165246D01*
X101837246Y-68039747D01*
X101984816Y-67941144D01*
X102148788Y-67873224D01*
X102298088Y-67843527D01*
X102322858Y-67838600D01*
X102500342Y-67838600D01*
X102525112Y-67843527D01*
G37*
G36*
X120702600Y-69390600D02*
G01*
X118400600Y-69390600D01*
X118400600Y-67088600D01*
X120702600Y-67088600D01*
X120702600Y-69390600D01*
G37*
G36*
X124176910Y-67085483D02*
G01*
X124338534Y-67117632D01*
X124548003Y-67204397D01*
X124736520Y-67330360D01*
X124896840Y-67490680D01*
X125022803Y-67679197D01*
X125103730Y-67874571D01*
X125109568Y-67888667D01*
X125153800Y-68111035D01*
X125153800Y-68337765D01*
X125147183Y-68371029D01*
X125109568Y-68560134D01*
X125022803Y-68769603D01*
X124896840Y-68958120D01*
X124736520Y-69118440D01*
X124548003Y-69244403D01*
X124338534Y-69331168D01*
X124227349Y-69353284D01*
X124116165Y-69375400D01*
X123889435Y-69375400D01*
X123778251Y-69353284D01*
X123667066Y-69331168D01*
X123457597Y-69244403D01*
X123269080Y-69118440D01*
X123108760Y-68958120D01*
X122982797Y-68769603D01*
X122896032Y-68560134D01*
X122858417Y-68371029D01*
X122851800Y-68337765D01*
X122851800Y-68111035D01*
X122896032Y-67888667D01*
X122901871Y-67874571D01*
X122982797Y-67679197D01*
X123108760Y-67490680D01*
X123269080Y-67330360D01*
X123457597Y-67204397D01*
X123667066Y-67117632D01*
X123828690Y-67085483D01*
X123889435Y-67073400D01*
X124116165Y-67073400D01*
X124176910Y-67085483D01*
G37*
G36*
X114853028Y-67304503D02*
G01*
X115007900Y-67368653D01*
X115147281Y-67461785D01*
X115265815Y-67580319D01*
X115358947Y-67719700D01*
X115423097Y-67874572D01*
X115455800Y-68038984D01*
X115455800Y-68206616D01*
X115423097Y-68371028D01*
X115358947Y-68525900D01*
X115265815Y-68665281D01*
X115147281Y-68783815D01*
X115007900Y-68876947D01*
X114853028Y-68941097D01*
X114688616Y-68973800D01*
X114520984Y-68973800D01*
X114356572Y-68941097D01*
X114201700Y-68876947D01*
X114062319Y-68783815D01*
X113943785Y-68665281D01*
X113850653Y-68525900D01*
X113786503Y-68371028D01*
X113753800Y-68206616D01*
X113753800Y-68038984D01*
X113786503Y-67874572D01*
X113850653Y-67719700D01*
X113943785Y-67580319D01*
X114062319Y-67461785D01*
X114201700Y-67368653D01*
X114356572Y-67304503D01*
X114520984Y-67271800D01*
X114688616Y-67271800D01*
X114853028Y-67304503D01*
G37*
G36*
X198152200Y-68390600D02*
G01*
X195850200Y-68390600D01*
X195850200Y-66088600D01*
X198152200Y-66088600D01*
X198152200Y-68390600D01*
G37*
G36*
X145697536Y-65700940D02*
G01*
X145795820Y-65710620D01*
X145984981Y-65768001D01*
X146159312Y-65861183D01*
X146312115Y-65986585D01*
X146437517Y-66139388D01*
X146530699Y-66313719D01*
X146588080Y-66502880D01*
X146607455Y-66699600D01*
X146588080Y-66896320D01*
X146530699Y-67085481D01*
X146437517Y-67259812D01*
X146312115Y-67412615D01*
X146159312Y-67538017D01*
X145984981Y-67631199D01*
X145795820Y-67688580D01*
X145697536Y-67698260D01*
X145648395Y-67703100D01*
X145454805Y-67703100D01*
X145405664Y-67698260D01*
X145307380Y-67688580D01*
X145118219Y-67631199D01*
X144943888Y-67538017D01*
X144791085Y-67412615D01*
X144665683Y-67259812D01*
X144572501Y-67085481D01*
X144515120Y-66896320D01*
X144495745Y-66699600D01*
X144515120Y-66502880D01*
X144572501Y-66313719D01*
X144665683Y-66139388D01*
X144791085Y-65986585D01*
X144943888Y-65861183D01*
X145118219Y-65768001D01*
X145307380Y-65710620D01*
X145405664Y-65700940D01*
X145454805Y-65696100D01*
X145648395Y-65696100D01*
X145697536Y-65700940D01*
G37*
G36*
X69113512Y-65463927D02*
G01*
X69262812Y-65493624D01*
X69426784Y-65561544D01*
X69574354Y-65660147D01*
X69699853Y-65785646D01*
X69798456Y-65933216D01*
X69866376Y-66097188D01*
X69901000Y-66271259D01*
X69901000Y-66448741D01*
X69866376Y-66622812D01*
X69798456Y-66786784D01*
X69699853Y-66934354D01*
X69574354Y-67059853D01*
X69426784Y-67158456D01*
X69262812Y-67226376D01*
X69113512Y-67256073D01*
X69088742Y-67261000D01*
X68911258Y-67261000D01*
X68886488Y-67256073D01*
X68737188Y-67226376D01*
X68573216Y-67158456D01*
X68425646Y-67059853D01*
X68300147Y-66934354D01*
X68201544Y-66786784D01*
X68133624Y-66622812D01*
X68099000Y-66448741D01*
X68099000Y-66271259D01*
X68133624Y-66097188D01*
X68201544Y-65933216D01*
X68300147Y-65785646D01*
X68425646Y-65660147D01*
X68573216Y-65561544D01*
X68737188Y-65493624D01*
X68886488Y-65463927D01*
X68911258Y-65459000D01*
X69088742Y-65459000D01*
X69113512Y-65463927D01*
G37*
G36*
X66573512Y-65463927D02*
G01*
X66722812Y-65493624D01*
X66886784Y-65561544D01*
X67034354Y-65660147D01*
X67159853Y-65785646D01*
X67258456Y-65933216D01*
X67326376Y-66097188D01*
X67361000Y-66271259D01*
X67361000Y-66448741D01*
X67326376Y-66622812D01*
X67258456Y-66786784D01*
X67159853Y-66934354D01*
X67034354Y-67059853D01*
X66886784Y-67158456D01*
X66722812Y-67226376D01*
X66573512Y-67256073D01*
X66548742Y-67261000D01*
X66371258Y-67261000D01*
X66346488Y-67256073D01*
X66197188Y-67226376D01*
X66033216Y-67158456D01*
X65885646Y-67059853D01*
X65760147Y-66934354D01*
X65661544Y-66786784D01*
X65593624Y-66622812D01*
X65559000Y-66448741D01*
X65559000Y-66271259D01*
X65593624Y-66097188D01*
X65661544Y-65933216D01*
X65760147Y-65785646D01*
X65885646Y-65660147D01*
X66033216Y-65561544D01*
X66197188Y-65493624D01*
X66346488Y-65463927D01*
X66371258Y-65459000D01*
X66548742Y-65459000D01*
X66573512Y-65463927D01*
G37*
G36*
X92913512Y-65463927D02*
G01*
X93062812Y-65493624D01*
X93226784Y-65561544D01*
X93374354Y-65660147D01*
X93499853Y-65785646D01*
X93598456Y-65933216D01*
X93666376Y-66097188D01*
X93701000Y-66271259D01*
X93701000Y-66448741D01*
X93666376Y-66622812D01*
X93598456Y-66786784D01*
X93499853Y-66934354D01*
X93374354Y-67059853D01*
X93226784Y-67158456D01*
X93062812Y-67226376D01*
X92913512Y-67256073D01*
X92888742Y-67261000D01*
X92711258Y-67261000D01*
X92686488Y-67256073D01*
X92537188Y-67226376D01*
X92373216Y-67158456D01*
X92225646Y-67059853D01*
X92100147Y-66934354D01*
X92001544Y-66786784D01*
X91933624Y-66622812D01*
X91899000Y-66448741D01*
X91899000Y-66271259D01*
X91933624Y-66097188D01*
X92001544Y-65933216D01*
X92100147Y-65785646D01*
X92225646Y-65660147D01*
X92373216Y-65561544D01*
X92537188Y-65493624D01*
X92686488Y-65463927D01*
X92711258Y-65459000D01*
X92888742Y-65459000D01*
X92913512Y-65463927D01*
G37*
G36*
X90373512Y-65463927D02*
G01*
X90522812Y-65493624D01*
X90686784Y-65561544D01*
X90834354Y-65660147D01*
X90959853Y-65785646D01*
X91058456Y-65933216D01*
X91126376Y-66097188D01*
X91161000Y-66271259D01*
X91161000Y-66448741D01*
X91126376Y-66622812D01*
X91058456Y-66786784D01*
X90959853Y-66934354D01*
X90834354Y-67059853D01*
X90686784Y-67158456D01*
X90522812Y-67226376D01*
X90373512Y-67256073D01*
X90348742Y-67261000D01*
X90171258Y-67261000D01*
X90146488Y-67256073D01*
X89997188Y-67226376D01*
X89833216Y-67158456D01*
X89685646Y-67059853D01*
X89560147Y-66934354D01*
X89461544Y-66786784D01*
X89393624Y-66622812D01*
X89359000Y-66448741D01*
X89359000Y-66271259D01*
X89393624Y-66097188D01*
X89461544Y-65933216D01*
X89560147Y-65785646D01*
X89685646Y-65660147D01*
X89833216Y-65561544D01*
X89997188Y-65493624D01*
X90146488Y-65463927D01*
X90171258Y-65459000D01*
X90348742Y-65459000D01*
X90373512Y-65463927D01*
G37*
G36*
X78373512Y-65463927D02*
G01*
X78522812Y-65493624D01*
X78686784Y-65561544D01*
X78834354Y-65660147D01*
X78959853Y-65785646D01*
X79058456Y-65933216D01*
X79126376Y-66097188D01*
X79161000Y-66271259D01*
X79161000Y-66448741D01*
X79126376Y-66622812D01*
X79058456Y-66786784D01*
X78959853Y-66934354D01*
X78834354Y-67059853D01*
X78686784Y-67158456D01*
X78522812Y-67226376D01*
X78373512Y-67256073D01*
X78348742Y-67261000D01*
X78171258Y-67261000D01*
X78146488Y-67256073D01*
X77997188Y-67226376D01*
X77833216Y-67158456D01*
X77685646Y-67059853D01*
X77560147Y-66934354D01*
X77461544Y-66786784D01*
X77393624Y-66622812D01*
X77359000Y-66448741D01*
X77359000Y-66271259D01*
X77393624Y-66097188D01*
X77461544Y-65933216D01*
X77560147Y-65785646D01*
X77685646Y-65660147D01*
X77833216Y-65561544D01*
X77997188Y-65493624D01*
X78146488Y-65463927D01*
X78171258Y-65459000D01*
X78348742Y-65459000D01*
X78373512Y-65463927D01*
G37*
G36*
X80913512Y-65463927D02*
G01*
X81062812Y-65493624D01*
X81226784Y-65561544D01*
X81374354Y-65660147D01*
X81499853Y-65785646D01*
X81598456Y-65933216D01*
X81666376Y-66097188D01*
X81701000Y-66271259D01*
X81701000Y-66448741D01*
X81666376Y-66622812D01*
X81598456Y-66786784D01*
X81499853Y-66934354D01*
X81374354Y-67059853D01*
X81226784Y-67158456D01*
X81062812Y-67226376D01*
X80913512Y-67256073D01*
X80888742Y-67261000D01*
X80711258Y-67261000D01*
X80686488Y-67256073D01*
X80537188Y-67226376D01*
X80373216Y-67158456D01*
X80225646Y-67059853D01*
X80100147Y-66934354D01*
X80001544Y-66786784D01*
X79933624Y-66622812D01*
X79899000Y-66448741D01*
X79899000Y-66271259D01*
X79933624Y-66097188D01*
X80001544Y-65933216D01*
X80100147Y-65785646D01*
X80225646Y-65660147D01*
X80373216Y-65561544D01*
X80537188Y-65493624D01*
X80686488Y-65463927D01*
X80711258Y-65459000D01*
X80888742Y-65459000D01*
X80913512Y-65463927D01*
G37*
G36*
X102525112Y-65303527D02*
G01*
X102674412Y-65333224D01*
X102838384Y-65401144D01*
X102985954Y-65499747D01*
X103111453Y-65625246D01*
X103210056Y-65772816D01*
X103277976Y-65936788D01*
X103312600Y-66110859D01*
X103312600Y-66288341D01*
X103277976Y-66462412D01*
X103210056Y-66626384D01*
X103111453Y-66773954D01*
X102985954Y-66899453D01*
X102838384Y-66998056D01*
X102674412Y-67065976D01*
X102525112Y-67095673D01*
X102500342Y-67100600D01*
X102322858Y-67100600D01*
X102298088Y-67095673D01*
X102148788Y-67065976D01*
X101984816Y-66998056D01*
X101837246Y-66899453D01*
X101711747Y-66773954D01*
X101613144Y-66626384D01*
X101545224Y-66462412D01*
X101510600Y-66288341D01*
X101510600Y-66110859D01*
X101545224Y-65936788D01*
X101613144Y-65772816D01*
X101711747Y-65625246D01*
X101837246Y-65499747D01*
X101984816Y-65401144D01*
X102148788Y-65333224D01*
X102298088Y-65303527D01*
X102322858Y-65298600D01*
X102500342Y-65298600D01*
X102525112Y-65303527D01*
G37*
G36*
X105065112Y-65303527D02*
G01*
X105214412Y-65333224D01*
X105378384Y-65401144D01*
X105525954Y-65499747D01*
X105651453Y-65625246D01*
X105750056Y-65772816D01*
X105817976Y-65936788D01*
X105852600Y-66110859D01*
X105852600Y-66288341D01*
X105817976Y-66462412D01*
X105750056Y-66626384D01*
X105651453Y-66773954D01*
X105525954Y-66899453D01*
X105378384Y-66998056D01*
X105214412Y-67065976D01*
X105065112Y-67095673D01*
X105040342Y-67100600D01*
X104862858Y-67100600D01*
X104838088Y-67095673D01*
X104688788Y-67065976D01*
X104524816Y-66998056D01*
X104377246Y-66899453D01*
X104251747Y-66773954D01*
X104153144Y-66626384D01*
X104085224Y-66462412D01*
X104050600Y-66288341D01*
X104050600Y-66110859D01*
X104085224Y-65936788D01*
X104153144Y-65772816D01*
X104251747Y-65625246D01*
X104377246Y-65499747D01*
X104524816Y-65401144D01*
X104688788Y-65333224D01*
X104838088Y-65303527D01*
X104862858Y-65298600D01*
X105040342Y-65298600D01*
X105065112Y-65303527D01*
G37*
G36*
X145697536Y-63160940D02*
G01*
X145795820Y-63170620D01*
X145984981Y-63228001D01*
X146159312Y-63321183D01*
X146312115Y-63446585D01*
X146437517Y-63599388D01*
X146530699Y-63773719D01*
X146588080Y-63962880D01*
X146607455Y-64159600D01*
X146588080Y-64356320D01*
X146530699Y-64545481D01*
X146437517Y-64719812D01*
X146312115Y-64872615D01*
X146159312Y-64998017D01*
X145984981Y-65091199D01*
X145795820Y-65148580D01*
X145697536Y-65158260D01*
X145648395Y-65163100D01*
X145454805Y-65163100D01*
X145405664Y-65158260D01*
X145307380Y-65148580D01*
X145118219Y-65091199D01*
X144943888Y-64998017D01*
X144791085Y-64872615D01*
X144665683Y-64719812D01*
X144572501Y-64545481D01*
X144515120Y-64356320D01*
X144495745Y-64159600D01*
X144515120Y-63962880D01*
X144572501Y-63773719D01*
X144665683Y-63599388D01*
X144791085Y-63446585D01*
X144943888Y-63321183D01*
X145118219Y-63228001D01*
X145307380Y-63170620D01*
X145405664Y-63160940D01*
X145454805Y-63156100D01*
X145648395Y-63156100D01*
X145697536Y-63160940D01*
G37*
G36*
X164364903Y-62297075D02*
G01*
X164592571Y-62391378D01*
X164797466Y-62528285D01*
X164971715Y-62702534D01*
X164971716Y-62702536D01*
X165108623Y-62907431D01*
X165202925Y-63135097D01*
X165222363Y-63232816D01*
X165251000Y-63376787D01*
X165251000Y-63623213D01*
X165202925Y-63864903D01*
X165108622Y-64092571D01*
X164971715Y-64297466D01*
X164797466Y-64471715D01*
X164592571Y-64608622D01*
X164592570Y-64608623D01*
X164592569Y-64608623D01*
X164364903Y-64702925D01*
X164123214Y-64751000D01*
X163876786Y-64751000D01*
X163635097Y-64702925D01*
X163407431Y-64608623D01*
X163407430Y-64608623D01*
X163407429Y-64608622D01*
X163202534Y-64471715D01*
X163028285Y-64297466D01*
X162891378Y-64092571D01*
X162797075Y-63864903D01*
X162749000Y-63623213D01*
X162749000Y-63376787D01*
X162777638Y-63232816D01*
X162797075Y-63135097D01*
X162891377Y-62907431D01*
X163028284Y-62702536D01*
X163028285Y-62702534D01*
X163202534Y-62528285D01*
X163407429Y-62391378D01*
X163635097Y-62297075D01*
X163876786Y-62249000D01*
X164123214Y-62249000D01*
X164364903Y-62297075D01*
G37*
G36*
X184364903Y-62297075D02*
G01*
X184592571Y-62391378D01*
X184797466Y-62528285D01*
X184971715Y-62702534D01*
X184971716Y-62702536D01*
X185108623Y-62907431D01*
X185202925Y-63135097D01*
X185222363Y-63232816D01*
X185251000Y-63376787D01*
X185251000Y-63623213D01*
X185202925Y-63864903D01*
X185108622Y-64092571D01*
X184971715Y-64297466D01*
X184797466Y-64471715D01*
X184592571Y-64608622D01*
X184592570Y-64608623D01*
X184592569Y-64608623D01*
X184364903Y-64702925D01*
X184123214Y-64751000D01*
X183876786Y-64751000D01*
X183635097Y-64702925D01*
X183407431Y-64608623D01*
X183407430Y-64608623D01*
X183407429Y-64608622D01*
X183202534Y-64471715D01*
X183028285Y-64297466D01*
X182891378Y-64092571D01*
X182797075Y-63864903D01*
X182749000Y-63623213D01*
X182749000Y-63376787D01*
X182777638Y-63232816D01*
X182797075Y-63135097D01*
X182891377Y-62907431D01*
X183028284Y-62702536D01*
X183028285Y-62702534D01*
X183202534Y-62528285D01*
X183407429Y-62391378D01*
X183635097Y-62297075D01*
X183876786Y-62249000D01*
X184123214Y-62249000D01*
X184364903Y-62297075D01*
G37*
G36*
X80913512Y-62923927D02*
G01*
X81062812Y-62953624D01*
X81226784Y-63021544D01*
X81374354Y-63120147D01*
X81499853Y-63245646D01*
X81598456Y-63393216D01*
X81666376Y-63557188D01*
X81701000Y-63731259D01*
X81701000Y-63908741D01*
X81666376Y-64082812D01*
X81598456Y-64246784D01*
X81499853Y-64394354D01*
X81374354Y-64519853D01*
X81226784Y-64618456D01*
X81062812Y-64686376D01*
X80913512Y-64716073D01*
X80888742Y-64721000D01*
X80711258Y-64721000D01*
X80686488Y-64716073D01*
X80537188Y-64686376D01*
X80373216Y-64618456D01*
X80225646Y-64519853D01*
X80100147Y-64394354D01*
X80001544Y-64246784D01*
X79933624Y-64082812D01*
X79899000Y-63908741D01*
X79899000Y-63731259D01*
X79933624Y-63557188D01*
X80001544Y-63393216D01*
X80100147Y-63245646D01*
X80225646Y-63120147D01*
X80373216Y-63021544D01*
X80537188Y-62953624D01*
X80686488Y-62923927D01*
X80711258Y-62919000D01*
X80888742Y-62919000D01*
X80913512Y-62923927D01*
G37*
G36*
X78373512Y-62923927D02*
G01*
X78522812Y-62953624D01*
X78686784Y-63021544D01*
X78834354Y-63120147D01*
X78959853Y-63245646D01*
X79058456Y-63393216D01*
X79126376Y-63557188D01*
X79161000Y-63731259D01*
X79161000Y-63908741D01*
X79126376Y-64082812D01*
X79058456Y-64246784D01*
X78959853Y-64394354D01*
X78834354Y-64519853D01*
X78686784Y-64618456D01*
X78522812Y-64686376D01*
X78373512Y-64716073D01*
X78348742Y-64721000D01*
X78171258Y-64721000D01*
X78146488Y-64716073D01*
X77997188Y-64686376D01*
X77833216Y-64618456D01*
X77685646Y-64519853D01*
X77560147Y-64394354D01*
X77461544Y-64246784D01*
X77393624Y-64082812D01*
X77359000Y-63908741D01*
X77359000Y-63731259D01*
X77393624Y-63557188D01*
X77461544Y-63393216D01*
X77560147Y-63245646D01*
X77685646Y-63120147D01*
X77833216Y-63021544D01*
X77997188Y-62953624D01*
X78146488Y-62923927D01*
X78171258Y-62919000D01*
X78348742Y-62919000D01*
X78373512Y-62923927D01*
G37*
G36*
X69113512Y-62923927D02*
G01*
X69262812Y-62953624D01*
X69426784Y-63021544D01*
X69574354Y-63120147D01*
X69699853Y-63245646D01*
X69798456Y-63393216D01*
X69866376Y-63557188D01*
X69901000Y-63731259D01*
X69901000Y-63908741D01*
X69866376Y-64082812D01*
X69798456Y-64246784D01*
X69699853Y-64394354D01*
X69574354Y-64519853D01*
X69426784Y-64618456D01*
X69262812Y-64686376D01*
X69113512Y-64716073D01*
X69088742Y-64721000D01*
X68911258Y-64721000D01*
X68886488Y-64716073D01*
X68737188Y-64686376D01*
X68573216Y-64618456D01*
X68425646Y-64519853D01*
X68300147Y-64394354D01*
X68201544Y-64246784D01*
X68133624Y-64082812D01*
X68099000Y-63908741D01*
X68099000Y-63731259D01*
X68133624Y-63557188D01*
X68201544Y-63393216D01*
X68300147Y-63245646D01*
X68425646Y-63120147D01*
X68573216Y-63021544D01*
X68737188Y-62953624D01*
X68886488Y-62923927D01*
X68911258Y-62919000D01*
X69088742Y-62919000D01*
X69113512Y-62923927D01*
G37*
G36*
X66573512Y-62923927D02*
G01*
X66722812Y-62953624D01*
X66886784Y-63021544D01*
X67034354Y-63120147D01*
X67159853Y-63245646D01*
X67258456Y-63393216D01*
X67326376Y-63557188D01*
X67361000Y-63731259D01*
X67361000Y-63908741D01*
X67326376Y-64082812D01*
X67258456Y-64246784D01*
X67159853Y-64394354D01*
X67034354Y-64519853D01*
X66886784Y-64618456D01*
X66722812Y-64686376D01*
X66573512Y-64716073D01*
X66548742Y-64721000D01*
X66371258Y-64721000D01*
X66346488Y-64716073D01*
X66197188Y-64686376D01*
X66033216Y-64618456D01*
X65885646Y-64519853D01*
X65760147Y-64394354D01*
X65661544Y-64246784D01*
X65593624Y-64082812D01*
X65559000Y-63908741D01*
X65559000Y-63731259D01*
X65593624Y-63557188D01*
X65661544Y-63393216D01*
X65760147Y-63245646D01*
X65885646Y-63120147D01*
X66033216Y-63021544D01*
X66197188Y-62953624D01*
X66346488Y-62923927D01*
X66371258Y-62919000D01*
X66548742Y-62919000D01*
X66573512Y-62923927D01*
G37*
G36*
X90373512Y-62923927D02*
G01*
X90522812Y-62953624D01*
X90686784Y-63021544D01*
X90834354Y-63120147D01*
X90959853Y-63245646D01*
X91058456Y-63393216D01*
X91126376Y-63557188D01*
X91161000Y-63731259D01*
X91161000Y-63908741D01*
X91126376Y-64082812D01*
X91058456Y-64246784D01*
X90959853Y-64394354D01*
X90834354Y-64519853D01*
X90686784Y-64618456D01*
X90522812Y-64686376D01*
X90373512Y-64716073D01*
X90348742Y-64721000D01*
X90171258Y-64721000D01*
X90146488Y-64716073D01*
X89997188Y-64686376D01*
X89833216Y-64618456D01*
X89685646Y-64519853D01*
X89560147Y-64394354D01*
X89461544Y-64246784D01*
X89393624Y-64082812D01*
X89359000Y-63908741D01*
X89359000Y-63731259D01*
X89393624Y-63557188D01*
X89461544Y-63393216D01*
X89560147Y-63245646D01*
X89685646Y-63120147D01*
X89833216Y-63021544D01*
X89997188Y-62953624D01*
X90146488Y-62923927D01*
X90171258Y-62919000D01*
X90348742Y-62919000D01*
X90373512Y-62923927D01*
G37*
G36*
X92913512Y-62923927D02*
G01*
X93062812Y-62953624D01*
X93226784Y-63021544D01*
X93374354Y-63120147D01*
X93499853Y-63245646D01*
X93598456Y-63393216D01*
X93666376Y-63557188D01*
X93701000Y-63731259D01*
X93701000Y-63908741D01*
X93666376Y-64082812D01*
X93598456Y-64246784D01*
X93499853Y-64394354D01*
X93374354Y-64519853D01*
X93226784Y-64618456D01*
X93062812Y-64686376D01*
X92913512Y-64716073D01*
X92888742Y-64721000D01*
X92711258Y-64721000D01*
X92686488Y-64716073D01*
X92537188Y-64686376D01*
X92373216Y-64618456D01*
X92225646Y-64519853D01*
X92100147Y-64394354D01*
X92001544Y-64246784D01*
X91933624Y-64082812D01*
X91899000Y-63908741D01*
X91899000Y-63731259D01*
X91933624Y-63557188D01*
X92001544Y-63393216D01*
X92100147Y-63245646D01*
X92225646Y-63120147D01*
X92373216Y-63021544D01*
X92537188Y-62953624D01*
X92686488Y-62923927D01*
X92711258Y-62919000D01*
X92888742Y-62919000D01*
X92913512Y-62923927D01*
G37*
G36*
X105065112Y-62763527D02*
G01*
X105214412Y-62793224D01*
X105378384Y-62861144D01*
X105525954Y-62959747D01*
X105651453Y-63085246D01*
X105750056Y-63232816D01*
X105817976Y-63396788D01*
X105852600Y-63570859D01*
X105852600Y-63748341D01*
X105817976Y-63922412D01*
X105750056Y-64086384D01*
X105651453Y-64233954D01*
X105525954Y-64359453D01*
X105378384Y-64458056D01*
X105214412Y-64525976D01*
X105065112Y-64555673D01*
X105040342Y-64560600D01*
X104862858Y-64560600D01*
X104838088Y-64555673D01*
X104688788Y-64525976D01*
X104524816Y-64458056D01*
X104377246Y-64359453D01*
X104251747Y-64233954D01*
X104153144Y-64086384D01*
X104085224Y-63922412D01*
X104050600Y-63748341D01*
X104050600Y-63570859D01*
X104085224Y-63396788D01*
X104153144Y-63232816D01*
X104251747Y-63085246D01*
X104377246Y-62959747D01*
X104524816Y-62861144D01*
X104688788Y-62793224D01*
X104838088Y-62763527D01*
X104862858Y-62758600D01*
X105040342Y-62758600D01*
X105065112Y-62763527D01*
G37*
G36*
X102525112Y-62763527D02*
G01*
X102674412Y-62793224D01*
X102838384Y-62861144D01*
X102985954Y-62959747D01*
X103111453Y-63085246D01*
X103210056Y-63232816D01*
X103277976Y-63396788D01*
X103312600Y-63570859D01*
X103312600Y-63748341D01*
X103277976Y-63922412D01*
X103210056Y-64086384D01*
X103111453Y-64233954D01*
X102985954Y-64359453D01*
X102838384Y-64458056D01*
X102674412Y-64525976D01*
X102525112Y-64555673D01*
X102500342Y-64560600D01*
X102322858Y-64560600D01*
X102298088Y-64555673D01*
X102148788Y-64525976D01*
X101984816Y-64458056D01*
X101837246Y-64359453D01*
X101711747Y-64233954D01*
X101613144Y-64086384D01*
X101545224Y-63922412D01*
X101510600Y-63748341D01*
X101510600Y-63570859D01*
X101545224Y-63396788D01*
X101613144Y-63232816D01*
X101711747Y-63085246D01*
X101837246Y-62959747D01*
X101984816Y-62861144D01*
X102148788Y-62793224D01*
X102298088Y-62763527D01*
X102322858Y-62758600D01*
X102500342Y-62758600D01*
X102525112Y-62763527D01*
G37*
M02*
