M48
; DRILL file {KiCad 6.0.2+dfsg-1} date Sun 14 May 2023 11:53:49
; FORMAT={-:-/ absolute / inch / decimal}
; #@! TF.CreationDate,2023-05-14T11:53:49+12:00
; #@! TF.GenerationSoftware,Kicad,Pcbnew,6.0.2+dfsg-1
; #@! TF.FileFunction,MixedPlating,1,2
FMAT,2
INCH
; #@! TA.AperFunction,Plated,PTH,ViaDrill
T1C0.0157
; #@! TA.AperFunction,Plated,PTH,ComponentDrill
T2C0.0315
; #@! TA.AperFunction,Plated,PTH,ComponentDrill
T3C0.0394
; #@! TA.AperFunction,Plated,PTH,ComponentDrill
T4C0.0433
; #@! TA.AperFunction,Plated,PTH,ComponentDrill
T5C0.0472
%
G90
G05
T1
X3.852Y-3.1008
T2
X4.512Y-2.682
X4.512Y-3.082
X4.878Y-3.786
X4.878Y-4.186
X5.1109Y-2.754
X5.1161Y-3.0324
X5.1238Y-3.3065
X5.1253Y-3.8583
X5.1253Y-4.138
X5.1378Y-3.6024
X5.2094Y-2.754
X5.2145Y-3.0324
X5.2223Y-3.3065
X5.2237Y-3.8583
X5.2237Y-4.138
X5.2362Y-3.6024
X7.632Y-3.886
X8.032Y-3.886
T3
X2.2386Y-2.8126
X2.2386Y-2.9126
X2.2386Y-3.0126
X2.2386Y-3.1126
X2.2386Y-3.2126
X2.252Y-3.574
X2.252Y-3.674
X2.252Y-3.774
X2.252Y-3.874
X2.252Y-3.974
X2.3386Y-2.8126
X2.3386Y-2.9126
X2.3386Y-3.0126
X2.3386Y-3.1126
X2.3386Y-3.2126
X2.352Y-3.574
X2.352Y-3.674
X2.352Y-3.774
X2.352Y-3.874
X2.352Y-3.974
X2.6165Y-2.5126
X2.6165Y-2.6126
X2.6165Y-2.7126
X2.6165Y-2.8126
X2.6165Y-2.9126
X2.6165Y-3.0126
X2.6165Y-3.1126
X2.6165Y-3.2126
X2.6191Y-3.7173
X2.6191Y-3.8173
X2.6191Y-3.9173
X2.6191Y-4.0173
X2.6191Y-4.1173
X2.6191Y-4.2173
X2.6191Y-4.3173
X2.6191Y-4.4173
X2.7165Y-2.5126
X2.7165Y-2.6126
X2.7165Y-2.7126
X2.7165Y-2.8126
X2.7165Y-2.9126
X2.7165Y-3.0126
X2.7165Y-3.1126
X2.7165Y-3.2126
X2.7191Y-3.7173
X2.7191Y-3.8173
X2.7191Y-3.9173
X2.7191Y-4.0173
X2.7191Y-4.1173
X2.7191Y-4.2173
X2.7191Y-4.3173
X2.7191Y-4.4173
X3.0811Y-2.5126
X3.0811Y-2.6126
X3.0811Y-2.7126
X3.0811Y-2.8126
X3.0811Y-2.9126
X3.0811Y-3.0126
X3.0811Y-3.1126
X3.0811Y-3.2126
X3.0907Y-3.7173
X3.0907Y-3.8173
X3.0907Y-3.9173
X3.0907Y-4.0173
X3.0907Y-4.1173
X3.0907Y-4.2173
X3.0907Y-4.3173
X3.0907Y-4.4173
X3.1811Y-2.5126
X3.1811Y-2.6126
X3.1811Y-2.7126
X3.1811Y-2.8126
X3.1811Y-2.9126
X3.1811Y-3.0126
X3.1811Y-3.1126
X3.1811Y-3.2126
X3.1907Y-3.7173
X3.1907Y-3.8173
X3.1907Y-3.9173
X3.1907Y-4.0173
X3.1907Y-4.1173
X3.1907Y-4.2173
X3.1907Y-4.3173
X3.1907Y-4.4173
X3.5535Y-2.5126
X3.5535Y-2.6126
X3.5535Y-2.7126
X3.5535Y-2.8126
X3.5535Y-2.9126
X3.5535Y-3.0126
X3.5535Y-3.1126
X3.5535Y-3.2126
X3.5624Y-3.7173
X3.5624Y-3.8173
X3.5624Y-3.9173
X3.5624Y-4.0173
X3.5624Y-4.1173
X3.5624Y-4.2173
X3.5624Y-4.3173
X3.5624Y-4.4173
X3.6535Y-2.5126
X3.6535Y-2.6126
X3.6535Y-2.7126
X3.6535Y-2.8126
X3.6535Y-2.9126
X3.6535Y-3.0126
X3.6535Y-3.1126
X3.6535Y-3.2126
X3.6624Y-3.7173
X3.6624Y-3.8173
X3.6624Y-3.9173
X3.6624Y-4.0173
X3.6624Y-4.1173
X3.6624Y-4.2173
X3.6624Y-4.3173
X3.6624Y-4.4173
X4.032Y-2.5063
X4.032Y-2.6063
X4.032Y-2.7063
X4.032Y-2.8063
X4.032Y-2.9063
X4.032Y-3.0063
X4.032Y-3.1063
X4.032Y-3.2063
X4.0341Y-3.7173
X4.0341Y-3.8173
X4.0341Y-3.9173
X4.0341Y-4.0173
X4.0341Y-4.1173
X4.0341Y-4.2173
X4.0341Y-4.3173
X4.0341Y-4.4173
X4.132Y-2.5063
X4.132Y-2.6063
X4.132Y-2.7063
X4.132Y-2.8063
X4.132Y-2.9063
X4.132Y-3.0063
X4.132Y-3.1063
X4.132Y-3.2063
X4.1341Y-3.7173
X4.1341Y-3.8173
X4.1341Y-3.9173
X4.1341Y-4.0173
X4.1341Y-4.1173
X4.1341Y-4.2173
X4.1341Y-4.3173
X4.1341Y-4.4173
X8.03Y-3.224
X8.03Y-3.324
X8.0315Y-2.9409
X8.0315Y-3.0409
X8.032Y-3.512
X8.032Y-3.612
T4
X4.506Y-3.232
X4.506Y-3.632
X4.512Y-3.792
X4.512Y-4.192
X4.7068Y-2.6866
X4.7068Y-3.0866
X4.7068Y-3.2315
X4.7068Y-3.6315
X4.7068Y-3.789
X4.7068Y-4.189
X4.882Y-2.686
X4.882Y-3.086
X5.7304Y-2.526
X5.7304Y-2.626
X5.7304Y-2.726
X5.7304Y-3.4315
X5.7304Y-3.5315
X5.7304Y-3.6315
X5.7304Y-4.2189
X5.7304Y-4.3189
X5.7304Y-4.4189
X7.756Y-2.6472
X7.756Y-3.0472
X7.756Y-3.1984
X7.756Y-3.5984
T5
X6.2993Y-3.4346
X6.4567Y-2.5
X6.4567Y-2.7953
X6.4567Y-4.0842
X6.4567Y-4.3795
X6.5945Y-3.4346
X7.0866Y-3.4346
X7.2441Y-2.5
X7.2441Y-2.7953
X7.2441Y-4.0842
X7.2441Y-4.3795
X7.3819Y-3.4346
T0
M30
